<?xml version="1.0" encoding="UTF-8"?>
<svg version="1.1" xmlns="http://www.w3.org/2000/svg" width="549" height="137">
<path d="M0 0 C181.17 0 362.34 0 549 0 C549 45.21 549 90.42 549 137 C367.83 137 186.66 137 0 137 C0 91.79 0 46.58 0 0 Z " fill="#0077B5" transform="translate(0,0)"/>
<path d="M0 0 C1.25132217 -0.00945648 2.50264435 -0.01891296 3.79188538 -0.02865601 C5.15349648 -0.02328672 6.51510468 -0.01713387 7.87670898 -0.01025391 C9.27628226 -0.01227546 10.67585452 -0.01518759 12.07542419 -0.01895142 C15.00497492 -0.02336951 17.9342508 -0.01695966 20.86376953 -0.00292969 C24.61894077 0.01417815 28.37346951 0.00430831 32.12861729 -0.01364708 C35.01711371 -0.02448558 37.90545766 -0.02103865 40.79395866 -0.0132637 C42.17865004 -0.01126268 43.56335527 -0.01371759 44.94803047 -0.02070236 C46.88201763 -0.02831871 48.81605335 -0.01465212 50.75 0 C52.40069237 0.00358017 52.40069237 0.00358017 54.08473206 0.00723267 C56.81030273 0.38818359 56.81030273 0.38818359 58.66481018 1.52694702 C60.33400894 4.23911985 60.19173397 6.38408357 60.19848633 9.55615234 C60.20794281 10.8275708 60.21739929 12.09898926 60.22714233 13.40893555 C60.22177264 14.79785473 60.21561969 16.18677107 60.20874023 17.57568359 C60.21076112 18.99910634 60.21367269 20.42252807 60.21743774 21.84594727 C60.22186045 24.82855084 60.21543209 27.8108848 60.20141602 30.79345703 C60.18432376 34.6170345 60.19416529 38.43998026 60.21213341 42.26353455 C60.22297292 45.20264447 60.21952422 48.14160457 60.21175003 51.08071899 C60.20974847 52.49053014 60.2122058 53.90035488 60.21918869 55.31015015 C60.22680497 57.28016908 60.21313852 59.25023568 60.19848633 61.22021484 C60.19609955 62.34145752 60.19371277 63.4627002 60.19125366 64.61791992 C59.81030273 67.38818359 59.81030273 67.38818359 58.67153931 69.24942017 C55.95865942 70.90924592 53.81036179 70.76962343 50.64233398 70.77636719 C49.37091553 70.78582367 48.09949707 70.79528015 46.78955078 70.80502319 C45.4006316 70.7996535 44.01171526 70.79350055 42.62280273 70.78662109 C41.19937999 70.78864198 39.77595826 70.79155355 38.35253906 70.7953186 C35.36993549 70.79974131 32.38760152 70.79331295 29.4050293 70.77929688 C25.58145183 70.76220462 21.75850607 70.77204615 17.93495178 70.79001427 C14.99584186 70.80085378 12.05688176 70.79740508 9.11776733 70.78963089 C7.70795619 70.78762933 6.29813145 70.79008665 4.88833618 70.79706955 C2.91831725 70.80468583 0.94825065 70.79101938 -1.02172852 70.77636719 C-2.14297119 70.77398041 -3.26421387 70.77159363 -4.41943359 70.76913452 C-7.18969727 70.38818359 -7.18969727 70.38818359 -9.04994202 69.24942017 C-10.71007208 66.53840409 -10.57848982 64.38705026 -10.59375 61.22021484 C-10.60643417 59.94879639 -10.61911835 58.67737793 -10.63218689 57.36743164 C-10.63013559 55.97851397 -10.62714769 54.58959742 -10.62329102 53.20068359 C-10.62785147 51.77725983 -10.63315663 50.35383827 -10.63917542 48.93041992 C-10.6481105 45.94782564 -10.64567871 42.96549907 -10.63574219 39.98291016 C-10.62424522 36.15920308 -10.64447168 32.3364185 -10.67365932 28.51283264 C-10.69199717 25.57371139 -10.69173393 22.63481228 -10.6860218 19.69564819 C-10.68586832 18.28582463 -10.69193474 16.87598627 -10.70431328 15.46621704 C-10.7191747 13.49624683 -10.70594137 11.52612499 -10.69140625 9.55615234 C-10.69124008 8.43490967 -10.69107391 7.31366699 -10.69090271 6.15844727 C-10.18969727 3.38818359 -10.18969727 3.38818359 -8.54519653 1.52694702 C-5.5411275 0.07463328 -3.33682455 0.00723198 0 0 Z " fill="#FDFEFE" transform="translate(53.189697265625,33.61181640625)"/>
<path d="M0 0 C3.320625 -0.061875 6.64125 -0.12375 10.0625 -0.1875 C11.09511963 -0.21481201 12.12773926 -0.24212402 13.19165039 -0.27026367 C20.41886732 -0.33509739 25.20401938 0.5768168 30.8125 5.4375 C35.16389413 10.53484741 35.4368216 14.48717645 35.31640625 21.0859375 C34.752728 26.27734455 32.26541175 28.83192761 28.5625 32.25 C24.4062639 35.08840514 20.94821753 36.25703334 15.91796875 36.1953125 C14.65762817 36.18781982 14.65762817 36.18781982 13.37182617 36.18017578 C12.32099854 36.16196777 11.2701709 36.14375977 10.1875 36.125 C6.825625 36.08375 3.46375 36.0425 0 36 C0 24.12 0 12.24 0 0 Z " fill="#F7FAFC" transform="translate(372,51)"/>
<path d="M0 0 C4.29 0 8.58 0 13 0 C15.89175729 2.92770003 17.11558707 4.48135742 18.8125 8 C19.43995117 9.1446875 19.43995117 9.1446875 20.08007812 10.3125 C21.09809096 12.18470751 22.05548895 14.0896571 23 16 C23.33 10.72 23.66 5.44 24 0 C27.3 0 30.6 0 34 0 C34 11.88 34 23.76 34 36 C30.7 36 27.4 36 24 36 C21.35215896 33.11173 19.81175945 31.03249468 18 27.6875 C17.53722656 26.90181641 17.07445312 26.11613281 16.59765625 25.30664062 C15.74101595 23.8478691 14.8993237 22.38013612 14.078125 20.90112305 C13.12646245 19.22299889 12.07012038 17.60518057 11 16 C10.67 22.6 10.34 29.2 10 36 C6.7 36 3.4 36 0 36 C0 24.12 0 12.24 0 0 Z " fill="#F0F7FA" transform="translate(455,51)"/>
<path d="M0 0 C3.96 0 7.92 0 12 0 C14.90958297 3.02393339 16.38196464 4.92858894 18.25 8.5 C18.72050781 9.31082031 19.19101563 10.12164062 19.67578125 10.95703125 C20.82395838 12.94876709 21.91768339 14.97172163 23 17 C23.33 11.39 23.66 5.78 24 0 C26.97 0 29.94 0 33 0 C33 11.88 33 23.76 33 36 C23 36 23 36 20.67138672 34.07226562 C20.17912598 33.19248047 19.68686523 32.31269531 19.1796875 31.40625 C18.62539062 30.45878906 18.07109375 29.51132813 17.5 28.53515625 C16.96375 27.53355469 16.4275 26.53195313 15.875 25.5 C15.01261719 23.99759766 15.01261719 23.99759766 14.1328125 22.46484375 C12.72170607 19.99540749 11.35627637 17.49997024 10 15 C9.67 21.93 9.34 28.86 9 36 C6.03 36 3.06 36 0 36 C0 24.12 0 12.24 0 0 Z " fill="#F8FBFD" transform="translate(236,51)"/>
<path d="M0 0 C3.3 0 6.6 0 10 0 C10.33 0.99 10.66 1.98 11 3 C11.61875 2.505 12.2375 2.01 12.875 1.5 C17.2867612 -0.61764538 21.18666311 -0.69666718 26 0 C29.59785822 1.87388449 30.66820883 3.13687892 32.1171875 6.90625 C33.5191975 12.1637875 33.21212211 17.53928003 33.125 22.9375 C33.11597656 24.00291016 33.10695312 25.06832031 33.09765625 26.16601562 C33.07423539 28.77744161 33.03836937 31.38875087 33 34 C29.37 34 25.74 34 22 34 C21.93941406 32.35128906 21.87882812 30.70257813 21.81640625 29.00390625 C21.73202063 26.856761 21.64737165 24.70962609 21.5625 22.5625 C21.52318359 21.47388672 21.48386719 20.38527344 21.44335938 19.26367188 C21.40146484 18.22919922 21.35957031 17.19472656 21.31640625 16.12890625 C21.27974854 15.17056885 21.24309082 14.21223145 21.20532227 13.22485352 C21.24165576 11.02861075 21.24165576 11.02861075 20 10 C15.85723125 9.75266863 15.85723125 9.75266863 12 11 C11.67 18.59 11.34 26.18 11 34 C7.37 34 3.74 34 0 34 C0 22.78 0 11.56 0 0 Z " fill="#0E7EB9" transform="translate(70,60)"/>
<path d="M0 0 C3.3 0 6.6 0 10 0 C10.33 4.62 10.66 9.24 11 14 C11.71027344 13.07316406 12.42054688 12.14632812 13.15234375 11.19140625 C14.08069105 9.98174158 15.00907855 8.77210776 15.9375 7.5625 C16.40607422 6.95083984 16.87464844 6.33917969 17.35742188 5.70898438 C20.88671875 1.11328125 20.88671875 1.11328125 22 0 C24.01964199 -0.07244053 26.04167124 -0.08377188 28.0625 -0.0625 C29.16722656 -0.05347656 30.27195312 -0.04445312 31.41015625 -0.03515625 C32.26480469 -0.02355469 33.11945313 -0.01195312 34 0 C29.93866463 5.59363406 25.6208599 10.85963514 21 16 C23.37611085 20.19359962 26.1556069 23.90943933 29.125 27.6875 C33.87426614 33.74853229 33.87426614 33.74853229 35 36 C30.46304204 36.75732838 26.5066482 37.03066842 22 36 C18.88471787 33.02394836 16.98467594 30.2759926 14.70703125 26.625 C14.14371094 25.75875 13.58039063 24.8925 13 24 C12.34 24 11.68 24 11 24 C10.67 27.96 10.34 31.92 10 36 C6.7 36 3.4 36 0 36 C0 24.12 0 12.24 0 0 Z " fill="#F4F9FC" transform="translate(285,51)"/>
<path d="M0 0 C8.91 0 17.82 0 27 0 C27 2.31 27 4.62 27 7 C21.39 7 15.78 7 10 7 C10 8.98 10 10.96 10 13 C15.28 13 20.56 13 26 13 C26 15.31 26 17.62 26 20 C20.72 20 15.44 20 10 20 C10 22.97 10 25.94 10 29 C15.61 29 21.22 29 27 29 C27 31.31 27 33.62 27 36 C18.09 36 9.18 36 0 36 C0 24.12 0 12.24 0 0 Z " fill="#F9FCFD" transform="translate(331,51)"/>
<path d="M0 0 C7.26 0 14.52 0 22 0 C22 2.31 22 4.62 22 7 C20.02 7 18.04 7 16 7 C16 14.26 16 21.52 16 29 C17.98 29 19.96 29 22 29 C22 31.31 22 33.62 22 36 C14.74 36 7.48 36 0 36 C0 33.69 0 31.38 0 29 C1.98 29 3.96 29 6 29 C6 21.74 6 14.48 6 7 C4.02 7 2.04 7 0 7 C0 4.69 0 2.38 0 0 Z " fill="#F9FCFD" transform="translate(419,51)"/>
<path d="M0 0 C7.26 0 14.52 0 22 0 C22 2.31 22 4.62 22 7 C20.02 7 18.04 7 16 7 C16 14.26 16 21.52 16 29 C17.98 29 19.96 29 22 29 C22 31.31 22 33.62 22 36 C14.74 36 7.48 36 0 36 C0 33.69 0 31.38 0 29 C1.98 29 3.96 29 6 29 C6 21.74 6 14.48 6 7 C4.02 7 2.04 7 0 7 C0 4.69 0 2.38 0 0 Z " fill="#F7FAFC" transform="translate(200,51)"/>
<path d="M0 0 C3.3 0 6.6 0 10 0 C10 9.57 10 19.14 10 29 C15.61 29 21.22 29 27 29 C27 31.31 27 33.62 27 36 C18.09 36 9.18 36 0 36 C0 24.12 0 12.24 0 0 Z " fill="#F6FAFC" transform="translate(162,51)"/>
<path d="M0 0 C3.63 0 7.26 0 11 0 C11 11.22 11 22.44 11 34 C7.37 34 3.74 34 0 34 C0 22.78 0 11.56 0 0 Z " fill="#1281BA" transform="translate(53,60)"/>
<path d="M0 0 C7.07538715 0 8.89259308 0.21404897 13.8125 4.625 C15.67923275 8.3584655 15.792457 11.92139102 15 16 C12.47031526 19.28175318 10.92268669 20.69243777 7 22 C4.69 22 2.38 22 0 22 C0 14.74 0 7.48 0 0 Z " fill="#0B7DB8" transform="translate(382,58)"/>
<path d="M0 0 C1 1 1 1 1.1875 4.4375 C1 8 1 8 -1 10 C-4.5 10.25 -4.5 10.25 -8 10 C-10 8 -10 8 -10.3125 5.0625 C-10 2 -10 2 -8.9375 0.0625 C-5.84787273 -1.63181173 -3.32782582 -0.73951685 0 0 Z " fill="#0579B6" transform="translate(63,45)"/>
<path d="M0 0 C0.33 0 0.66 0 1 0 C1 3.96 1 7.92 1 12 C-2.96 12 -6.92 12 -11 12 C-10.01 11.34 -9.02 10.68 -8 10 C-4.01036025 6.98741489 -1.39610402 4.88636408 0 0 Z " fill="#000000" transform="translate(548,125)"/>
<path d="M0 0 C0.99 1.485 0.99 1.485 2 3 C5.01258511 6.98963975 7.11363592 9.60389598 12 11 C12 11.33 12 11.66 12 12 C8.04 12 4.08 12 0 12 C0 8.04 0 4.08 0 0 Z " fill="#000000" transform="translate(0,125)"/>
<path d="M0 0 C3.96 0 7.92 0 12 0 C12 3.96 12 7.92 12 12 C11.34 11.01 10.68 10.02 10 9 C6.98741489 5.01036025 4.88636408 2.39610402 0 1 C0 0.67 0 0.34 0 0 Z " fill="#000000" transform="translate(537,0)"/>
<path d="M0 0 C3.96 0 7.92 0 12 0 C11.01 0.66 10.02 1.32 9 2 C5.01036025 5.01258511 2.39610402 7.11363592 1 12 C0.67 12 0.34 12 0 12 C0 8.04 0 4.08 0 0 Z " fill="#000000" transform="translate(0,0)"/>
</svg>
