<?xml version="1.0" encoding="UTF-8"?>
<svg version="1.1" xmlns="http://www.w3.org/2000/svg" width="383" height="152">
<path d="M0 0 C1.97777134 1.97777134 1.17763813 5.8677472 1.19287109 8.57397461 C1.20513733 9.76441879 1.20513733 9.76441879 1.21765137 10.97891235 C1.2425712 13.62004842 1.25904563 16.26113017 1.2734375 18.90234375 C1.27876118 19.80464785 1.28408485 20.70695194 1.28956985 21.63659859 C1.31634079 26.42024004 1.33569563 31.20385514 1.35009766 35.98754883 C1.36667842 40.91365336 1.41138895 45.83908009 1.4624691 50.76492977 C1.49626191 54.56298012 1.50768873 58.36087279 1.51332474 62.15905952 C1.52001317 63.97342621 1.53517205 65.7877834 1.55921555 67.6020031 C1.78559125 85.73033186 1.78559125 85.73033186 -4 94 C-4.57363281 94.89074219 -5.14726563 95.78148438 -5.73828125 96.69921875 C-9.74694249 101.76226731 -14.03301615 105.89299556 -19 110 C-20.63603225 111.39786229 -22.26596327 112.80266744 -23.89599609 114.20751953 C-26.31501514 116.290289 -28.74243522 118.36314689 -31.16992188 120.43603516 C-32.37794783 121.46840098 -33.58500023 122.50190723 -34.79101562 123.53662109 C-38.50303651 126.72115514 -42.24062241 129.87149458 -46 133 C-46.69996094 133.60457031 -47.39992188 134.20914063 -48.12109375 134.83203125 C-50.98814951 137.14994047 -52.54776486 138.01184425 -56.28125 137.9140625 C-60.60079815 136.85232482 -63.3063175 134.93882165 -66.625 132.125 C-67.22691162 131.63322266 -67.82882324 131.14144531 -68.44897461 130.63476562 C-70.31240213 129.10484998 -72.15762304 127.55516982 -74 126 C-75.11316635 125.07017493 -76.22644356 124.14048255 -77.33984375 123.2109375 C-79.48197601 121.41448728 -81.61197722 119.60486691 -83.734375 117.78515625 C-86.03838069 115.81099753 -88.36339445 113.86527431 -90.703125 111.93359375 C-91.30697021 111.43214844 -91.91081543 110.93070312 -92.53295898 110.4140625 C-93.69803988 109.44734426 -94.86670295 108.48492312 -96.03930664 107.52734375 C-97.39708275 106.39512654 -98.70411647 105.20256295 -100 104 C-100 103.34 -100 102.68 -100 102 C-100.99 101.67 -101.98 101.34 -103 101 C-104.71875 99.03125 -104.71875 99.03125 -106.5 96.5 C-107.0878125 95.6853125 -107.675625 94.870625 -108.28125 94.03125 C-113.59818135 84.65411653 -113.41437665 75.64394406 -113.328125 65.21484375 C-113.325061 63.58777543 -113.32318976 61.96070446 -113.32244873 60.33363342 C-113.31786663 56.93708116 -113.30352217 53.54076875 -113.28125 50.14428711 C-113.25294709 45.80813905 -113.24203321 41.47217892 -113.2375679 37.13594723 C-113.23239325 32.97472233 -113.21787142 28.81354366 -113.203125 24.65234375 C-113.20124428 23.86790327 -113.19936356 23.08346279 -113.19742584 22.27525139 C-113.19048895 20.03622164 -113.17682331 17.79733315 -113.16113281 15.55834961 C-113.15430481 14.28865829 -113.14747681 13.01896698 -113.14044189 11.71080017 C-112.9902626 7.74271528 -112.54596453 3.93107045 -112 0 C-76.62871428 -13.74531828 -35.22442886 -15.92918115 0 0 Z M-102 11 C-102.1044877 12.89984469 -102.13855299 14.80359483 -102.14526367 16.70629883 C-102.15164352 17.92879837 -102.15802338 19.15129791 -102.16459656 20.4108429 C-102.16612682 21.75957195 -102.16723993 23.10830153 -102.16796875 24.45703125 C-102.17118298 25.83933039 -102.17454718 27.22162919 -102.17805481 28.60392761 C-102.18405901 31.51354762 -102.18589383 34.4231379 -102.18530273 37.33276367 C-102.18520204 41.0298217 -102.19875156 44.72668364 -102.21607494 48.42369556 C-102.22730464 51.28678731 -102.22921847 54.14983368 -102.22869301 57.01294518 C-102.23042315 59.02889307 -102.24121053 61.04482679 -102.25224304 63.06074524 C-102.21266877 79.23159707 -99.66109961 90.37655599 -88.75 102.5 C-87.13106215 104.21693046 -87.13106215 104.21693046 -85 104 C-85 82.22 -85 60.44 -85 38 C-77.04547916 41.18180834 -69.99053033 46.18806667 -66 54 C-64.22304518 62.07968519 -64.56736739 70.41083102 -64.9831543 78.63012695 C-64.98871338 79.41218506 -64.99427246 80.19424316 -65 81 C-62.6636456 83.3363544 -58.02181519 82.97954733 -54.86547852 83.04272461 C-54.16865967 83.03764893 -53.47184082 83.03257324 -52.75390625 83.02734375 C-51.51511719 83.01832031 -50.27632812 83.00929688 -49 83 C-49.03778564 82.17910889 -49.07557129 81.35821777 -49.11450195 80.51245117 C-50.00733962 55.4865812 -50.00733962 55.4865812 -45.109375 49.66015625 C-42.03517028 46.84686669 -38.72627582 44.84133265 -35 43 C-34.34 42.67 -33.68 42.34 -33 42 C-33 41.34 -33 40.68 -33 40 C-31.35 39.34 -29.7 38.68 -28 38 C-28 60.11 -28 82.22 -28 105 C-22.30724698 100.64811718 -22.30724698 100.64811718 -20 95 C-19.34 95 -18.68 95 -18 95 C-17.19289985 93.69693373 -16.40529823 92.38179035 -15.625 91.0625 C-14.96371094 89.96615234 -14.96371094 89.96615234 -14.2890625 88.84765625 C-10.31703376 80.07308367 -10.73479768 70.88062732 -10.8046875 61.46484375 C-10.80842463 59.97555228 -10.81126829 58.48625832 -10.81326294 56.9969635 C-10.82084433 53.10569287 -10.84044456 49.21457511 -10.8626709 45.32336426 C-10.88324873 41.34124824 -10.89229001 37.35910716 -10.90234375 33.37695312 C-10.92369651 25.58456625 -10.95776477 17.79230467 -11 10 C-13.86016522 9.84535054 -16.71186492 9.73326157 -19.57421875 9.64453125 C-20.37565308 9.59687622 -21.1770874 9.54922119 -22.00280762 9.50012207 C-27.50876287 9.372403 -30.37079209 10.3452455 -34.38928223 14.14343262 C-36.71964759 16.67167616 -38.85664885 19.30984115 -41 22 C-43.35761603 24.45384525 -45.56603867 26.68332552 -48.3125 28.6875 C-48.869375 29.120625 -49.42625 29.55375 -50 30 C-50 30.66 -50 31.32 -50 32 C-51.31403276 32.70394612 -52.6520257 33.36345658 -54 34 C-54.598125 34.29003906 -55.19625 34.58007812 -55.8125 34.87890625 C-58 35 -58 35 -60.515625 32.9375 C-61.43899966 31.96956255 -62.34983886 30.98956232 -63.25 30 C-64.2285231 28.97210263 -65.20899992 27.94606164 -66.19140625 26.921875 C-66.66980957 26.41849609 -67.14821289 25.91511719 -67.64111328 25.39648438 C-69.99837008 22.97400703 -72.5349657 20.79007348 -75.13671875 18.63671875 C-77 17 -77 17 -78.70703125 15.01953125 C-81.8846312 11.55117052 -84.30908852 9.87247638 -89.02734375 9.52734375 C-95.99530768 8.95823888 -95.99530768 8.95823888 -102 11 Z " fill="#2A6591" transform="translate(116,11)"/>
<path d="M0 0 C-0.11808403 5.23290697 -0.24232036 10.46561751 -0.37231445 15.69824219 C-0.4156833 17.47912603 -0.45735694 19.26005198 -0.49731445 21.04101562 C-0.5549699 23.59778548 -0.6186777 26.15434298 -0.68359375 28.7109375 C-0.70866249 29.90944839 -0.70866249 29.90944839 -0.73423767 31.13217163 C-0.88612829 36.77225659 -0.88612829 36.77225659 -2 39 C-2.66 39 -3.32 39 -4 39 C-4 38.34 -4 37.68 -4 37 C-4.73863281 36.7215625 -5.47726563 36.443125 -6.23828125 36.15625 C-14.2058043 32.82048363 -20.03156232 27.25334086 -25.93359375 21.07421875 C-28.81643175 18.18048155 -29.5011301 18.01318367 -33.6953125 17.90234375 C-35.17190652 17.90899507 -36.64848404 17.92092426 -38.125 17.9375 C-39.25615234 17.94426758 -39.25615234 17.94426758 -40.41015625 17.95117188 C-42.27347127 17.96296501 -44.13674555 17.98090058 -46 18 C-46.0466293 26.00691639 -46.08202293 34.0137747 -46.10362434 42.02079391 C-46.11399926 45.73998611 -46.12804128 49.45908445 -46.15087891 53.17822266 C-46.17283455 56.77682652 -46.18461574 60.37534091 -46.18975449 63.97400665 C-46.1951718 65.99439956 -46.21074705 68.01475719 -46.22659302 70.03509521 C-46.22753603 77.90324988 -45.56585574 85.29140295 -44 93 C-43.80302521 94.00939636 -43.60605042 95.01879272 -43.40310669 96.05877686 C-42.94849785 98.37545614 -42.48068649 100.68861392 -42 103 C-41.34 103 -40.68 103 -40 103 C-40 103.66 -40 104.32 -40 105 C-39.34 105.33 -38.68 105.66 -38 106 C-36.93132982 106.94962143 -35.89202258 107.9327603 -34.875 108.9375 C-34.33617188 109.46214844 -33.79734375 109.98679687 -33.2421875 110.52734375 C-32 112 -32 112 -32 114 C-31.34 114 -30.68 114 -30 114 C-28.92429907 110.7728972 -28.8428884 108.3634259 -28.79467773 104.96801758 C-28.77473251 103.72695755 -28.75478729 102.48589752 -28.73423767 101.20722961 C-28.71725473 99.8529981 -28.70037587 98.49876527 -28.68359375 97.14453125 C-28.66301772 95.75875741 -28.64202108 94.37298975 -28.62062073 92.98722839 C-28.56546699 89.34259047 -28.51602826 85.69789654 -28.46777344 82.05316162 C-28.41750944 78.3329165 -28.36184896 74.61275257 -28.30664062 70.89257812 C-28.19914101 63.59512087 -28.09767793 56.29759603 -28 49 C-26.68 49.33 -25.36 49.66 -24 50 C-24 50.66 -24 51.32 -24 52 C-23.01 52.33 -22.02 52.66 -21 53 C-21 53.66 -21 54.32 -21 55 C-20.2575 55.226875 -19.515 55.45375 -18.75 55.6875 C-15.35585244 57.30743406 -14.06182839 58.86405358 -12 62 C-11.54589844 65.04614258 -11.54589844 65.04614258 -11.609375 68.39453125 C-11.62226562 69.59658203 -11.63515625 70.79863281 -11.6484375 72.03710938 C-11.68195312 73.28298828 -11.71546875 74.52886719 -11.75 75.8125 C-11.76804688 77.07771484 -11.78609375 78.34292969 -11.8046875 79.64648438 C-11.85176084 82.76509335 -11.91750906 85.88215973 -12 89 C-8.37 89.99 -4.74 90.98 -1 92 C-0.85701536 98.33543655 -0.71461421 104.67088584 -0.57275391 111.00634766 C-0.52441185 113.1616247 -0.47591032 115.31689817 -0.42724609 117.47216797 C-0.35732777 120.56997772 -0.28798286 123.66779986 -0.21875 126.765625 C-0.19687622 127.72929993 -0.17500244 128.69297485 -0.15246582 129.68585205 C-0.13244507 130.58648376 -0.11242432 131.48711548 -0.09179688 132.41503906 C-0.07403198 133.20557678 -0.05626709 133.9961145 -0.03796387 134.81060791 C-0.00219407 136.87346732 0 138.93683049 0 141 C-1.98 141.99 -1.98 141.99 -4 143 C-4 142.34 -4 141.68 -4 141 C-5.65 140.34 -7.3 139.68 -9 139 C-9 138.01 -9 137.02 -9 136 C-10.32 136 -11.64 136 -13 136 C-13 135.34 -13 134.68 -13 134 C-13.99 133.67 -14.98 133.34 -16 133 C-16.38285156 132.26910156 -16.76570313 131.53820312 -17.16015625 130.78515625 C-19.8073379 126.77785154 -23.37964109 124.8940208 -27.4375 122.4375 C-36.31862274 116.98891246 -36.31862274 116.98891246 -40 113 C-40.66 112.67 -41.32 112.34 -42 112 C-42 111.01 -42 110.02 -42 109 C-42.66 109 -43.32 109 -44 109 C-44 108.34 -44 107.68 -44 107 C-44.66 107 -45.32 107 -46 107 C-46.33 106.01 -46.66 105.02 -47 104 C-48.175625 102.8553125 -48.175625 102.8553125 -49.375 101.6875 C-53.75769533 97.20045478 -55.33648117 93.28811969 -55.3732605 86.9861908 C-55.36247467 86.23165115 -55.35168884 85.47711151 -55.34057617 84.69970703 C-55.34101425 83.88928452 -55.34145233 83.078862 -55.34190369 82.24388123 C-55.33982395 79.58160797 -55.3165318 76.91997491 -55.29296875 74.2578125 C-55.28736989 72.4055109 -55.28310116 70.55320485 -55.28010559 68.70089722 C-55.26867966 63.83792749 -55.23923188 58.97522876 -55.20599365 54.11236572 C-55.17524418 49.14526027 -55.16158984 44.17811081 -55.14648438 39.2109375 C-55.11436 29.4738396 -55.06319092 19.73694238 -55 10 C-49.25 7 -49.25 7 -47 7 C-46.67 6.34 -46.34 5.68 -46 5 C-43.4504749 4.19759602 -40.97445209 3.53165243 -38.375 2.9375 C-37.61678955 2.76049561 -36.8585791 2.58349121 -36.07739258 2.40112305 C-29.7311051 0.99956596 -23.57353738 0.42170141 -17.07421875 0.17578125 C-2.04989154 -0.68329718 -2.04989154 -0.68329718 0 0 Z " fill="#0E77B7" transform="translate(61,4)"/>
<path d="M0 0 C1.97777134 1.97777134 1.17763813 5.8677472 1.19287109 8.57397461 C1.20513733 9.76441879 1.20513733 9.76441879 1.21765137 10.97891235 C1.2425712 13.62004842 1.25904563 16.26113017 1.2734375 18.90234375 C1.27876118 19.80464785 1.28408485 20.70695194 1.28956985 21.63659859 C1.31634079 26.42024004 1.33569563 31.20385514 1.35009766 35.98754883 C1.36667842 40.91365336 1.41138895 45.83908009 1.4624691 50.76492977 C1.49626191 54.56298012 1.50768873 58.36087279 1.51332474 62.15905952 C1.52001317 63.97342621 1.53517205 65.7877834 1.55921555 67.6020031 C1.78559125 85.73033186 1.78559125 85.73033186 -4 94 C-4.57363281 94.89074219 -5.14726563 95.78148438 -5.73828125 96.69921875 C-9.74694249 101.76226731 -14.03301615 105.89299556 -19 110 C-20.63603225 111.39786229 -22.26596327 112.80266744 -23.89599609 114.20751953 C-26.31501514 116.290289 -28.74243522 118.36314689 -31.16992188 120.43603516 C-32.37794783 121.46840098 -33.58500023 122.50190723 -34.79101562 123.53662109 C-38.50303651 126.72115514 -42.24062241 129.87149458 -46 133 C-46.69996094 133.60457031 -47.39992188 134.20914063 -48.12109375 134.83203125 C-50.98814951 137.14994047 -52.54776486 138.01184425 -56.28125 137.9140625 C-60.60079815 136.85232482 -63.3063175 134.93882165 -66.625 132.125 C-67.22691162 131.63322266 -67.82882324 131.14144531 -68.44897461 130.63476562 C-70.31240213 129.10484998 -72.15762304 127.55516982 -74 126 C-75.11316635 125.07017493 -76.22644356 124.14048255 -77.33984375 123.2109375 C-79.48197601 121.41448728 -81.61197722 119.60486691 -83.734375 117.78515625 C-86.03838069 115.81099753 -88.36339445 113.86527431 -90.703125 111.93359375 C-91.30697021 111.43214844 -91.91081543 110.93070312 -92.53295898 110.4140625 C-93.69803988 109.44734426 -94.86670295 108.48492312 -96.03930664 107.52734375 C-97.39708275 106.39512654 -98.70411647 105.20256295 -100 104 C-100 103.34 -100 102.68 -100 102 C-100.99 101.67 -101.98 101.34 -103 101 C-104.71875 99.03125 -104.71875 99.03125 -106.5 96.5 C-107.0878125 95.6853125 -107.675625 94.870625 -108.28125 94.03125 C-113.59818135 84.65411653 -113.41437665 75.64394406 -113.328125 65.21484375 C-113.325061 63.58777543 -113.32318976 61.96070446 -113.32244873 60.33363342 C-113.31786663 56.93708116 -113.30352217 53.54076875 -113.28125 50.14428711 C-113.25294709 45.80813905 -113.24203321 41.47217892 -113.2375679 37.13594723 C-113.23239325 32.97472233 -113.21787142 28.81354366 -113.203125 24.65234375 C-113.20124428 23.86790327 -113.19936356 23.08346279 -113.19742584 22.27525139 C-113.19048895 20.03622164 -113.17682331 17.79733315 -113.16113281 15.55834961 C-113.15430481 14.28865829 -113.14747681 13.01896698 -113.14044189 11.71080017 C-112.9902626 7.74271528 -112.54596453 3.93107045 -112 0 C-76.62871428 -13.74531828 -35.22442886 -15.92918115 0 0 Z M-102 -2 C-102 -1.34 -102 -0.68 -102 0 C-102.94875 0.309375 -103.8975 0.61875 -104.875 0.9375 C-107.86080408 1.87394742 -107.86080408 1.87394742 -110 3 C-110.1394262 13.64897906 -110.24583655 24.29773862 -110.31087303 34.94744682 C-110.34209804 39.89335397 -110.38440816 44.83863361 -110.45263672 49.78417969 C-110.51814606 54.56288893 -110.55377236 59.34099715 -110.56926346 64.120121 C-110.58029344 65.93732277 -110.60183235 67.75449409 -110.63438034 69.57143784 C-111.000434 83.85880753 -111.000434 83.85880753 -104 96 C-103.34 96.33 -102.68 96.66 -102 97 C-101.67 97.99 -101.34 98.98 -101 100 C-100.34 100 -99.68 100 -99 100 C-99 100.66 -99 101.32 -99 102 C-98.34 102 -97.68 102 -97 102 C-97 102.99 -97 103.98 -97 105 C-96.443125 105.226875 -95.88625 105.45375 -95.3125 105.6875 C-93 107 -93 107 -90.9375 109.1875 C-88.43119423 111.83434628 -85.59677771 113.59205239 -82.5 115.5 C-77.1755559 118.79642569 -73.49608213 121.75587681 -70 127 C-69.34 127 -68.68 127 -68 127 C-68 127.66 -68 128.32 -68 129 C-66.68 129 -65.36 129 -64 129 C-64 129.99 -64 130.98 -64 132 C-62.35 132.66 -60.7 133.32 -59 134 C-59 134.66 -59 135.32 -59 136 C-55.95086772 137.01111093 -55.95086772 137.01111093 -53 136 C-53 135.34 -53 134.68 -53 134 C-52.1028125 133.814375 -52.1028125 133.814375 -51.1875 133.625 C-48.73768652 133.04524015 -48.73768652 133.04524015 -46 131 C-46 130.34 -46 129.68 -46 129 C-45.17822266 128.63841797 -45.17822266 128.63841797 -44.33984375 128.26953125 C-41.45210492 126.70272804 -39.09615943 124.77838399 -36.5625 122.6875 C-35.63566406 121.92824219 -34.70882812 121.16898438 -33.75390625 120.38671875 C-30.9487708 118.01402675 -30.9487708 118.01402675 -28.30859375 115.30078125 C-26.00237734 113.0023693 -23.77570417 111.6654225 -21 110 C-17.1640959 106.55555305 -17.1640959 106.55555305 -15 102 C-14.34 101.67 -13.68 101.34 -13 101 C-9.47144973 97.82430476 -7.68339838 95.37683579 -6 91 C-4.99504486 90.18435577 -4.99504486 90.18435577 -3.9697876 89.35223389 C-1.20446511 86.05000715 -1.46827614 83.03821215 -1.54589844 78.92675781 C-1.54531433 78.11662735 -1.54473022 77.30649689 -1.54412842 76.47181702 C-1.54691148 73.79848129 -1.5780131 71.12626553 -1.609375 68.453125 C-1.61683662 66.59796762 -1.62252993 64.74280236 -1.62652588 62.88763428 C-1.64178845 58.00809923 -1.68107564 53.12904147 -1.7253418 48.24969482 C-1.76628106 43.26939348 -1.78453402 38.28901491 -1.8046875 33.30859375 C-1.84756927 23.53885296 -1.91582818 13.76946619 -2 4 C-3.32 3.67 -4.64 3.34 -6 3 C-5.505 4.98 -5.505 4.98 -5 7 C-6.65 6.67 -8.3 6.34 -10 6 C-10 9.10047897 -9.97684299 12.20015118 -9.95239258 15.30053711 C-9.90399033 21.81092906 -9.8694958 28.32127102 -9.84456348 34.83179379 C-9.82896827 38.76597753 -9.80782586 42.69996326 -9.77368164 46.6340332 C-9.74078317 50.45007297 -9.72308539 54.26592343 -9.71536827 58.08209419 C-9.70988329 59.52636258 -9.69917512 60.97062219 -9.68280983 62.41480827 C-9.56308339 73.42453984 -9.97527782 84.54062286 -16.375 93.9375 C-16.98214844 94.83210938 -17.58929688 95.72671875 -18.21484375 96.6484375 C-20.28889887 99.38056262 -22.50555492 101.65673341 -25 104 C-25 104.66 -25 105.32 -25 106 C-25.66 106 -26.32 106 -27 106 C-25.02543187 102.44577736 -22.86095552 99.86095552 -20 97 C-20 96.34 -20 95.68 -20 95 C-19.34 95 -18.68 95 -18 95 C-17.19289985 93.69693373 -16.40529823 92.38179035 -15.625 91.0625 C-14.96371094 89.96615234 -14.96371094 89.96615234 -14.2890625 88.84765625 C-10.31703376 80.07308367 -10.73479768 70.88062732 -10.8046875 61.46484375 C-10.80842463 59.97555228 -10.81126829 58.48625832 -10.81326294 56.9969635 C-10.82084433 53.10569287 -10.84044456 49.21457511 -10.8626709 45.32336426 C-10.88324873 41.34124824 -10.89229001 37.35910716 -10.90234375 33.37695312 C-10.92369651 25.58456625 -10.95776477 17.79230467 -11 10 C-13.86016522 9.84535054 -16.71186492 9.73326157 -19.57421875 9.64453125 C-20.37565308 9.59687622 -21.1770874 9.54922119 -22.00280762 9.50012207 C-27.50876287 9.372403 -30.37079209 10.3452455 -34.38928223 14.14343262 C-36.71964759 16.67167616 -38.85664885 19.30984115 -41 22 C-43.35761603 24.45384525 -45.56603867 26.68332552 -48.3125 28.6875 C-48.869375 29.120625 -49.42625 29.55375 -50 30 C-50 30.66 -50 31.32 -50 32 C-55.12676056 34.74647887 -55.12676056 34.74647887 -58 35 C-60.140625 33.34765625 -60.140625 33.34765625 -62.25 31.0625 C-62.95640625 30.31097656 -63.6628125 29.55945312 -64.390625 28.78515625 C-65.18726562 27.90150391 -65.18726562 27.90150391 -66 27 C-65.21625 27.495 -64.4325 27.99 -63.625 28.5 C-61.21447673 30.16537965 -61.21447673 30.16537965 -59 30 C-59 30.66 -59 31.32 -59 32 C-58.34 32 -57.68 32 -57 32 C-55.7352178 28.05712026 -55.77555605 24.05222186 -55.68359375 19.953125 C-55.66281265 19.18192322 -55.64203156 18.41072144 -55.62062073 17.6161499 C-55.55541428 15.16085428 -55.49637516 12.70545479 -55.4375 10.25 C-55.39428726 8.58202065 -55.3506721 6.91405168 -55.30664062 5.24609375 C-55.19976264 1.16416804 -55.09841434 -2.91786182 -55 -7 C-68.69217468 -11.56405823 -88.26229494 -4.85014628 -102 -2 Z " fill="#2A6591" transform="translate(116,11)"/>
<path d="M0 0 C0.66 0 1.32 0 2 0 C2 0.66 2 1.32 2 2 C2.66 2 3.32 2 4 2 C4 2.66 4 3.32 4 4 C4.76739502 4.08580322 5.53479004 4.17160645 6.32543945 4.26000977 C9 5 9 5 10.57104492 6.65991211 C14.16273695 13.0675481 14.62479625 18.3028134 14.3125 25.5625 C14.28994141 26.57119141 14.26738281 27.57988281 14.24414062 28.61914062 C14.18582448 31.08008179 14.09616757 33.54024717 14 36 C17.63 36.99 21.26 37.98 25 39 C25.14298464 45.33543655 25.28538579 51.67088584 25.42724609 58.00634766 C25.47558815 60.1616247 25.52408968 62.31689817 25.57275391 64.47216797 C25.64267223 67.56997772 25.71201714 70.66779986 25.78125 73.765625 C25.80312378 74.72929993 25.82499756 75.69297485 25.84753418 76.68585205 C25.86755493 77.58648376 25.88757568 78.48711548 25.90820312 79.41503906 C25.92596802 80.20557678 25.94373291 80.9961145 25.96203613 81.81060791 C25.99780593 83.87346732 26 85.93683049 26 88 C24.02 88.99 24.02 88.99 22 90 C22 89.34 22 88.68 22 88 C20.35 87.34 18.7 86.68 17 86 C17 85.01 17 84.02 17 83 C15.68 83 14.36 83 13 83 C13 82.34 13 81.68 13 81 C11.515 80.505 11.515 80.505 10 80 C9.38705078 78.87658203 9.38705078 78.87658203 8.76171875 77.73046875 C6.4036102 74.07566192 3.50570917 72.48693709 -0.1875 70.3125 C-2.50987219 68.92822889 -4.75364672 67.51042777 -7 66 C-7 65.34 -7 64.68 -7 64 C-6.34 64 -5.68 64 -5 64 C-5 63.34 -5 62.68 -5 62 C-4.34 62 -3.68 62 -3 62 C-2.67 61.01 -2.34 60.02 -2 59 C-1.01 58.505 -1.01 58.505 0 58 C0.33 57.01 0.66 56.02 1 55 C0.34 55 -0.32 55 -1 55 C-1.02536831 47.97079235 -1.04287462 40.94159652 -1.05493164 33.91235352 C-1.0599584 31.52139851 -1.06678075 29.13044657 -1.07543945 26.73950195 C-1.08757747 23.30158734 -1.09324492 19.86371339 -1.09765625 16.42578125 C-1.10281754 15.35789871 -1.10797882 14.29001617 -1.11329651 13.18977356 C-1.11337204 12.18911362 -1.11344757 11.18845367 -1.11352539 10.1574707 C-1.115746 9.28032913 -1.11796661 8.40318756 -1.12025452 7.49946594 C-0.99577809 4.91224853 -0.57111904 2.52321004 0 0 Z " fill="#0E78B9" transform="translate(35,57)"/>
<path d="M0 0 C0.80695312 -0.020625 1.61390625 -0.04125 2.4453125 -0.0625 C8.3663336 -0.10158265 8.3663336 -0.10158265 11.421875 1.59375 C13.22972318 3.49109561 14.85782407 5.51070213 16.49609375 7.5546875 C19.35495372 10.77740238 22.70487534 13.48634706 26 16.25 C25.67 16.91 25.34 17.57 25 18.25 C24.35933594 17.66992188 23.71867187 17.08984375 23.05859375 16.4921875 C21.25924937 14.86714623 19.44869048 13.25446255 17.62890625 11.65234375 C15 9.25 15 9.25 13.33984375 7.31640625 C10.40664274 4.05468673 8.62134818 3.28813512 4.12158203 3.01196289 C2.66680094 3.02807205 1.21211475 3.05700506 -0.2421875 3.09765625 C-0.98782959 3.10865356 -1.73347168 3.11965088 -2.50170898 3.13098145 C-4.33467862 3.15959867 -6.16740157 3.20331383 -8 3.25 C-8.0466293 11.25691639 -8.08202293 19.2637747 -8.10362434 27.27079391 C-8.11399926 30.98998611 -8.12804128 34.70908445 -8.15087891 38.42822266 C-8.17283455 42.02682652 -8.18461574 45.62534091 -8.18975449 49.22400665 C-8.1951718 51.24439956 -8.21074705 53.26475719 -8.22659302 55.28509521 C-8.22753603 63.15324988 -7.56585574 70.54140295 -6 78.25 C-5.80302521 79.25939636 -5.60605042 80.26879272 -5.40310669 81.30877686 C-4.94849785 83.62545614 -4.48068649 85.93861392 -4 88.25 C-3.34 88.25 -2.68 88.25 -2 88.25 C-2 88.91 -2 89.57 -2 90.25 C-1.34 90.58 -0.68 90.91 0 91.25 C1.06867018 92.19962143 2.10797742 93.1827603 3.125 94.1875 C3.66382812 94.71214844 4.20265625 95.23679687 4.7578125 95.77734375 C6 97.25 6 97.25 6 99.25 C6.66 99.25 7.32 99.25 8 99.25 C9.07570093 96.0228972 9.1571116 93.6134259 9.20532227 90.21801758 C9.22526749 88.97695755 9.24521271 87.73589752 9.26576233 86.45722961 C9.28274527 85.1029981 9.29962413 83.74876527 9.31640625 82.39453125 C9.33698228 81.00875741 9.35797892 79.62298975 9.37937927 78.23722839 C9.43453301 74.59259047 9.48397174 70.94789654 9.53222656 67.30316162 C9.58249056 63.5829165 9.63815104 59.86275257 9.69335938 56.14257812 C9.80085899 48.84512087 9.90232207 41.54759603 10 34.25 C11.32 34.58 12.64 34.91 14 35.25 C14 35.91 14 36.57 14 37.25 C14.99 37.58 15.98 37.91 17 38.25 C17 38.91 17 39.57 17 40.25 C17.7425 40.476875 18.485 40.70375 19.25 40.9375 C22.6085043 42.54042251 24.02831528 44.10990952 26 47.25 C26.25 50.0625 26.25 50.0625 26 52.25 C22.83694229 49.38818589 20.8950109 46.0400218 19 42.25 C18.01 42.25 17.02 42.25 16 42.25 C16 41.59 16 40.93 16 40.25 C15.34 40.25 14.68 40.25 14 40.25 C14 39.59 14 38.93 14 38.25 C13.34 38.25 12.68 38.25 12 38.25 C11.67 56.4 11.34 74.55 11 93.25 C11.66 93.25 12.32 93.25 13 93.25 C12.4409112 96.49271506 11.5867822 98.18057424 9 100.25 C8.34 100.25 7.68 100.25 7 100.25 C7 100.91 7 101.57 7 102.25 C5.3125 103.0625 5.3125 103.0625 3 103.25 C0.375 100.875 0.375 100.875 -2 98.25 C-2.66 97.92 -3.32 97.59 -4 97.25 C-4 96.26 -4 95.27 -4 94.25 C-4.66 94.25 -5.32 94.25 -6 94.25 C-6 93.59 -6 92.93 -6 92.25 C-6.66 92.25 -7.32 92.25 -8 92.25 C-8.33 91.26 -8.66 90.27 -9 89.25 C-10.175625 88.1053125 -10.175625 88.1053125 -11.375 86.9375 C-15.93264881 82.27133574 -17.37891881 78.16097228 -17.34057617 71.69384766 C-17.34034958 70.41297272 -17.34012299 69.13209778 -17.33988953 67.81240845 C-17.32457312 66.42962284 -17.30892519 65.04684087 -17.29296875 63.6640625 C-17.28736754 62.23774666 -17.28309992 60.81142501 -17.28010559 59.38510132 C-17.268698 55.64658433 -17.23926675 51.90842174 -17.20599365 48.17004395 C-17.17520408 44.34908847 -17.16158135 40.52807525 -17.14648438 36.70703125 C-17.11439249 29.2211933 -17.06324646 21.73564647 -17 14.25 C-16.34 13.92 -15.68 13.59 -15 13.25 C-15.03480469 12.20199219 -15.03480469 12.20199219 -15.0703125 11.1328125 C-15.08835937 10.22273438 -15.10640625 9.31265625 -15.125 8.375 C-15.14820313 7.47007813 -15.17140625 6.56515625 -15.1953125 5.6328125 C-15 3.25 -15 3.25 -13 1.25 C-8.7473218 -0.1474996 -4.43060301 0.02831056 0 0 Z " fill="#1176B6" transform="translate(23,18.75)"/>
<path d="M0 0 C2.31 0 4.62 0 7 0 C17 23.61702128 17 23.61702128 17 27 C17.66 27 18.32 27 19 27 C19.10570312 26.1646875 19.21140625 25.329375 19.3203125 24.46875 C20.07804383 20.60170735 21.37458842 17.12294503 22.875 13.5 C23.13152344 12.86191406 23.38804687 12.22382812 23.65234375 11.56640625 C25.26076722 7.61404908 27.04542886 3.7921021 29 0 C31.31 0 33.62 0 36 0 C36 11.88 36 23.76 36 36 C34.35 36 32.7 36 31 36 C30.505 23.625 30.505 23.625 30 11 C26.7 19.25 23.4 27.5 20 36 C18.35 35.67 16.7 35.34 15 35 C13.60620117 32.77514648 13.60620117 32.77514648 12.54296875 29.87109375 C11.95805664 28.31938477 11.95805664 28.31938477 11.36132812 26.73632812 C10.97396484 25.64771484 10.58660156 24.55910156 10.1875 23.4375 C9.78080078 22.34501953 9.37410156 21.25253906 8.95507812 20.12695312 C7.95201904 17.42459395 6.97365813 14.71309095 6 12 C5.67 19.92 5.34 27.84 5 36 C3.35 36 1.7 36 0 36 C0 24.12 0 12.24 0 0 Z " fill="#161216" transform="translate(139,48)"/>
<path d="M0 0 C8.07442213 1.61488443 13.62389284 6.75359906 18.56103516 13.26513672 C23.12689491 21.9429041 21.54371469 33.52284654 21 43 C25.95 43.66 30.9 44.32 36 45 C35.88398437 43.01097656 35.76796875 41.02195313 35.6484375 38.97265625 C35.57882867 37.01664804 35.50960298 35.06060742 35.45068359 33.10424805 C35.37642952 31.10106469 35.24926499 29.10006666 35.12109375 27.09960938 C34.87920695 17.49670324 34.87920695 17.49670324 38.12988281 13.15576172 C40.65128575 10.87094286 43.18555774 8.90720801 46 7 C46.72622559 6.42773682 47.45245117 5.85547363 48.20068359 5.26586914 C50 4 50 4 52 4 C52 3.34 52 2.68 52 2 C53.65 1.34 55.3 0.68 57 0 C57 22.11 57 44.22 57 67 C56.34 67 55.68 67 55 67 C54.67 46.54 54.34 26.08 54 5 C53.34 5 52.68 5 52 5 C52 5.66 52 6.32 52 7 C46.58823529 11 46.58823529 11 44 11 C43.896875 11.639375 43.79375 12.27875 43.6875 12.9375 C43.460625 13.618125 43.23375 14.29875 43 15 C42.01 15.33 41.02 15.66 40 16 C40.00523682 16.83249268 40.01047363 17.66498535 40.01586914 18.52270508 C40.03292225 21.61449935 40.04545565 24.70626964 40.05493164 27.7980957 C40.06242729 29.79314768 40.07513345 31.78817786 40.08789062 33.78320312 C40.09111328 35.03681641 40.09433594 36.29042969 40.09765625 37.58203125 C40.10289307 38.73936768 40.10812988 39.8967041 40.11352539 41.08911133 C40 44 40 44 39 47 C24.8372093 47.41860465 24.8372093 47.41860465 18 44 C17.67 34.43 17.34 24.86 17 15 C16.01 14.67 15.02 14.34 14 14 C14 13.34 14 12.68 14 12 C13.236875 11.731875 12.47375 11.46375 11.6875 11.1875 C9.11011382 10.04865495 7.73045136 9.18583329 6 7 C6 6.34 6 5.68 6 5 C4.68 4.67 3.36 4.34 2 4 C2.00444122 4.77007889 2.00888245 5.54015778 2.01345825 6.33357239 C2.05351759 13.58768956 2.0839755 20.84175316 2.10362434 28.09595203 C2.11406556 31.8254906 2.12823083 35.55493783 2.15087891 39.28442383 C2.17259539 42.88298631 2.18456608 46.4814609 2.18975449 50.08008385 C2.1934524 51.45362418 2.20067345 52.82715966 2.21146011 54.20066261 C2.22595829 56.12306662 2.22681678 58.04555891 2.22705078 59.96801758 C2.231492 61.06277908 2.23593323 62.15754059 2.24050903 63.28547668 C2 66 2 66 0 69 C-0.66 69 -1.32 69 -2 69 C-3.2028523 67.56325975 -4.40031731 66.12135022 -5.55859375 64.6484375 C-7.0224649 62.97430844 -8.53112899 61.7598416 -10.3125 60.4375 C-13 58 -13 58 -13.375 55.1875 C-13.189375 54.1046875 -13.189375 54.1046875 -13 53 C-11.33333333 54.66666667 -9.66666667 56.33333333 -8 58 C-7.0925 58.86625 -6.185 59.7325 -5.25 60.625 C-3 63 -3 63 -2 66 C-1.34 66 -0.68 66 0 66 C0 44.22 0 22.44 0 0 Z " fill="#1F597C" transform="translate(31,49)"/>
<path d="M0 0 C15.96605235 -0.53952868 30.07704904 1.75791025 45.4375 6.0625 C46.3562793 6.3198291 47.27505859 6.5771582 48.22167969 6.84228516 C49.50220215 7.21619385 49.50220215 7.21619385 50.80859375 7.59765625 C51.56970459 7.81945557 52.33081543 8.04125488 53.11499023 8.26977539 C55 9 55 9 57 11 C57.21416193 13.59678647 57.3041028 16.08828904 57.30639648 18.6875 C57.31472 19.48127548 57.32304352 20.27505096 57.33161926 21.09288025 C57.35579599 23.72863627 57.36450411 26.36414468 57.37109375 29 C57.38005994 30.83406651 57.38918178 32.66813227 57.39845276 34.50219727 C57.41497006 38.35581234 57.42264685 42.20934032 57.42553711 46.06298828 C57.43089922 50.98126056 57.46847683 55.89870298 57.51428127 60.81674194 C57.54416457 64.61052357 57.55126323 68.40410901 57.55226326 72.19799805 C57.55644945 74.00955981 57.56881895 75.82112304 57.58978081 77.63256836 C57.78228976 95.7210929 57.78228976 95.7210929 52 104 C51.42636719 104.89074219 50.85273437 105.78148438 50.26171875 106.69921875 C46.26190301 111.7510952 41.9507607 115.89472026 37 120 C34.88348757 121.90000852 32.77146993 123.80474339 30.6640625 125.71484375 C29 127 29 127 27 127 C28.38877354 123.64379729 29.91677965 121.92701272 33 120 C33.66 120 34.32 120 35 120 C35.226875 119.443125 35.45375 118.88625 35.6875 118.3125 C37.35702054 115.37096381 39.58675821 113.3513638 42 111 C42.33 110.34 42.66 109.68 43 109 C43.804375 108.401875 44.60875 107.80375 45.4375 107.1875 C48.20570046 104.82440205 48.79862004 103.34670131 50 100 C50.75619377 99.42834358 50.75619377 99.42834358 51.52766418 98.84513855 C53.86705408 95.91340353 53.43911595 92.63623685 53.43237305 89.0402832 C53.4425647 88.23029877 53.45275635 87.42031433 53.46325684 86.58578491 C53.49346125 83.90738068 53.50266402 81.22933363 53.51171875 78.55078125 C53.52855994 76.69417627 53.54670942 74.83758274 53.56611633 72.98100281 C53.61368337 68.09349136 53.64344931 63.20602629 53.66955566 58.31835938 C53.69932742 53.33128701 53.74586933 48.34437457 53.79101562 43.35742188 C53.87712497 33.57169812 53.94443627 23.78594152 54 14 C51.69 13.67 49.38 13.34 47 13 C47.33 12.01 47.66 11.02 48 10 C47.39671875 9.87882813 46.7934375 9.75765625 46.171875 9.6328125 C45.37265625 9.46523437 44.5734375 9.29765625 43.75 9.125 C42.96109375 8.96257813 42.1721875 8.80015625 41.359375 8.6328125 C39 8 39 8 37.15234375 6.9921875 C33.06981517 5.11022333 28.44650175 5.07312894 24.01953125 4.5625 C23.02308594 4.376875 22.02664062 4.19125 21 4 C20.67 3.34 20.34 2.68 20 2 C13.73 2 7.46 2 1 2 C0.67 1.34 0.34 0.68 0 0 Z " fill="#294C66" transform="translate(60,1)"/>
<path d="M0 0 C2.81244684 0.82071402 4.69474851 2.08317559 6.3828125 4.50390625 C8.48242089 10.02547256 8.0418552 16.32128653 6.6015625 21.96875 C5.35617401 24.71321723 3.85514288 26.34764061 1.1015625 27.5703125 C-3.98653606 28.94409911 -5.61908966 28.71486414 -10.8046875 26.640625 C-11.1346875 30.930625 -11.4646875 35.220625 -11.8046875 39.640625 C-13.4546875 39.640625 -15.1046875 39.640625 -16.8046875 39.640625 C-16.8046875 26.770625 -16.8046875 13.900625 -16.8046875 0.640625 C-13.8346875 1.135625 -13.8346875 1.135625 -10.8046875 1.640625 C-6.68749404 -0.19946146 -4.5558719 -0.69165052 0 0 Z M-10.5 6.359375 C-12.0220721 9.02072262 -12.1775264 10.59583128 -12.1171875 13.640625 C-12.11332031 14.48625 -12.10945313 15.331875 -12.10546875 16.203125 C-11.78586253 18.79318059 -11.19377673 20.44164276 -9.8046875 22.640625 C-7.00598723 24.03997513 -4.89969958 23.89327905 -1.8046875 23.640625 C0.23198865 22.09556034 1.05604328 20.91916344 2.1953125 18.640625 C2.68078966 14.07236448 3.02361116 10.03216676 0.6328125 6.015625 C-3.16263624 3.87460263 -7.22319535 3.0372689 -10.5 6.359375 Z " fill="#0A080B" transform="translate(295.8046875,56.359375)"/>
<path d="M0 0 C-5.75 3 -5.75 3 -8 3 C-8.00833117 13.50175748 -7.98425364 24.00290617 -7.9197216 34.50448322 C-7.89074931 39.38177971 -7.87260298 44.25859854 -7.87988281 49.13598633 C-7.88650934 53.85017807 -7.86380342 58.56342873 -7.82144547 63.27742577 C-7.81037309 65.06855096 -7.80956067 66.85977228 -7.81957626 68.6509037 C-7.86945812 78.89075141 -7.81749254 87.64365452 -1 96 C-0.01 96.66 0.98 97.32 2 98 C2 98.99 2 99.98 2 101 C2.66 101 3.32 101 4 101 C4 101.66 4 102.32 4 103 C4.66 103 5.32 103 6 103 C6 103.99 6 104.98 6 106 C6.721875 106.226875 7.44375 106.45375 8.1875 106.6875 C11 108 11 108 13.1875 110.25 C16.39750487 113.38867143 19.76498637 115.3439132 23.625 117.58984375 C27.99355123 120.18367105 30.91427314 122.3472247 33 127 C33.66 127.33 34.32 127.66 35 128 C35 128.66 35 129.32 35 130 C36.32 130 37.64 130 39 130 C39 130.99 39 131.98 39 133 C40.65 133.66 42.3 134.32 44 135 C44 135.66 44 136.32 44 137 C45.98 137 47.96 137 50 137 C50 136.34 50 135.68 50 135 C54.38461538 132 54.38461538 132 57 132 C57 131.34 57 130.68 57 130 C58.79296875 128.4140625 58.79296875 128.4140625 61.1875 126.625 C62.00734375 126.00496094 62.8271875 125.38492188 63.671875 124.74609375 C64.44015625 124.16988281 65.2084375 123.59367187 66 123 C68.46230974 121.06158595 70.78692578 119.21307422 73 117 C73 120 73 120 70.76171875 122.41796875 C69.7467386 123.35186512 68.72124535 124.27441858 67.6875 125.1875 C67.14714111 125.66928711 66.60678223 126.15107422 66.05004883 126.64746094 C62.50145304 129.76935631 58.90094524 132.82566187 55.1875 135.75 C54.35605469 136.40484375 53.52460937 137.0596875 52.66796875 137.734375 C48.93988766 139.5028937 46.94759318 139.10824705 43 138 C40.58315252 136.44426208 38.54423178 134.96423329 36.375 133.125 C35.77308838 132.63322266 35.17117676 132.14144531 34.55102539 131.63476562 C32.68759787 130.10484998 30.84237696 128.55516982 29 127 C27.88683365 126.07017493 26.77355644 125.14048255 25.66015625 124.2109375 C23.51802399 122.41448728 21.38802278 120.60486691 19.265625 118.78515625 C16.96161931 116.81099753 14.63660555 114.86527431 12.296875 112.93359375 C11.69302979 112.43214844 11.08918457 111.93070312 10.46704102 111.4140625 C9.30196012 110.44734426 8.13329705 109.48492312 6.96069336 108.52734375 C5.60291725 107.39512654 4.29588353 106.20256295 3 105 C3 104.34 3 103.68 3 103 C2.01 102.67 1.02 102.34 0 102 C-1.71875 100.03125 -1.71875 100.03125 -3.5 97.5 C-4.0878125 96.6853125 -4.675625 95.870625 -5.28125 95.03125 C-10.59818135 85.65411653 -10.41437665 76.64394406 -10.328125 66.21484375 C-10.325061 64.58777543 -10.32318976 62.96070446 -10.32244873 61.33363342 C-10.31786663 57.93708116 -10.30352217 54.54076875 -10.28125 51.14428711 C-10.25294709 46.80813905 -10.24203321 42.47217892 -10.2375679 38.13594723 C-10.23239325 33.97472233 -10.21787142 29.81354366 -10.203125 25.65234375 C-10.20124428 24.86790327 -10.19936356 24.08346279 -10.19742584 23.27525139 C-10.19048895 21.03622164 -10.17682331 18.79733315 -10.16113281 16.55834961 C-10.15430481 15.28865829 -10.14747681 14.01896698 -10.14044189 12.71080017 C-9.9902626 8.74271528 -9.54596453 4.93107045 -9 1 C-5.57367167 -0.61798838 -3.61944899 -1.34053666 0 0 Z " fill="#1B5B82" transform="translate(13,10)"/>
<path d="M0 0 C1.98567708 0.26041667 3.97135417 0.52083333 5.95703125 0.78125 C8.15471706 1.053233 8.15471706 1.053233 11 1 C13.125 1.75 13.125 1.75 15 3 C15.75 5.125 15.75 5.125 16 7 C16.66 7 17.32 7 18 7 C18 5.35 18 3.7 18 2 C19.32 1.67 20.64 1.34 22 1 C23.4606285 3.64738916 24 4.89448334 24 8 C24.66 8 25.32 8 26 8 C26.33 6.02 26.66 4.04 27 2 C28.32 2 29.64 2 31 2 C30.5758071 3.94045688 30.13514005 5.87731761 29.6875 7.8125 C29.44386719 8.89144531 29.20023437 9.97039062 28.94921875 11.08203125 C28.01798408 13.9447156 27.31239465 15.15397066 25 17 C22.9754262 15.06745228 21.57894208 13.36841312 20 11 C19.34 12.65 18.68 14.3 18 16 C16.68 16 15.36 16 14 16 C13.01 13.36 12.02 10.72 11 8 C10.01 9.485 10.01 9.485 9 11 C7.0546875 11.29296875 7.0546875 11.29296875 4.875 11.1875 C3.59625 11.125625 2.3175 11.06375 1 11 C1 11.66 1 12.32 1 13 C5.455 12.505 5.455 12.505 10 12 C8.875 14.5 8.875 14.5 7 17 C3.1077356 17.57969895 0.28830866 17.19220577 -3 15 C-4.20272819 12.59454362 -4.10071472 11.05003047 -4.0625 8.375 C-4.05347656 7.55773437 -4.04445312 6.74046875 -4.03515625 5.8984375 C-4.02355469 5.27195312 -4.01195312 4.64546875 -4 4 C-2.68 3.34 -1.36 2.68 0 2 C0 1.34 0 0.68 0 0 Z M2 4 C1.67 4.99 1.34 5.98 1 7 C1.66 7 2.32 7 3 7 C2.67 6.01 2.34 5.02 2 4 Z " fill="#274A5D" transform="translate(251,108)"/>
<path d="M0 0 C3.10096206 2.11129331 4.66090892 3.60569543 5.55859375 7.296875 C5.8507176 9.56173648 6.06603366 11.71712213 6 14 C5 15 5 15 1.18359375 15.09765625 C-0.39846682 15.09098089 -1.98051159 15.07901875 -3.5625 15.0625 C-4.36880859 15.05798828 -5.17511719 15.05347656 -6.00585938 15.04882812 C-8.00393756 15.03700518 -10.00197783 15.01906914 -12 15 C-11.34 17.31 -10.68 19.62 -10 22 C-5.05 22 -0.1 22 5 22 C4 26 4 26 3 27 C-7.77373232 28.07891454 -7.77373232 28.07891454 -12.16015625 25.953125 C-14.25320574 24.20463157 -15.77852074 22.44295852 -17 20 C-17.99673736 7.19575856 -17.99673736 7.19575856 -14 2 C-9.38655372 -1.3259729 -5.30386644 -1.74612887 0 0 Z M-11 5.25 C-12.42241324 7.27074558 -12.42241324 7.27074558 -11 11 C-5.06 10.505 -5.06 10.505 1 10 C-0.45288986 5.4158037 -0.45288986 5.4158037 -2 4 C-6.72573325 3.56151653 -6.72573325 3.56151653 -11 5.25 Z " fill="#0C090C" transform="translate(199,57)"/>
<path d="M0 0 C3 2 3 2 4 5 C4.08178114 6.70016844 4.10749501 8.40336297 4.09765625 10.10546875 C4.09443359 11.08837891 4.09121094 12.07128906 4.08789062 13.08398438 C4.07951172 14.10814453 4.07113281 15.13230469 4.0625 16.1875 C4.05798828 17.22326172 4.05347656 18.25902344 4.04882812 19.32617188 C4.0370401 21.88417266 4.02058515 24.44205733 4 27 C2.68 27 1.36 27 0 27 C-0.33 26.34 -0.66 25.68 -1 25 C-1.99 25.53625 -2.98 26.0725 -4 26.625 C-8.59302706 28.59878556 -11.40516607 27.79120645 -16 26 C-17.5625 24.3125 -17.5625 24.3125 -18 22 C-17.82596471 18.69332941 -17.62937947 16.07364734 -15.9375 13.1875 C-11.49410587 10.4641294 -6.14963032 9.67814811 -1 10 C-1.33 8.02 -1.66 6.04 -2 4 C-7.94 4.495 -7.94 4.495 -14 5 C-14.33 4.01 -14.66 3.02 -15 2 C-9.3832389 -0.9253964 -6.2142409 -1.34641886 0 0 Z M-13 17 C-12.62095792 20.29075996 -12.62095792 20.29075996 -11 23 C-6.33947596 23.42392157 -6.33947596 23.42392157 -2.0625 21.875 C-0.55515137 19.214973 -0.80013747 16.99793795 -1 14 C-5.87664009 13.65166856 -8.77050005 14.58314288 -13 17 Z " fill="#0E0B0E" transform="translate(244,57)"/>
<path d="M0 0 C5.02339267 5.13756069 5.54221682 9.06163137 5.46875 16.1328125 C4.80676321 20.18196501 3.12892216 22.87107784 0.25 25.75 C-4.1960092 28.22000511 -7.81465644 28.30135853 -12.6875 27.0625 C-16.97637325 24.39206948 -18.52027932 21.76505292 -20 17 C-20.66602407 11.57666117 -19.76021681 7.71908034 -17 3 C-11.88687322 -1.39005835 -6.3745097 -2.09572922 0 0 Z M-14 7 C-15.53784153 11.6135246 -15.74741859 15.43721569 -13.625 19.875 C-12.17239958 22.09664825 -12.17239958 22.09664825 -10 23 C-5.94857881 23.25860135 -4.45662331 23.30441554 -1 21 C-0.01216906 18.03650719 0.13410525 16.0287337 0.125 12.9375 C0.12757813 12.05964844 0.13015625 11.18179688 0.1328125 10.27734375 C0.14833424 7.96801734 0.14833424 7.96801734 -1 6 C-1.66 6 -2.32 6 -3 6 C-3 5.34 -3 4.68 -3 4 C-9.15596492 3.61704657 -9.15596492 3.61704657 -14 7 Z " fill="#0B080B" transform="translate(340,57)"/>
<path d="M0 0 C0.78052734 -0.01224609 1.56105469 -0.02449219 2.36523438 -0.03710938 C4.39070035 -0.04235217 6.41572552 0.06515672 8.4375 0.1875 C11.17481383 2.92481383 10.69655772 4.45031663 10.7121582 8.28271484 C10.72645622 10.20644424 10.72645622 10.20644424 10.74104309 12.16903687 C10.74078142 13.57883735 10.7398432 14.98863785 10.73828125 16.3984375 C10.74217023 17.84656904 10.74650531 19.29469944 10.75126648 20.74282837 C10.758742 23.7877368 10.75843119 26.8325294 10.75317383 29.87744141 C10.74742618 33.74833407 10.76418803 37.61874087 10.7875185 41.48955345 C10.80238876 44.48734233 10.80310886 47.48501843 10.80000877 50.48283768 C10.80051697 51.90754775 10.80565883 53.33226501 10.81582069 54.75693893 C10.88372944 65.6251771 10.46642344 76.74297957 4.125 86 C3.5165625 86.88945313 2.908125 87.77890625 2.28125 88.6953125 C-0.19672927 92.04478447 -2.68138302 95.17237758 -5.5625 98.1875 C-6.2225 98.1875 -6.8825 98.1875 -7.5625 98.1875 C-6.75 95.75 -6.75 95.75 -5.5625 93.1875 C-4.5725 92.8575 -3.5825 92.5275 -2.5625 92.1875 C-1.34380071 89.68302484 -1.34380071 89.68302484 -0.5625 87.1875 C0.0975 87.1875 0.7575 87.1875 1.4375 87.1875 C2.65193443 84.19812295 3.83712903 81.19728368 5 78.1875 C5.24878906 77.548125 5.49757812 76.90875 5.75390625 76.25 C7.27637624 71.65649056 7.57923994 67.29265568 7.64282227 62.46948242 C7.65272186 61.81526306 7.66262146 61.1610437 7.67282104 60.48699951 C7.70423914 58.33902522 7.72911492 56.19102887 7.75390625 54.04296875 C7.77449282 52.54795275 7.79548973 51.05294235 7.81687927 49.55793762 C7.87192415 45.63384552 7.92141053 41.70970242 7.96972656 37.78552246 C8.02007044 33.77689099 8.07568907 29.76833306 8.13085938 25.75976562 C8.23822569 17.90240603 8.33971793 10.04498469 8.4375 2.1875 C5.57566599 2.20034774 2.72361002 2.25295942 -0.13671875 2.328125 C-0.93815308 2.3276416 -1.7395874 2.3271582 -2.56530762 2.32666016 C-8.02183213 2.51025976 -10.97651544 3.63070569 -14.95178223 7.40014648 C-17.27467913 9.9093294 -19.41631091 12.52419764 -21.5625 15.1875 C-23.20372577 16.87922502 -24.86917185 18.5479283 -26.5625 20.1875 C-27.32691406 20.93773438 -28.09132813 21.68796875 -28.87890625 22.4609375 C-29.62011719 23.15445313 -30.36132812 23.84796875 -31.125 24.5625 C-31.86878906 25.27148438 -32.61257812 25.98046875 -33.37890625 26.7109375 C-35.5625 28.1875 -35.5625 28.1875 -37.57421875 28.16796875 C-40.17579905 26.88506766 -41.81521166 25.22215276 -43.8125 23.125 C-44.51890625 22.39152344 -45.2253125 21.65804687 -45.953125 20.90234375 C-46.48421875 20.33644531 -47.0153125 19.77054688 -47.5625 19.1875 C-43.94712395 19.1875 -42.45084003 20.07979241 -39.5625 22.1875 C-39.5625 23.1775 -39.5625 24.1675 -39.5625 25.1875 C-37.9125 25.1875 -36.2625 25.1875 -34.5625 25.1875 C-34.2325 24.1975 -33.9025 23.2075 -33.5625 22.1875 C-31.9228279 20.82110658 -30.25139872 19.4925581 -28.5625 18.1875 C-26.11195006 15.79671957 -23.72756608 13.36199843 -21.375 10.875 C-19.5625 9.1875 -19.5625 9.1875 -17.5625 9.1875 C-17.315 8.61 -17.0675 8.0325 -16.8125 7.4375 C-12.7811349 0.18104282 -7.67212236 0.00636691 0 0 Z " fill="#254969" transform="translate(96.5625,18.8125)"/>
<path d="M0 0 C0 0.66 0 1.32 0 2 C0.66 2.33 1.32 2.66 2 3 C1.9278125 4.00417969 1.855625 5.00835937 1.78125 6.04296875 C0.67388432 21.59248714 0.67388432 21.59248714 1.5625 37.125 C2 41 2 41 1 44 C0.01 44.33 -0.98 44.66 -2 45 C-2.66 44.34 -3.32 43.68 -4 43 C-3.34 43 -2.68 43 -2 43 C-1.96241577 41.60092407 -1.96241577 41.60092407 -1.92407227 40.17358398 C-1.82847932 36.68650084 -1.72927541 33.19955812 -1.62768555 29.71264648 C-1.58458874 28.20845501 -1.54289793 26.70422252 -1.50268555 25.19995117 C-1.44436543 23.02770674 -1.38085516 20.85566398 -1.31640625 18.68359375 C-1.27974854 17.37962646 -1.24309082 16.07565918 -1.20532227 14.73217773 C-1.00453775 11.08248344 -0.57334248 7.60532442 0 4 C-6.4260217 3.87926055 -12.63511908 4.11093727 -19 5 C-20.46566406 5.20109375 -20.46566406 5.20109375 -21.9609375 5.40625 C-38.24401911 7.44474393 -38.24401911 7.44474393 -53 14 C-53.66 14 -54.32 14 -55 14 C-54.9830307 14.98527679 -54.9660614 15.97055359 -54.94857788 16.98568726 C-54.7902331 26.25608677 -54.64249345 35.52660223 -54.50522423 44.79733849 C-54.43430388 49.5638918 -54.35960495 54.3303243 -54.27636719 59.09667969 C-54.19622514 63.69363769 -54.12588241 68.29064939 -54.06242752 72.88786697 C-54.036438 74.64465516 -54.00687502 76.40139412 -53.97373581 78.15806198 C-53.92803767 80.61234042 -53.89487412 83.06648422 -53.86474609 85.52099609 C-53.8482048 86.25251389 -53.83166351 86.98403168 -53.81462097 87.73771667 C-53.7997252 89.49283599 -53.89047877 91.24823781 -54 93 C-54.99 93.99 -54.99 93.99 -56 95 C-56 67.94 -56 40.88 -56 13 C-53.69 11.68 -51.38 10.36 -49 9 C-48.34 8.34 -47.68 7.68 -47 7 C-45.08325195 6.34570312 -45.08325195 6.34570312 -42.73828125 5.78125 C-41.87380371 5.57201904 -41.00932617 5.36278809 -40.11865234 5.1472168 C-39.19262207 4.93363525 -38.2665918 4.72005371 -37.3125 4.5 C-36.36584473 4.27932861 -35.41918945 4.05865723 -34.44384766 3.83129883 C-23.01064935 1.23372416 -11.76248028 -0.44017598 0 0 Z " fill="#1B6B9E" transform="translate(61,0)"/>
<path d="M0 0 C0.33 1.65 0.66 3.3 1 5 C-3.29 4.67 -7.58 4.34 -12 4 C-12 5.65 -12 7.3 -12 9 C-11.40832031 9.17015625 -10.81664062 9.3403125 -10.20703125 9.515625 C-1.20689655 12.27586207 -1.20689655 12.27586207 2 16 C2.62803756 19.90778928 2.62921905 22.00373651 0.5 25.375 C-3.45825103 27.94786317 -7.50422166 28.4747149 -12.07421875 27.60546875 C-13.73635536 27.13683388 -15.37214071 26.5765335 -17 26 C-17 24.35 -17 22.7 -17 21 C-16.43796875 21.16371094 -15.8759375 21.32742187 -15.296875 21.49609375 C-12.86940944 22.02864997 -10.73110319 22.09898681 -8.25 22.0625 C-7.05117188 22.04896484 -7.05117188 22.04896484 -5.828125 22.03515625 C-5.22484375 22.02355469 -4.6215625 22.01195313 -4 22 C-3.67 20.35 -3.34 18.7 -3 17 C-3.59167969 16.82984375 -4.18335938 16.6596875 -4.79296875 16.484375 C-13.79310345 13.72413793 -13.79310345 13.72413793 -17 10 C-17.3125 6.25 -17.3125 6.25 -17 3 C-16.01 2.67 -15.02 2.34 -14 2 C-14 1.34 -14 0.68 -14 0 C-9.20699867 -1.39151652 -4.84864218 -0.68662689 0 0 Z " fill="#0A070A" transform="translate(271,57)"/>
<path d="M0 0 C2.91722548 -0.08103404 5.83219516 -0.14051081 8.75 -0.1875 C9.575 -0.21263672 10.4 -0.23777344 11.25 -0.26367188 C17.38529781 -0.33788919 17.38529781 -0.33788919 20.4375 1.33984375 C22.23083806 3.24526544 23.86026956 5.26375324 25.49609375 7.3046875 C28.35495372 10.52740238 31.70487534 13.23634706 35 16 C34.67 16.66 34.34 17.32 34 18 C33.35933594 17.41992188 32.71867187 16.83984375 32.05859375 16.2421875 C30.25924937 14.61714623 28.44869048 13.00446255 26.62890625 11.40234375 C24 9 24 9 22.33984375 7.06640625 C19.40664274 3.80468673 17.62134818 3.03813512 13.12158203 2.76196289 C11.66680094 2.77807205 10.21211475 2.80700506 8.7578125 2.84765625 C8.01217041 2.85865356 7.26652832 2.86965088 6.49829102 2.88098145 C4.66532138 2.90959867 2.83259843 2.95331383 1 3 C0.9533707 11.00691639 0.91797707 19.0137747 0.89637566 27.02079391 C0.88600074 30.73998611 0.87195872 34.45908445 0.84912109 38.17822266 C0.82716545 41.77682652 0.81538426 45.37534091 0.81024551 48.97400665 C0.8048282 50.99439956 0.78925295 53.01475719 0.77340698 55.03509521 C0.77246425 62.90087053 1.42671774 70.29399786 3 78 C3.18666229 78.9359198 3.37332458 79.8718396 3.56564331 80.83612061 C3.70898102 81.55020081 3.85231873 82.26428101 4 83 C3.34 83 2.68 83 2 83 C1.516941 81.60550891 1.03874483 80.20933293 0.5625 78.8125 C0.29566406 78.03519531 0.02882813 77.25789063 -0.24609375 76.45703125 C-1.71750937 71.66158863 -2.12297425 67.29932835 -2.11352539 62.28198242 C-2.11367142 61.62776306 -2.11381744 60.9735437 -2.1139679 60.29949951 C-2.11327494 58.15145474 -2.10551164 56.00349825 -2.09765625 53.85546875 C-2.09578988 52.36045886 -2.09436701 50.86544835 -2.09336853 49.37043762 C-2.08956064 45.44628189 -2.07974518 41.5221635 -2.06866455 37.59802246 C-2.05841321 33.58944199 -2.05386294 29.58085545 -2.04882812 25.57226562 C-2.0381213 17.71482666 -2.02106572 9.85741798 -2 2 C-1.34 2 -0.68 2 0 2 C0 1.34 0 0.68 0 0 Z " fill="#1D6085" transform="translate(14,19)"/>
<path d="M0 0 C0.99 0 1.98 0 3 0 C3 2.31 3 4.62 3 7 C5.64 6.67 8.28 6.34 11 6 C11.33 6.99 11.66 7.98 12 9 C11.67 9.66 11.34 10.32 11 11 C8.36 11 5.72 11 3 11 C3.33 16.61 3.66 22.22 4 28 C6.31 28.66 8.62 29.32 11 30 C11 31.32 11 32.64 11 34 C6.6733659 35.00619398 3.87528323 35.36822864 0 33 C-2.49329304 28.52067009 -2.23335281 24.15922694 -2.125 19.1875 C-2.11597656 18.39923828 -2.10695313 17.61097656 -2.09765625 16.79882812 C-2.07422504 14.86575334 -2.03835838 12.9328362 -2 11 C-3.32 10.67 -4.64 10.34 -6 10 C-6 9.34 -6 8.68 -6 8 C-4.68 7.67 -3.36 7.34 -2 7 C-1.34 4.69 -0.68 2.38 0 0 Z " fill="#0C090A" transform="translate(366,50)"/>
<path d="M0 0 C0.99 0.33 1.98 0.66 3 1 C3 2.98 3 4.96 3 7 C5.64 7 8.28 7 11 7 C10.67 8.32 10.34 9.64 10 11 C7.69 11 5.38 11 3 11 C3.33 16.94 3.66 22.88 4 29 C6.31 29.33 8.62 29.66 11 30 C10.67 31.32 10.34 32.64 10 34 C6.84979535 35.38609004 5.68081978 34.89180331 2.3125 33.75 C-1 32 -1 32 -2 29 C-2.08021999 27.59175107 -2.10765977 26.18002769 -2.09765625 24.76953125 C-2.09443359 23.96708984 -2.09121094 23.16464844 -2.08789062 22.33789062 C-2.07951172 21.50451172 -2.07113281 20.67113281 -2.0625 19.8125 C-2.05798828 18.96751953 -2.05347656 18.12253906 -2.04882812 17.25195312 C-2.03705403 15.16793845 -2.0191189 13.08396023 -2 11 C-3.32 10.67 -4.64 10.34 -6 10 C-6 9.34 -6 8.68 -6 8 C-4.68 7.67 -3.36 7.34 -2 7 C-1.34 4.69 -0.68 2.38 0 0 Z " fill="#020003" transform="translate(213,50)"/>
<path d="M0 0 C0 22.11 0 44.22 0 67 C-0.66 67 -1.32 67 -2 67 C-2.33 46.54 -2.66 26.08 -3 5 C-3.66 5 -4.32 5 -5 5 C-5 5.66 -5 6.32 -5 7 C-10.41176471 11 -10.41176471 11 -13 11 C-13.0825 11.61875 -13.165 12.2375 -13.25 12.875 C-14 15 -14 15 -18 17 C-18.33 25.91 -18.66 34.82 -19 44 C-19.33 44 -19.66 44 -20 44 C-20.46172438 39.52541372 -20.80340753 35.0491616 -21.125 30.5625 C-21.25648437 29.30244141 -21.38796875 28.04238281 -21.5234375 26.74414062 C-22.10397336 17.47975583 -22.10397336 17.47975583 -18.90136719 13.18701172 C-16.37028705 10.89342368 -13.8224905 8.91887587 -11 7 C-10.27312988 6.42709229 -9.54625977 5.85418457 -8.79736328 5.26391602 C-7 4 -7 4 -5 4 C-5 3.34 -5 2.68 -5 2 C-2 0 -2 0 0 0 Z " fill="#244B6C" transform="translate(88,49)"/>
<path d="M0 0 C2.33302989 0.03762951 4.66713319 0.04665734 7 0 C8.96263236 5.5415502 9.01603857 9.20858017 8 15 C7.01 15 6.02 15 5 15 C4.67 11.37 4.34 7.74 4 4 C3.01 4.66 2.02 5.32 1 6 C1 7.134375 1 8.26875 1 9.4375 C1 13 1 13 -0.5 14.9375 C-0.995 15.288125 -1.49 15.63875 -2 16 C-4.39763185 13.60236815 -4.34280586 12.66726502 -4.625 9.375 C-4.69976562 8.55773437 -4.77453125 7.74046875 -4.8515625 6.8984375 C-4.92503906 5.95871094 -4.92503906 5.95871094 -5 5 C-8.12606964 6.60480784 -8.12606964 6.60480784 -8.51171875 8.9453125 C-8.56972656 9.66460937 -8.62773437 10.38390625 -8.6875 11.125 C-8.8421875 13.043125 -8.8421875 13.043125 -9 15 C-9.99 15 -10.98 15 -12 15 C-13.33257403 4.44191344 -13.33257403 4.44191344 -12 0 C-7.61174511 -0.94034033 -4.38522225 -0.80544899 0 0 Z " fill="#2A5061" transform="translate(236,109)"/>
<path d="M0 0 C13.70880381 -0.46325119 39.70541206 -1.07493613 50.7265625 8.5 C51.14679688 8.995 51.56703125 9.49 52 10 C52.99 10.66 53.98 11.32 55 12 C55.28644682 14.63257753 55.37843744 17.02911842 55.34057617 19.66259766 C55.34123329 20.84809456 55.34123329 20.84809456 55.34190369 22.05754089 C55.33980932 24.6766305 55.31644826 27.29508437 55.29296875 29.9140625 C55.28737509 31.7272405 55.28310391 33.54042303 55.28010559 35.35360718 C55.26863869 40.13114898 55.23915575 44.90841814 55.20599365 49.68585205 C55.17533243 54.55875968 55.16160871 59.43171126 55.14648438 64.3046875 C55.11428773 73.8699116 55.0630692 83.43493315 55 93 C54.34 93 53.68 93 53 93 C53.33 66.93 53.66 40.86 54 14 C51.69 13.67 49.38 13.34 47 13 C47.33 12.01 47.66 11.02 48 10 C47.39671875 9.87882813 46.7934375 9.75765625 46.171875 9.6328125 C45.37265625 9.46523437 44.5734375 9.29765625 43.75 9.125 C42.96109375 8.96257813 42.1721875 8.80015625 41.359375 8.6328125 C39 8 39 8 37.15234375 6.9921875 C33.06981517 5.11022333 28.44650175 5.07312894 24.01953125 4.5625 C23.02308594 4.376875 22.02664062 4.19125 21 4 C20.67 3.34 20.34 2.68 20 2 C13.73 2 7.46 2 1 2 C0.67 1.34 0.34 0.68 0 0 Z " fill="#2C5F88" transform="translate(60,1)"/>
<path d="M0 0 C1.32 0.33 2.64 0.66 4 1 C4 1.66 4 2.32 4 3 C4.99 3.33 5.98 3.66 7 4 C7 4.66 7 5.32 7 6 C7.7425 6.226875 8.485 6.45375 9.25 6.6875 C12.6085043 8.29042251 14.02831528 9.85990952 16 13 C16.25 15.8125 16.25 15.8125 16 18 C12.83694229 15.13818589 10.8950109 11.7900218 9 8 C8.01 8 7.02 8 6 8 C6 7.34 6 6.68 6 6 C5.34 6 4.68 6 4 6 C4 5.34 4 4.68 4 4 C3.34 4 2.68 4 2 4 C1.67 22.15 1.34 40.3 1 59 C1.66 59 2.32 59 3 59 C2.4409112 62.24271506 1.5867822 63.93057424 -1 66 C-1.66 66 -2.32 66 -3 66 C-3 66.66 -3 67.32 -3 68 C-4.6875 68.8125 -4.6875 68.8125 -7 69 C-9.625 66.625 -9.625 66.625 -12 64 C-12.66 63.67 -13.32 63.34 -14 63 C-14 62.01 -14 61.02 -14 60 C-14.66 59.67 -15.32 59.34 -16 59 C-15.67 58.34 -15.34 57.68 -15 57 C-14.34 57 -13.68 57 -13 57 C-12.8453125 57.9590625 -12.8453125 57.9590625 -12.6875 58.9375 C-12.460625 59.618125 -12.23375 60.29875 -12 61 C-11.01 61.33 -10.02 61.66 -9 62 C-9.33 60.68 -9.66 59.36 -10 58 C-7.95880212 59.61594832 -5.95927063 61.2856382 -4 63 C-4 63.66 -4 64.32 -4 65 C-3.34 65 -2.68 65 -2 65 C-0.92429907 61.7728972 -0.8428884 59.3634259 -0.79467773 55.96801758 C-0.77473251 54.72695755 -0.75478729 53.48589752 -0.73423767 52.20722961 C-0.71725473 50.8529981 -0.70037587 49.49876527 -0.68359375 48.14453125 C-0.66301772 46.75875741 -0.64202108 45.37298975 -0.62062073 43.98722839 C-0.56546699 40.34259047 -0.51602826 36.69789654 -0.46777344 33.05316162 C-0.41750944 29.3329165 -0.36184896 25.61275257 -0.30664062 21.89257812 C-0.19914101 14.59512087 -0.09767793 7.29759603 0 0 Z " fill="#1873AA" transform="translate(33,53)"/>
<path d="M0 0 C1.65 0 3.3 0 5 0 C5 12.54 5 25.08 5 38 C3.35 38 1.7 38 0 38 C0 25.46 0 12.92 0 0 Z " fill="#0D0A0C" transform="translate(309,46)"/>
<path d="M0 0 C2.0625 2.0625 2.0625 2.0625 3 4 C0.625 5.0625 0.625 5.0625 -2 6 C-2.66 5.67 -3.32 5.34 -4 5 C-7.5 4.66666667 -7.5 4.66666667 -11 5 C-12.93395001 7.90092502 -13.30131941 8.89674737 -13.625 12.1875 C-13.74875 13.445625 -13.8725 14.70375 -14 16 C-14.99 15.01 -15.98 14.02 -17 13 C-17.33 21.25 -17.66 29.5 -18 38 C-17.01 38 -16.02 38 -15 38 C-15 33.38 -15 28.76 -15 24 C-14.34 24.33 -13.68 24.66 -13 25 C-13.33 29.62 -13.66 34.24 -14 39 C-15.65 39 -17.3 39 -19 39 C-19 26.13 -19 13.26 -19 0 C-16.03 0.495 -16.03 0.495 -13 1 C-8.25316734 -1.14716543 -5.1577107 -1.39687998 0 0 Z " fill="#171418" transform="translate(298,57)"/>
<path d="M0 0 C3.05079478 -0.28781083 5.95706395 -0.41543631 9 0 C11.32942065 2.25883214 11.90139969 3.79332001 12.1640625 7.0078125 C12.18618082 9.00583443 12.09657142 11.00419069 12 13 C12 13.99 12 14.98 12 16 C10.39620659 16.05416188 8.79188594 16.09286638 7.1875 16.125 C6.29417969 16.14820312 5.40085938 16.17140625 4.48046875 16.1953125 C2 16 2 16 -1 14 C-1.375 11.5625 -1.375 11.5625 -1 9 C0.88634082 6.45343989 3.13904359 5.2824977 6 4 C5.01 3.67 4.02 3.34 3 3 C3 3.66 3 4.32 3 5 C2.01 5 1.02 5 0 5 C-0.33 4.01 -0.66 3.02 -1 2 C-0.67 1.34 -0.34 0.68 0 0 Z M5 9 C4.67 10.32 4.34 11.64 4 13 C4.99 12.67 5.98 12.34 7 12 C6.67 11.01 6.34 10.02 6 9 C5.67 9 5.34 9 5 9 Z " fill="#34515D" transform="translate(209,109)"/>
<path d="M0 0 C1.51400391 0.01740234 1.51400391 0.01740234 3.05859375 0.03515625 C4.07050781 0.04417969 5.08242187 0.05320312 6.125 0.0625 C7.29869141 0.07990234 7.29869141 0.07990234 8.49609375 0.09765625 C8.49609375 1.41765625 8.49609375 2.73765625 8.49609375 4.09765625 C5.85609375 4.09765625 3.21609375 4.09765625 0.49609375 4.09765625 C0.82609375 5.41765625 1.15609375 6.73765625 1.49609375 8.09765625 C3.80609375 8.75765625 6.11609375 9.41765625 8.49609375 10.09765625 C7.50609375 11.58265625 7.50609375 11.58265625 6.49609375 13.09765625 C3.87109375 13.28515625 3.87109375 13.28515625 1.49609375 13.09765625 C1.16609375 15.40765625 0.83609375 17.71765625 0.49609375 20.09765625 C-0.49390625 20.09765625 -1.48390625 20.09765625 -2.50390625 20.09765625 C-4.02600215 18.57556035 -3.63350146 17.21555543 -3.63671875 15.09765625 C-3.63800781 14.29328125 -3.63929688 13.48890625 -3.640625 12.66015625 C-3.63675781 11.81453125 -3.63289062 10.96890625 -3.62890625 10.09765625 C-3.63277344 9.25203125 -3.63664063 8.40640625 -3.640625 7.53515625 C-3.63933594 6.73078125 -3.63804687 5.92640625 -3.63671875 5.09765625 C-3.63559082 4.35515625 -3.63446289 3.61265625 -3.63330078 2.84765625 C-3.42332879 0.00788411 -2.84774008 0.11106631 0 0 Z " fill="#38626D" transform="translate(186.50390625,103.90234375)"/>
<path d="M0 0 C0.99 0 1.98 0 3 0 C3.66 2.64 4.32 5.28 5 8 C6.65 7.01 8.3 6.02 10 5 C10.33 5.99 10.66 6.98 11 8 C10.01 8.66 9.02 9.32 8 10 C8.33 12.31 8.66 14.62 9 17 C9.66 17 10.32 17 11 17 C11.33 17.99 11.66 18.98 12 20 C10.01432292 19.67447917 8.02864583 19.34895833 6.04296875 19.0234375 C3.68244176 18.80422152 3.68244176 18.80422152 1 21 C0 20 0 20 -0.11352539 18.05053711 C-0.10567017 16.8015564 -0.10567017 16.8015564 -0.09765625 15.52734375 C-0.09443359 14.62822266 -0.09121094 13.72910156 -0.08789062 12.80273438 C-0.07951172 11.85720703 -0.07113281 10.91167969 -0.0625 9.9375 C-0.05798828 8.98810547 -0.05347656 8.03871094 -0.04882812 7.06054688 C-0.0370011 4.70696935 -0.02052025 2.35351523 0 0 Z " fill="#245063" transform="translate(311,104)"/>
<path d="M0 0 C2.375 0.9375 2.375 0.9375 4 3 C4.70110902 7.70619428 4.66962826 10.99555761 2 15 C-1.34682884 15.80571805 -3.94236088 16.25726357 -7.3125 15.4375 C-9.93933253 13.19982785 -10.42619962 11.37904667 -11 8 C-10.33021141 5.33173649 -9.34822979 3.45570426 -8 1 C-5.19084526 -0.40457737 -3.11189466 -0.24895157 0 0 Z M-6 4 C-5.67 6.97 -5.34 9.94 -5 13 C-3.35 12.67 -1.7 12.34 0 12 C0.68493373 9.14221967 0.68493373 9.14221967 1 6 C0.34 5.01 -0.32 4.02 -1 3 C-3.9254644 2.7763932 -3.9254644 2.7763932 -6 4 Z " fill="#28485A" transform="translate(293,109)"/>
<path d="M0 0 C-5.75 3 -5.75 3 -8 3 C-8 24.78 -8 46.56 -8 69 C-8.33 69 -8.66 69 -9 69 C-9.80482525 61.47531412 -10.14828169 54.05344847 -10.1328125 46.48828125 C-10.13376923 45.43521286 -10.13472595 44.38214447 -10.13571167 43.29716492 C-10.13638714 41.08962951 -10.13457746 38.88209205 -10.13037109 36.67456055 C-10.12499759 33.31098965 -10.13034604 29.94755128 -10.13671875 26.58398438 C-10.13605817 24.42708304 -10.13477743 22.27018179 -10.1328125 20.11328125 C-10.13483673 19.11726395 -10.13686096 18.12124664 -10.13894653 17.095047 C-10.12073775 11.63668755 -9.8033352 6.40037499 -9 1 C-5.57367167 -0.61798838 -3.61944899 -1.34053666 0 0 Z " fill="#165372" transform="translate(13,10)"/>
<path d="M0 0 C1.32 0 2.64 0 4 0 C4.19713345 3.74955875 4.3810316 7.49965304 4.5625 11.25 C4.61857422 12.31347656 4.67464844 13.37695312 4.73242188 14.47265625 C4.78076172 15.49746094 4.82910156 16.52226563 4.87890625 17.578125 C4.9260376 18.52075195 4.97316895 19.46337891 5.02172852 20.43457031 C5.00150258 22.82259456 4.69460602 24.72674392 4 27 C2.68 27 1.36 27 0 27 C-1.14054367 21.54168388 -1.14885912 16.23474458 -1.125 10.6875 C-1.12886719 9.76904297 -1.13273437 8.85058594 -1.13671875 7.90429688 C-1.13542969 7.03224609 -1.13414062 6.16019531 -1.1328125 5.26171875 C-1.13112061 4.07002075 -1.13112061 4.07002075 -1.12939453 2.85424805 C-1 1 -1 1 0 0 Z " fill="#030203" transform="translate(352,57)"/>
<path d="M0 0 C1.65 0 3.3 0 5 0 C5 0.99 5 1.98 5 3 C5.99 3 6.98 3 8 3 C8.66 3 9.32 3 10 3 C10 2.34 10 1.68 10 1 C10.99 0.67 11.98 0.34 13 0 C14.125 4.75 14.125 4.75 13 7 C10.36 7 7.72 7 5 7 C5 7.66 5 8.32 5 9 C9.455 8.505 9.455 8.505 14 8 C12.875 10.5 12.875 10.5 11 13 C7.1077356 13.57969895 4.28830866 13.19220577 1 11 C-0.20272819 8.59454362 -0.10071472 7.05003047 -0.0625 4.375 C-0.05347656 3.55773437 -0.04445312 2.74046875 -0.03515625 1.8984375 C-0.02355469 1.27195312 -0.01195312 0.64546875 0 0 Z " fill="#34586D" transform="translate(247,112)"/>
<path d="M0 0 C3.3 0.99 6.6 1.98 10 3 C10.14298464 9.33543655 10.28538579 15.67088584 10.42724609 22.00634766 C10.47558815 24.1616247 10.52408968 26.31689817 10.57275391 28.47216797 C10.64267223 31.56997772 10.71201714 34.66779986 10.78125 37.765625 C10.80312378 38.72929993 10.82499756 39.69297485 10.84753418 40.68585205 C10.86755493 41.58648376 10.88757568 42.48711548 10.90820312 43.41503906 C10.92596802 44.20557678 10.94373291 44.9961145 10.96203613 45.81060791 C10.99780593 47.87346732 11 49.93683049 11 52 C9.68 52.66 8.36 53.32 7 54 C7 53.34 7 52.68 7 52 C5.35 51.34 3.7 50.68 2 50 C2.99 49.505 2.99 49.505 4 49 C4.2165625 47.824375 4.2165625 47.824375 4.4375 46.625 C5 44 5 44 6.5168457 42.86010742 C8.93436856 39.82815571 8.36533564 36.32347877 8.29296875 32.61328125 C8.28872391 31.79627243 8.28447906 30.97926361 8.28010559 30.13749695 C8.26331691 27.52882893 8.22566519 24.92093438 8.1875 22.3125 C8.17245337 20.54363095 8.15876492 18.77474979 8.14648438 17.00585938 C8.11341286 12.67027504 8.0616299 8.33526864 8 4 C5.69 4 3.38 4 1 4 C0.67 2.68 0.34 1.36 0 0 Z " fill="#1871A9" transform="translate(50,93)"/>
<path d="M0 0 C0.99 0.33 1.98 0.66 3 1 C2.67 1.66 2.34 2.32 2 3 C1.89316678 4.98841651 1.85113761 6.98043309 1.83886719 8.97167969 C1.82925964 10.22768982 1.8196521 11.48369995 1.80975342 12.777771 C1.8049004 14.15913714 1.80062282 15.54050541 1.796875 16.921875 C1.79111773 18.34279378 1.78536007 19.76371257 1.77960205 21.18463135 C1.76908033 24.17403524 1.76324788 27.16341222 1.75976562 30.15283203 C1.75433138 33.94502957 1.73041936 37.73685878 1.70179367 41.52894211 C1.68295365 44.47189278 1.67795013 47.41475938 1.67642975 50.3577652 C1.67344162 51.75292181 1.66554666 53.14807835 1.65224457 54.54317474 C1.56718236 64.16520317 2.61550089 72.69067888 5 82 C5.66 82 6.32 82 7 82 C7.33 82.99 7.66 83.98 8 85 C6.68 85 5.36 85 4 85 C3.01 85.495 3.01 85.495 2 86 C1.67 82.7 1.34 79.4 1 76 C0.67 76 0.34 76 0 76 C-0.79571347 66.50157459 -1.14845065 57.11054867 -1.1328125 47.578125 C-1.13376923 46.27091492 -1.13472595 44.96370483 -1.13571167 43.61688232 C-1.1371682 40.88422429 -1.13509688 38.15159943 -1.13037109 35.41894531 C-1.12460643 31.91526353 -1.12800757 28.41165724 -1.13394356 24.90797806 C-1.13841004 21.54802084 -1.13529339 18.18808436 -1.1328125 14.828125 C-1.13483673 13.56993958 -1.13686096 12.31175415 -1.13894653 11.01544189 C-1.13579437 9.85953552 -1.13264221 8.70362915 -1.12939453 7.51269531 C-1.12859894 6.49346985 -1.12780334 5.47424438 -1.12698364 4.4241333 C-1 2 -1 2 0 0 Z " fill="#1471AB" transform="translate(11,20)"/>
<path d="M0 0 C0.33 0 0.66 0 1 0 C1 21.12 1 42.24 1 64 C1.66 64 2.32 64 3 64 C4 69 5 74 6 79 C5.34 79 4.68 79 4 79 C3.516941 77.60550891 3.03874483 76.20933293 2.5625 74.8125 C2.29566406 74.03519531 2.02882813 73.25789063 1.75390625 72.45703125 C0.30191624 67.724898 -0.12313782 63.41597809 -0.11352539 58.46557617 C-0.11344986 57.16460495 -0.11337433 55.86363373 -0.11329651 54.52323914 C-0.10819062 53.11314861 -0.10297464 51.70305849 -0.09765625 50.29296875 C-0.09578979 48.84279937 -0.09436696 47.39262935 -0.09336853 45.94245911 C-0.0895613 42.13667034 -0.07974642 38.33092009 -0.06866455 34.52514648 C-0.05841177 30.63721233 -0.05386264 26.74927192 -0.04882812 22.86132812 C-0.03812246 15.24086791 -0.0210677 7.62043936 0 0 Z " fill="#05598A" transform="translate(12,23)"/>
<path d="M0 0 C0.99 0 1.98 0 3 0 C3.90976287 6.14089934 4.11018339 12.17795355 4.125 18.375 C4.12951172 19.17212402 4.13402344 19.96924805 4.13867188 20.79052734 C4.13019548 24.11115404 4.05709904 26.82870287 3 30 C1.04196493 30.05389087 -0.91648909 30.09274217 -2.875 30.125 C-4.51082031 30.15980469 -4.51082031 30.15980469 -6.1796875 30.1953125 C-9 30 -9 30 -11 28 C-7.37 28 -3.74 28 0 28 C0 18.76 0 9.52 0 0 Z " fill="#315C79" transform="translate(67,66)"/>
<path d="M0 0 C0 8.25 0 16.5 0 25 C-1.32 25 -2.64 25 -4 25 C-4.0867982 21.20847666 -4.14032207 17.41720704 -4.1875 13.625 C-4.21263672 12.54476562 -4.23777344 11.46453125 -4.26367188 10.3515625 C-4.27333984 9.3203125 -4.28300781 8.2890625 -4.29296875 7.2265625 C-4.31653442 5.79691162 -4.31653442 5.79691162 -4.34057617 4.33837891 C-4.22818604 3.56671387 -4.1157959 2.79504883 -4 2 C-1 0 -1 0 0 0 Z " fill="#060306" transform="translate(174,59)"/>
<path d="M0 0 C4.5 5.625 4.5 5.625 4.171875 11.39453125 C4.11386719 12.59658203 4.05585938 13.79863281 3.99609375 15.03710938 C3.91488281 16.28298828 3.83367187 17.52886719 3.75 18.8125 C3.68425781 20.07771484 3.61851562 21.34292969 3.55078125 22.64648438 C3.38598407 25.7658595 3.20174202 28.88283209 3 32 C2.01 32 1.02 32 0 32 C0 21.44 0 10.88 0 0 Z " fill="#050003" transform="translate(140,51)"/>
<path d="M0 0 C2.31 0 4.62 0 7 0 C7 11.88 7 23.76 7 36 C6.67 36 6.34 36 6 36 C5.67 28.08 5.34 20.16 5 12 C4.01 12.495 4.01 12.495 3 13 C3 10.36 3 7.72 3 5 C1.68 5 0.36 5 -1 5 C-0.67 3.35 -0.34 1.7 0 0 Z " fill="#191419" transform="translate(168,48)"/>
<path d="M0 0 C15.22480692 -0.51448033 29.50658892 0.97894112 44 6 C44 6.66 44 7.32 44 8 C39.45966229 8.25224098 39.45966229 8.25224098 37.27734375 7.0546875 C33.13712784 5.13726332 28.51385587 5.0808979 24.01953125 4.5625 C23.02308594 4.376875 22.02664062 4.19125 21 4 C20.67 3.34 20.34 2.68 20 2 C13.73 2 7.46 2 1 2 C0.67 1.34 0.34 0.68 0 0 Z " fill="#2C4E6A" transform="translate(60,1)"/>
<path d="M0 0 C0.99 0 1.98 0 3 0 C3.22245393 1.60226955 3.42746669 3.20696767 3.625 4.8125 C3.74101562 5.70582031 3.85703125 6.59914063 3.9765625 7.51953125 C4 10 4 10 2 13 C2.33 13 2.66 13 3 13 C3 17.95 3 22.9 3 28 C2.01 28 1.02 28 0 28 C0 18.76 0 9.52 0 0 Z " fill="#040105" transform="translate(280,67)"/>
<path d="M0 0 C1.9453125 -0.29296875 1.9453125 -0.29296875 4.125 -0.1875 C5.40375 -0.125625 6.6825 -0.06375 8 0 C8.33 0.99 8.66 1.98 9 3 C7.80310547 3.32097656 7.80310547 3.32097656 6.58203125 3.6484375 C3.75510016 4.75581595 3.75510016 4.75581595 3.07421875 7.6015625 C2.88279297 9.09816406 2.88279297 9.09816406 2.6875 10.625 C2.47673828 12.12933594 2.47673828 12.12933594 2.26171875 13.6640625 C2.17535156 14.43492188 2.08898437 15.20578125 2 16 C1.01 15.67 0.02 15.34 -1 15 C-3 4.5 -3 4.5 0 0 Z " fill="#2A4657" transform="translate(301,109)"/>
<path d="M0 0 C1.32 0.33 2.64 0.66 4 1 C2.02 1.99 2.02 1.99 0 3 C0 3.66 0 4.32 0 5 C-5.41176471 9 -5.41176471 9 -8 9 C-8.0825 9.61875 -8.165 10.2375 -8.25 10.875 C-9 13 -9 13 -13 15 C-13.33 23.91 -13.66 32.82 -14 42 C-14.33 42 -14.66 42 -15 42 C-15.46172438 37.52541372 -15.80340753 33.0491616 -16.125 28.5625 C-16.25648437 27.30244141 -16.38796875 26.04238281 -16.5234375 24.74414062 C-17.10397336 15.47975583 -17.10397336 15.47975583 -13.90136719 11.18701172 C-11.37028705 8.89342368 -8.8224905 6.91887587 -6 5 C-5.27312988 4.42709229 -4.54625977 3.85418457 -3.79736328 3.26391602 C-2 2 -2 2 0 2 C0 1.34 0 0.68 0 0 Z " fill="#23445B" transform="translate(83,51)"/>
<path d="M0 0 C2.64 0 5.28 0 8 0 C8 0.33 8 0.66 8 1 C5.69 1 3.38 1 1 1 C1.33 6.94 1.66 12.88 2 19 C4.31 19.33 6.62 19.66 9 20 C8.67 21.32 8.34 22.64 8 24 C5.83032311 24.95465783 4.43671207 25.14401212 2.17578125 24.3984375 C0.4315257 23.64129615 -1.28627131 22.82390802 -3 22 C-2.67 20.35 -2.34 18.7 -2 17 C-1.34 17 -0.68 17 0 17 C0 11.39 0 5.78 0 0 Z " fill="#191619" transform="translate(215,60)"/>
<path d="M0 0 C0.99 0.33 1.98 0.66 3 1 C3.1953125 7.0546875 3.1953125 7.0546875 3 9 C2.34 9.66 1.68 10.32 1 11 C-0.585869 14.171738 -0.37866445 17.63513822 -0.5625 21.125 C-0.60568359 21.87910156 -0.64886719 22.63320312 -0.69335938 23.41015625 C-0.7994832 25.27321888 -0.90025001 27.13658524 -1 29 C-1.33 29 -1.66 29 -2 29 C-2 23.06 -2 17.12 -2 11 C-3.32 10.67 -4.64 10.34 -6 10 C-6 9.34 -6 8.68 -6 8 C-4.68 7.67 -3.36 7.34 -2 7 C-1.34 4.69 -0.68 2.38 0 0 Z " fill="#110D10" transform="translate(213,50)"/>
<path d="M0 0 C0.33 0 0.66 0 1 0 C0.88191597 5.23290697 0.75767964 10.46561751 0.62768555 15.69824219 C0.5843167 17.47912603 0.54264306 19.26005198 0.50268555 21.04101562 C0.4450301 23.59778548 0.3813223 26.15434298 0.31640625 28.7109375 C0.29133751 29.90944839 0.29133751 29.90944839 0.26576233 31.13217163 C0.11387171 36.77225659 0.11387171 36.77225659 -1 39 C-1.66 39 -2.32 39 -3 39 C-3 38.34 -3 37.68 -3 37 C-3.7425 36.7525 -4.485 36.505 -5.25 36.25 C-8.20124062 34.90852699 -9.84814974 33.39094474 -12 31 C-11.01 30.67 -10.02 30.34 -9 30 C-8.67 30.99 -8.34 31.98 -8 33 C-4.99152582 34.22520264 -4.99152582 34.22520264 -2 35 C-2.01160156 34.28199219 -2.02320313 33.56398437 -2.03515625 32.82421875 C-2.09617725 25.82423881 -1.91359238 18.86553585 -1.5625 11.875 C-1.52326416 11.04572998 -1.48402832 10.21645996 -1.44360352 9.36206055 C-1.40162842 8.58000244 -1.35965332 7.79794434 -1.31640625 6.9921875 C-1.26141968 5.94587158 -1.26141968 5.94587158 -1.20532227 4.87841797 C-1 3 -1 3 0 0 Z " fill="#1973AC" transform="translate(60,4)"/>
<path d="M0 0 C3.5 -0.3125 3.5 -0.3125 7 0 C7.66 0.66 8.32 1.32 9 2 C8.195625 2.45375 7.39125 2.9075 6.5625 3.375 C3.91143428 4.74725665 3.91143428 4.74725665 3 7 C2.77532169 8.53668865 2.59203195 10.07968054 2.4375 11.625 C2.35371094 12.44226563 2.26992187 13.25953125 2.18359375 14.1015625 C2.12300781 14.72804688 2.06242188 15.35453125 2 16 C1.01 15.67 0.02 15.34 -1 15 C-1.22211116 13.06403108 -1.42722992 11.12610672 -1.625 9.1875 C-1.74101562 8.10855469 -1.85703125 7.02960938 -1.9765625 5.91796875 C-2 3 -2 3 0 0 Z " fill="#315A65" transform="translate(199,109)"/>
<path d="M0 0 C0.66 0.33 1.32 0.66 2 1 C1.46246904 7.18160604 -0.54582388 12.326858 -3 18 C-4.32 18 -5.64 18 -7 18 C-5.125 12.125 -5.125 12.125 -4 11 C-3.87625 9.72125 -3.7525 8.4425 -3.625 7.125 C-3.31975846 4.33279049 -3.20083594 3.25707001 -1.4375 1 C-0.963125 0.67 -0.48875 0.34 0 0 Z " fill="#0C0909" transform="translate(162,66)"/>
<path d="M0 0 C1.98567708 0.26041667 3.97135417 0.52083333 5.95703125 0.78125 C8.15471706 1.053233 8.15471706 1.053233 11 1 C11.66 1 12.32 1 13 1 C13 2.65 13 4.3 13 6 C12.34 6 11.68 6 11 6 C10.67 6.66 10.34 7.32 10 8 C9.34 7.01 8.68 6.02 8 5 C7.34 5 6.68 5 6 5 C6 6.32 6 7.64 6 9 C4.35 9 2.7 9 1 9 C1.66 8.67 2.32 8.34 3 8 C0.9927092 4.9890638 0.16115776 4.36983503 -3 3 C-2.01 2.67 -1.02 2.34 0 2 C0 1.34 0 0.68 0 0 Z " fill="#2D4953" transform="translate(251,108)"/>
<path d="M0 0 C3 0 3 0 4.421875 1.390625 C4.86015625 2.00421875 5.2984375 2.6178125 5.75 3.25 C6.19859375 3.85328125 6.6471875 4.4565625 7.109375 5.078125 C8 7 8 7 7.828125 9.171875 C7.55484375 9.77515625 7.2815625 10.3784375 7 11 C6.01 11.33 5.02 11.66 4 12 C3.67 13.32 3.34 14.64 3 16 C2.67 12.7 2.34 9.4 2 6 C1.34 6 0.68 6 0 6 C0 5.34 0 4.68 0 4 C-2.31 4 -4.62 4 -7 4 C-7 3.67 -7 3.34 -7 3 C-5.5459375 2.814375 -5.5459375 2.814375 -4.0625 2.625 C-2.5465625 2.315625 -2.5465625 2.315625 -1 2 C-0.67 1.34 -0.34 0.68 0 0 Z " fill="#0D0B0D" transform="translate(337,57)"/>
<path d="M0 0 C3.3 0 6.6 0 10 0 C11.96263236 5.5415502 12.01603857 9.20858017 11 15 C10.34 15 9.68 15 9 15 C8.22596442 10.93631321 7.9015298 7.13574827 8 3 C5.03 3 2.06 3 -1 3 C-0.67 2.01 -0.34 1.02 0 0 Z " fill="#050204" transform="translate(236,68)"/>
<path d="M0 0 C0 0.66 0 1.32 0 2 C-0.74121094 2.10957031 -1.48242188 2.21914063 -2.24609375 2.33203125 C-7.33356887 3.09795468 -12.4104791 3.88246506 -17.47265625 4.80078125 C-18.22426025 4.93701904 -18.97586426 5.07325684 -19.75024414 5.21362305 C-21.2254021 5.48336164 -22.69988355 5.7568325 -24.17358398 6.03442383 C-27.82871777 6.7027052 -31.28222269 7.15974824 -35 7 C-31.12765019 4.7155185 -26.9616558 3.91734577 -22.625 2.9375 C-21.51125 2.67743164 -21.51125 2.67743164 -20.375 2.41210938 C-13.48041583 0.82245702 -7.08109052 -0.12208777 0 0 Z " fill="#226082" transform="translate(49,1)"/>
<path d="M0 0 C0.99 0 1.98 0 3 0 C3 2.31 3 4.62 3 7 C2.01 7.33 1.02 7.66 0 8 C-0.33 14.6 -0.66 21.2 -1 28 C-1.33 28 -1.66 28 -2 28 C-2 22.39 -2 16.78 -2 11 C-3.32 10.67 -4.64 10.34 -6 10 C-6 9.34 -6 8.68 -6 8 C-4.68 7.67 -3.36 7.34 -2 7 C-1.34 4.69 -0.68 2.38 0 0 Z " fill="#161415" transform="translate(366,50)"/>
<path d="M0 0 C0.99 0.33 1.98 0.66 3 1 C3.125 6.75 3.125 6.75 2 9 C2.66 9.33 3.32 9.66 4 10 C4 12.97 4 15.94 4 19 C3.01 19 2.02 19 1 19 C0 18 0 18 -0.11352539 16.23413086 C-0.10828857 15.48526611 -0.10305176 14.73640137 -0.09765625 13.96484375 C-0.09443359 13.15595703 -0.09121094 12.34707031 -0.08789062 11.51367188 C-0.07951172 10.66353516 -0.07113281 9.81339844 -0.0625 8.9375 C-0.05798828 8.08349609 -0.05347656 7.22949219 -0.04882812 6.34960938 C-0.03700373 4.23304337 -0.01906769 2.11651315 0 0 Z " fill="#2D5367" transform="translate(183,105)"/>
<path d="M0 0 C0.66 0.66 1.32 1.32 2 2 C-15.23982265 18.44498186 -15.23982265 18.44498186 -22 22 C-24.30859375 21.69921875 -24.30859375 21.69921875 -26 21 C-24.68 20.67 -23.36 20.34 -22 20 C-22 19.34 -22 18.68 -22 18 C-17.61538462 15 -17.61538462 15 -15 15 C-15 14.34 -15 13.68 -15 13 C-13.20703125 11.4140625 -13.20703125 11.4140625 -10.8125 9.625 C-9.58466797 8.69494141 -9.58466797 8.69494141 -8.33203125 7.74609375 C-7.17767578 6.88177734 -7.17767578 6.88177734 -6 6 C-2.44272307 3.44568364 -2.44272307 3.44568364 0 0 Z " fill="#26465B" transform="translate(85,127)"/>
<path d="M0 0 C0.99 0.495 0.99 0.495 2 1 C2.103125 1.639375 2.20625 2.27875 2.3125 2.9375 C2.823744 5.21693046 2.823744 5.21693046 5.1875 6.3125 C8.4644831 7.11354031 10.73981048 6.75818361 14 6 C12.875 8.5 12.875 8.5 11 11 C7.1077356 11.57969895 4.28830866 11.19220577 1 9 C-0.4783226 6.04335481 -0.06032783 3.25770263 0 0 Z " fill="#2F575F" transform="translate(247,114)"/>
<path d="M0 0 C0 3.3 0 6.6 0 10 C-0.99 9.34 -1.98 8.68 -3 8 C-3 7.34 -3 6.68 -3 6 C-4.91466367 6.12177688 -4.91466367 6.12177688 -7 7 C-7.474375 7.845625 -7.94875 8.69125 -8.4375 9.5625 C-8.953125 10.366875 -9.46875 11.17125 -10 12 C-12.6875 12.3125 -12.6875 12.3125 -15 12 C-14.01 11.34 -13.02 10.68 -12 10 C-11.67 9.01 -11.34 8.02 -11 7 C-5.62857143 3 -5.62857143 3 -3 3 C-3 2.34 -3 1.68 -3 1 C-1 0 -1 0 0 0 Z " fill="#336487" transform="translate(86,53)"/>
<path d="M0 0 C3.63 0 7.26 0 11 0 C11 0.99 11 1.98 11 3 C2.61090382 4.2527717 -5.49737031 5.36011137 -14 5 C-10.93753253 3.21590198 -8.77920727 2.77119979 -5.25 2.875 C-4.45078125 2.89304688 -3.6515625 2.91109375 -2.828125 2.9296875 C-2.22484375 2.95289063 -1.6215625 2.97609375 -1 3 C-0.67 2.01 -0.34 1.02 0 0 Z " fill="#10619B" transform="translate(50,0)"/>
<path d="M0 0 C0.66 0.33 1.32 0.66 2 1 C2 1.66 2 2.32 2 3 C1.01 3.66 0.02 4.32 -1 5 C-0.67 7.31 -0.34 9.62 0 12 C0.66 12 1.32 12 2 12 C2.33 12.99 2.66 13.98 3 15 C0.69 14.67 -1.62 14.34 -4 14 C-4 13.01 -4 12.02 -4 11 C-4.0825 9.865625 -4.165 8.73125 -4.25 7.5625 C-4 4 -4 4 -2 1.5625 C-1.34 1.046875 -0.68 0.53125 0 0 Z " fill="#2E424D" transform="translate(320,109)"/>
<path d="M0 0 C0.66 0.33 1.32 0.66 2 1 C2.51953125 3.8359375 2.51953125 3.8359375 2.8125 7.375 C2.92207031 8.53773437 3.03164063 9.70046875 3.14453125 10.8984375 C3 14 3 14 1.57421875 15.9140625 C0 17 0 17 -1 17 C-1.02684679 14.35409986 -1.04676357 11.70846904 -1.0625 9.0625 C-1.07087891 8.30775391 -1.07925781 7.55300781 -1.08789062 6.77539062 C-1.09652441 4.85005687 -1.05224333 2.92464419 -1 1 C-0.67 0.67 -0.34 0.34 0 0 Z " fill="#020103" transform="translate(366,61)"/>
<path d="M0 0 C1.32 0.33 2.64 0.66 4 1 C5.0024305 6.34629602 4.84888195 10.62374766 4 16 C1.7522025 13.94766315 0.9977758 12.99332739 0 10 C-0.06802967 8.27204648 -0.08495645 6.54164635 -0.0625 4.8125 C-0.05347656 3.91144531 -0.04445313 3.01039062 -0.03515625 2.08203125 C-0.02355469 1.39496094 -0.01195312 0.70789062 0 0 Z " fill="#0B070B" transform="translate(280,57)"/>
<path d="M0 0 C1 3 1 3 -0.22265625 5.453125 C-3.8459476 10.96114327 -7.43765653 16.22545451 -12 21 C-12.66 21 -13.32 21 -14 21 C-13.1875 18.5625 -13.1875 18.5625 -12 16 C-11.01 15.67 -10.02 15.34 -9 15 C-7.78130071 12.49552484 -7.78130071 12.49552484 -7 10 C-6.34 10 -5.68 10 -5 10 C-4.731875 9.278125 -4.46375 8.55625 -4.1875 7.8125 C-3.01017502 5.02409874 -1.60854116 2.55904276 0 0 Z " fill="#1E4159" transform="translate(103,96)"/>
<path d="M0 0 C3.51590594 1.30218739 5.21467435 3.37305835 7.49609375 6.26953125 C10.32853943 9.52868303 13.69809364 12.23065918 17 15 C16.67 15.66 16.34 16.32 16 17 C15.35933594 16.41992188 14.71867187 15.83984375 14.05859375 15.2421875 C9.09459194 10.75905025 4.10193044 6.32554972 -1 2 C-0.67 1.34 -0.34 0.68 0 0 Z " fill="#1B5879" transform="translate(32,20)"/>
<path d="M0 0 C2.42130331 3.63195496 2.21022785 5.38349348 2.125 9.6875 C2.10695312 10.86699219 2.08890625 12.04648438 2.0703125 13.26171875 C2.03550781 14.61716797 2.03550781 14.61716797 2 16 C1.67 16 1.34 16 1 16 C0.67 14.02 0.34 12.04 0 10 C-2.64 9.67 -5.28 9.34 -8 9 C-8 8.67 -8 8.34 -8 8 C-6.35 8 -4.7 8 -3 8 C-2.67 7.01 -2.34 6.02 -2 5 C-1.3400321 3.33066942 -0.67441131 1.6635479 0 0 Z " fill="#131014" transform="translate(246,59)"/>
<path d="M0 0 C4 0 4 0 5.75 1.375 C7 3 7 3 7 5 C8.32 5 9.64 5 11 5 C11 5.99 11 6.98 11 8 C13.475 8.99 13.475 8.99 16 10 C16 10.66 16 11.32 16 12 C16.66 12 17.32 12 18 12 C17.67 12.66 17.34 13.32 17 14 C4.63136176 5.130674 4.63136176 5.130674 0 1 C0 0.67 0 0.34 0 0 Z " fill="#1E5C85" transform="translate(41,135)"/>
<path d="M0 0 C-1.34929464 3.83663072 -3.07751025 6.65172569 -5.625 9.8125 C-6.25664063 10.60269531 -6.88828125 11.39289063 -7.5390625 12.20703125 C-8.02117187 12.79871094 -8.50328125 13.39039062 -9 14 C-9.33 13.34 -9.66 12.68 -10 12 C-10.66 12 -11.32 12 -12 12 C-11 10 -11 10 -8.5625 8.1875 C-5.82281373 5.84874343 -5.16726227 4.322208 -4 1 C-2 0 -2 0 0 0 Z " fill="#305369" transform="translate(114,100)"/>
<path d="M0 0 C2.475 0.495 2.475 0.495 5 1 C5.33 1.99 5.66 2.98 6 4 C6.66 4 7.32 4 8 4 C7.67 5.98 7.34 7.96 7 10 C6.01 10 5.02 10 4 10 C3.67 8.35 3.34 6.7 3 5 C2.01 4.67 1.02 4.34 0 4 C0.99 3.34 1.98 2.68 3 2 C2.01 1.34 1.02 0.68 0 0 Z " fill="#2F546B" transform="translate(212,111)"/>
<path d="M0 0 C0.66 0.33 1.32 0.66 2 1 C2.6328125 3.94140625 2.6328125 3.94140625 3.125 7.5625 C3.29257812 8.76003906 3.46015625 9.95757812 3.6328125 11.19140625 C3.75398438 12.11824219 3.87515625 13.04507813 4 14 C2.68 13.67 1.36 13.34 0 13 C-0.96661363 9.87819599 -0.98988909 7.47916205 -0.5625 4.25 C-0.46066406 3.45078125 -0.35882813 2.6515625 -0.25390625 1.828125 C-0.17011719 1.22484375 -0.08632813 0.6215625 0 0 Z " fill="#30627C" transform="translate(313,107)"/>
<path d="M0 0 C0.598125 0.226875 1.19625 0.45375 1.8125 0.6875 C1.5 2.5625 1.5 2.5625 0.8125 4.6875 C-0.1775 5.3475 -1.1675 6.0075 -2.1875 6.6875 C-1.1975 7.3475 -0.2075 8.0075 0.8125 8.6875 C-0.1775 9.0175 -1.1675 9.3475 -2.1875 9.6875 C-3.1775 9.0275 -4.1675 8.3675 -5.1875 7.6875 C-5.63753816 4.76225195 -5.59209532 3.29439298 -3.9375 0.8125 C-2.1875 -0.3125 -2.1875 -0.3125 0 0 Z " fill="#2E4D55" transform="translate(213.1875,115.3125)"/>
<path d="M0 0 C2.83022097 3.99560608 1.76210446 7.42737323 1 12 C0.01 12 -0.98 12 -2 12 C-2.33 8.7 -2.66 5.4 -3 2 C-2.01 1.34 -1.02 0.68 0 0 Z " fill="#365462" transform="translate(243,112)"/>
<path d="M0 0 C0.66 0.33 1.32 0.66 2 1 C2.25 3.3125 2.25 3.3125 2 6 C0 7.8125 0 7.8125 -2 9 C-3.32 7.35 -4.64 5.7 -6 4 C-4.02 2.68 -2.04 1.36 0 0 Z " fill="#306797" transform="translate(105,102)"/>
<path d="M0 0 C0.9075 0.12375 1.815 0.2475 2.75 0.375 C0.91536528 2.90854319 -0.88248912 5.31629488 -3.25 7.375 C-3.91 7.375 -4.57 7.375 -5.25 7.375 C-5.58 8.365 -5.91 9.355 -6.25 10.375 C-7 8.75 -7 8.75 -7.25 6.375 C-4.43089272 0.51125685 -4.43089272 0.51125685 0 0 Z " fill="#2D6089" transform="translate(70.25,31.625)"/>
<path d="M0 0 C0.88816406 0.01804687 1.77632812 0.03609375 2.69140625 0.0546875 C4.87870848 0.10172626 7.06379816 0.16742991 9.25 0.25 C9.25 0.58 9.25 0.91 9.25 1.25 C8.09242187 1.25257812 6.93484375 1.25515625 5.7421875 1.2578125 C4.20308709 1.29535153 2.66402533 1.33449933 1.125 1.375 C0.36445312 1.37242188 -0.39609375 1.36984375 -1.1796875 1.3671875 C-5.64079646 1.52101884 -8.01727275 2.03461608 -11.1796875 5.3046875 C-12.45199219 6.76261719 -12.45199219 6.76261719 -13.75 8.25 C-14.41 8.25 -15.07 8.25 -15.75 8.25 C-12.29558834 0.18970612 -8.12062094 -0.31187023 0 0 Z " fill="#224259" transform="translate(94.75,19.75)"/>
<path d="M0 0 C5.94 0.99 5.94 0.99 12 2 C12 2.33 12 2.66 12 3 C10.35 3 8.7 3 7 3 C7 3.99 7 4.98 7 6 C4.69 5.67 2.38 5.34 0 5 C0 3.35 0 1.7 0 0 Z " fill="#0E0B0E" transform="translate(254,78)"/>
<path d="M0 0 C1.66666667 1.66666667 3.33333333 3.33333333 5 5 C5.886875 5.825 6.77375 6.65 7.6875 7.5 C9.97217828 9.96992246 11.00099201 11.82133822 12 15 C2.87822878 8.55719557 2.87822878 8.55719557 0 4 C0 2.68 0 1.36 0 0 Z " fill="#125475" transform="translate(18,102)"/>
<path d="M0 0 C3.25295114 -0.22179212 5.42797793 -0.28601103 8.375 1.1875 C10 3 10 3 10.25 5.6875 C10.1675 6.450625 10.085 7.21375 10 8 C9.34 7.01 8.68 6.02 8 5 C4.43230448 4.26393501 4.43230448 4.26393501 1 4 C0.67 2.68 0.34 1.36 0 0 Z " fill="#28414E" transform="translate(287,109)"/>
<path d="M0 0 C0.66 0.33 1.32 0.66 2 1 C3.00496852 4.01490557 3.10335303 6.04181692 3.0625 9.1875 C3.05347656 10.08855469 3.04445313 10.98960938 3.03515625 11.91796875 C3.02355469 12.60503906 3.01195312 13.29210937 3 14 C0.89328331 11.89328331 -0.04019053 10.80559691 -1 8 C-0.86929301 5.27083803 -0.45078239 2.70469432 0 0 Z " fill="#1674B1" transform="translate(7,89)"/>
<path d="M0 0 C2.0625 0.4375 2.0625 0.4375 4 1 C3.814375 1.7425 3.62875 2.485 3.4375 3.25 C3.00796892 5.94990963 3.14877026 7.44631077 4 10 C3.34 10 2.68 10 2 10 C2 9.34 2 8.68 2 8 C1.34 8 0.68 8 0 8 C-0.38063221 5.6739143 -0.71269945 3.33944736 -1 1 C-0.67 0.67 -0.34 0.34 0 0 Z " fill="#2D4965" transform="translate(270,109)"/>
<path d="M0 0 C0.639375 0.2475 1.27875 0.495 1.9375 0.75 C2.2675 1.74 2.5975 2.73 2.9375 3.75 C1.9475 3.75 0.9575 3.75 -0.0625 3.75 C-0.3925 5.07 -0.7225 6.39 -1.0625 7.75 C-2.0525 7.42 -3.0425 7.09 -4.0625 6.75 C-4.0625 4.77 -4.0625 2.79 -4.0625 0.75 C-2.0625 -0.25 -2.0625 -0.25 0 0 Z " fill="#0B7ABF" transform="translate(11.0625,14.25)"/>
<path d="M0 0 C0.598125 0.20625 1.19625 0.4125 1.8125 0.625 C1.4825 1.285 1.1525 1.945 0.8125 2.625 C2.7925 2.625 4.7725 2.625 6.8125 2.625 C6.8125 2.955 6.8125 3.285 6.8125 3.625 C3.1825 3.955 -0.4475 4.285 -4.1875 4.625 C-4.5175 3.635 -4.8475 2.645 -5.1875 1.625 C-2.1875 -0.375 -2.1875 -0.375 0 0 Z " fill="#141114" transform="translate(234.1875,57.375)"/>
<path d="M0 0 C1.65 0.33 3.3 0.66 5 1 C4.67 2.65 4.34 4.3 4 6 C2.35 5.67 0.7 5.34 -1 5 C-0.67 3.35 -0.34 1.7 0 0 Z " fill="#110F10" transform="translate(352,47)"/>
<path d="M0 0 C0.99 0.33 1.98 0.66 3 1 C2.67 4.3 2.34 7.6 2 11 C1.01 11 0.02 11 -1 11 C-1.33 9.35 -1.66 7.7 -2 6 C-1.01 5.67 -0.02 5.34 1 5 C0.67 3.35 0.34 1.7 0 0 Z " fill="#385563" transform="translate(225,113)"/>
<path d="M0 0 C0.33 0 0.66 0 1 0 C1.22295635 2.39527434 1.42874063 4.79001341 1.625 7.1875 C1.68945312 7.86103516 1.75390625 8.53457031 1.8203125 9.22851562 C2.14362111 13.37090718 1.89095265 16.28305109 0 20 C-0.66 20 -1.32 20 -2 20 C-1.34 13.4 -0.68 6.8 0 0 Z " fill="#204056" transform="translate(115,80)"/>
<path d="M0 0 C-0.33 0.66 -0.66 1.32 -1 2 C-0.34 2.33 0.32 2.66 1 3 C-0.98 3.66 -2.96 4.32 -5 5 C-5.33 4.01 -5.66 3.02 -6 2 C-6.66 1.67 -7.32 1.34 -8 1 C-4.93251126 -0.86240388 -3.40254489 -1.2151946 0 0 Z " fill="#141013" transform="translate(236,69)"/>
<path d="M0 0 C0.99 0.33 1.98 0.66 3 1 C2.67 4.63 2.34 8.26 2 12 C1.01 11.67 0.02 11.34 -1 11 C-0.67 7.37 -0.34 3.74 0 0 Z " fill="#2A4754" transform="translate(199,113)"/>
<path d="M0 0 C1.9453125 -0.29296875 1.9453125 -0.29296875 4.125 -0.1875 C5.40375 -0.125625 6.6825 -0.06375 8 0 C8.33 0.99 8.66 1.98 9 3 C1.38461538 4.69230769 1.38461538 4.69230769 -2 3 C-1.34 2.01 -0.68 1.02 0 0 Z " fill="#263949" transform="translate(301,109)"/>
<path d="M0 0 C2.9719385 1.12451727 5.33440687 2.22293791 8 4 C8 4.99 8 5.98 8 7 C8.66 7 9.32 7 10 7 C10 7.66 10 8.32 10 9 C10.66 9.33 11.32 9.66 12 10 C8.15114044 9.44520943 6.40739482 7.75581685 3.75 5 C3.04359375 4.278125 2.3371875 3.55625 1.609375 2.8125 C0 1 0 1 0 0 Z " fill="#205976" transform="translate(49,37)"/>
<path d="M0 0 C0.99 0.33 1.98 0.66 3 1 C3.6875 4.3125 3.6875 4.3125 4 8 C3.01 8.99 2.02 9.98 1 11 C0.67 7.37 0.34 3.74 0 0 Z " fill="#2F5565" transform="translate(293,113)"/>
<path d="M0 0 C4.54805635 -0.17835515 7.8794254 0.00214565 12 2 C12 2.66 12 3.32 12 4 C8.3323555 4.20375803 6.18443445 3.80451285 3 2 C2.01 1.67 1.02 1.34 0 1 C0 0.67 0 0.34 0 0 Z " fill="#264B60" transform="translate(92,5)"/>
<path d="M0 0 C0.66 0.66 1.32 1.32 2 2 C4.57061311 2.64767793 4.57061311 2.64767793 7 3 C7 3.33 7 3.66 7 4 C4.36 4.66 1.72 5.32 -1 6 C-1 5.34 -1 4.68 -1 4 C-2.32 3.67 -3.64 3.34 -5 3 C-3.35 2.01 -1.7 1.02 0 0 Z " fill="#171316" transform="translate(189,57)"/>
<path d="M0 0 C2 3 2 3 1.625 6.1875 C1.41875 7.115625 1.2125 8.04375 1 9 C-1.0625 6.6875 -1.0625 6.6875 -3 4 C-2.67 3.01 -2.34 2.02 -2 1 C-1.34 0.67 -0.68 0.34 0 0 Z " fill="#205557" transform="translate(269,114)"/>
<path d="M0 0 C0.99 0.33 1.98 0.66 3 1 C2.67 2.98 2.34 4.96 2 7 C0.68 6.34 -0.64 5.68 -2 5 C-1.125 1.125 -1.125 1.125 0 0 Z " fill="#2A526E" transform="translate(302,111)"/>
<path d="M0 0 C0.33 0 0.66 0 1 0 C3.11161731 9.41002278 3.11161731 9.41002278 4 14 C3.34 14 2.68 14 2 14 C0.09391902 10.78817851 -0.22266247 8.46117397 -0.125 4.75 C-0.09792969 3.41195312 -0.09792969 3.41195312 -0.0703125 2.046875 C-0.04710937 1.37140625 -0.02390625 0.6959375 0 0 Z " fill="#165B78" transform="translate(14,88)"/>
<path d="M0 0 C1.32 1.65 2.64 3.3 4 5 C3.01 5.99 2.02 6.98 1 8 C1 7.34 1 6.68 1 6 C-0.32 6.33 -1.64 6.66 -3 7 C-2.38722388 4.03824877 -1.74627478 2.61941217 0 0 Z " fill="#100E10" transform="translate(284,75)"/>
<path d="M0 0 C0.33 0 0.66 0 1 0 C1 2.64 1 5.28 1 8 C0.01 8.33 -0.98 8.66 -2 9 C-2.125 5.625 -2.125 5.625 -2 2 C-1.34 1.34 -0.68 0.68 0 0 Z " fill="#057CBE" transform="translate(37,60)"/>
<path d="M0 0 C0.33 0.66 0.66 1.32 1 2 C2.65 1.67 4.3 1.34 6 1 C5.67 3.97 5.34 6.94 5 10 C4.67 10 4.34 10 4 10 C3.67 7.69 3.34 5.38 3 3 C2.34 3 1.68 3 1 3 C1 3.66 1 4.32 1 5 C0.34 5 -0.32 5 -1 5 C-0.67 3.35 -0.34 1.7 0 0 Z " fill="#252125" transform="translate(166,51)"/>
<path d="M0 0 C1.32 0.33 2.64 0.66 4 1 C2.88820837 4.33537489 1.52588702 5.63707344 -1 8 C-1.66 7.67 -2.32 7.34 -3 7 C-2.505 6.21625 -2.01 5.4325 -1.5 4.625 C0.16537965 2.21447673 0.16537965 2.21447673 0 0 Z " fill="#2E5E84" transform="translate(83,124)"/>
<path d="M0 0 C1.65 1.65 3.3 3.3 5 5 C4.67 5.99 4.34 6.98 4 8 C3.01 8.33 2.02 8.66 1 9 C-0.4783226 6.04335481 -0.06032783 3.25770263 0 0 Z " fill="#324951" transform="translate(232,116)"/>
<path d="M0 0 C0.99 0 1.98 0 3 0 C2.88637738 1.4800841 2.75877092 2.95910074 2.625 4.4375 C2.52058594 5.67306641 2.52058594 5.67306641 2.4140625 6.93359375 C2.27742188 7.61550781 2.14078125 8.29742187 2 9 C1.01 9.495 1.01 9.495 0 10 C0 6.7 0 3.4 0 0 Z " fill="#263E4E" transform="translate(311,104)"/>
<path d="M0 0 C1.98 0 3.96 0 6 0 C6 0.33 6 0.66 6 1 C4.35 1 2.7 1 1 1 C1.66 3.31 2.32 5.62 3 8 C2.01 8 1.02 8 0 8 C0 5.36 0 2.72 0 0 Z " fill="#201C1F" transform="translate(186,71)"/>
<path d="M0 0 C0.99 0 1.98 0 3 0 C3.66 1.32 4.32 2.64 5 4 C4.01 4 3.02 4 2 4 C1.67 4.66 1.34 5.32 1 6 C0.34 5.34 -0.32 4.68 -1 4 C-1.99 4.495 -1.99 4.495 -3 5 C-2.67 4.01 -2.34 3.02 -2 2 C-1.34 2 -0.68 2 0 2 C0 1.34 0 0.68 0 0 Z " fill="#150F16" transform="translate(257,57)"/>
<path d="M0 0 C0.66 0.66 1.32 1.32 2 2 C-0.64 3.98 -3.28 5.96 -6 8 C-4.52307692 2.33846154 -4.52307692 2.33846154 -1.875 0.625 C-0.946875 0.315625 -0.946875 0.315625 0 0 Z " fill="#326182" transform="translate(77,132)"/>
<path d="M0 0 C0.66 0 1.32 0 2 0 C2.33 1.32 2.66 2.64 3 4 C2.34 4 1.68 4 1 4 C0.34 5.32 -0.32 6.64 -1 8 C-1.66 7.34 -2.32 6.68 -3 6 C-3 5.01 -3 4.02 -3 3 C-2.01 3 -1.02 3 0 3 C0 2.01 0 1.02 0 0 Z " fill="#181516" transform="translate(156,75)"/>
<path d="M0 0 C2.31 0 4.62 0 7 0 C7 0.99 7 1.98 7 3 C4.36 3 1.72 3 -1 3 C-0.67 2.01 -0.34 1.02 0 0 Z " fill="#070609" transform="translate(217,57)"/>
<path d="M0 0 C1.65 0 3.3 0 5 0 C5 1.32 5 2.64 5 4 C3.02 4 1.04 4 -1 4 C-0.67 2.68 -0.34 1.36 0 0 Z " fill="#0D0A0C" transform="translate(236,56)"/>
<path d="M0 0 C0.66 0 1.32 0 2 0 C2.33 2.64 2.66 5.28 3 8 C2.34 8 1.68 8 1 8 C1 7.01 1 6.02 1 5 C0.34 5 -0.32 5 -1 5 C-0.67 3.35 -0.34 1.7 0 0 Z " fill="#2A5867" transform="translate(285,114)"/>
<path d="M0 0 C1.98 0 3.96 0 6 0 C6.33 0.66 6.66 1.32 7 2 C6.34 2.66 5.68 3.32 5 4 C2.375 3.625 2.375 3.625 0 3 C0 2.01 0 1.02 0 0 Z " fill="#385256" transform="translate(188,113)"/>
<path d="M0 0 C0.66 0.33 1.32 0.66 2 1 C1.67 1.66 1.34 2.32 1 3 C1.66 3.66 2.32 4.32 3 5 C1.125 5.625 1.125 5.625 -1 6 C-1.66 5.34 -2.32 4.68 -3 4 C-2.67 3.01 -2.34 2.02 -2 1 C-1.34 0.67 -0.68 0.34 0 0 Z " fill="#2A6086" transform="translate(98,110)"/>
<path d="M0 0 C0.78375 0.04125 1.5675 0.0825 2.375 0.125 C2.375 1.115 2.375 2.105 2.375 3.125 C0 3.75 0 3.75 -2.625 4.125 C-3.285 3.465 -3.945 2.805 -4.625 2.125 C-2.625 0.125 -2.625 0.125 0 0 Z " fill="#090508" transform="translate(373.625,80.875)"/>
<path d="M0 0 C4.455 0.99 4.455 0.99 9 2 C8.67 3.32 8.34 4.64 8 6 C8 5.01 8 4.02 8 3 C5.69 3.66 3.38 4.32 1 5 C0.67 3.35 0.34 1.7 0 0 Z " fill="#171315" transform="translate(368,78)"/>
<path d="M0 0 C0.99 0.33 1.98 0.66 3 1 C3 2.98 3 4.96 3 7 C2.01 6.67 1.02 6.34 0 6 C-0.38218767 4.34385343 -0.71395102 2.67542976 -1 1 C-0.67 0.67 -0.34 0.34 0 0 Z " fill="#181618" transform="translate(213,50)"/>
<path d="M0 0 C3.465 1.98 3.465 1.98 7 4 C7 4.66 7 5.32 7 6 C7.66 6 8.32 6 9 6 C8.67 6.66 8.34 7.32 8 8 C6.66102417 7.04956626 5.32894573 6.08940853 4 5.125 C3.2575 4.59132812 2.515 4.05765625 1.75 3.5078125 C1.1725 3.01023438 0.595 2.51265625 0 2 C0 1.34 0 0.68 0 0 Z " fill="#1E5376" transform="translate(50,141)"/>
<path d="M0 0 C1.37562854 1.28965176 2.70766393 2.62689293 4 4 C4 4.66 4 5.32 4 6 C3.01 6.33 2.02 6.66 1 7 C0.34 6.01 -0.32 5.02 -1 4 C-1.66 3.67 -2.32 3.34 -3 3 C-2.67 2.34 -2.34 1.68 -2 1 C-1.34 1.33 -0.68 1.66 0 2 C0 1.34 0 0.68 0 0 Z " fill="#2A5C83" transform="translate(91,115)"/>
<path d="M0 0 C0.99 0.33 1.98 0.66 3 1 C2.34 3.31 1.68 5.62 1 8 C0.34 7.67 -0.32 7.34 -1 7 C-1.04254356 5.00045254 -1.04080783 2.99958364 -1 1 C-0.67 0.67 -0.34 0.34 0 0 Z " fill="#2F4756" transform="translate(279,109)"/>
<path d="M0 0 C0.66 0.33 1.32 0.66 2 1 C2 2.65 2 4.3 2 6 C0.68 6 -0.64 6 -2 6 C-2 4.68 -2 3.36 -2 2 C-1.34 2 -0.68 2 0 2 C0 1.34 0 0.68 0 0 Z " fill="#0A0509" transform="translate(154,72)"/>
<path d="M0 0 C0.66 0 1.32 0 2 0 C2.6875 1.8125 2.6875 1.8125 3 4 C1.625 5.75 1.625 5.75 0 7 C-0.33 7 -0.66 7 -1 7 C-1.04254356 5.00045254 -1.04080783 2.99958364 -1 1 C-0.67 0.67 -0.34 0.34 0 0 Z " fill="#050205" transform="translate(228,71)"/>
<path d="M0 0 C0.99 0 1.98 0 3 0 C2.67 1.98 2.34 3.96 2 6 C1.34 6 0.68 6 0 6 C0 5.34 0 4.68 0 4 C-2.31 4 -4.62 4 -7 4 C-7 3.67 -7 3.34 -7 3 C-5.5459375 2.814375 -5.5459375 2.814375 -4.0625 2.625 C-2.5465625 2.315625 -2.5465625 2.315625 -1 2 C-0.67 1.34 -0.34 0.68 0 0 Z " fill="#1B161B" transform="translate(337,57)"/>
<path d="M0 0 C-0.33 0.99 -0.66 1.98 -1 3 C-2.65 3 -4.3 3 -6 3 C-6 2.01 -6 1.02 -6 0 C-2.25 -1.125 -2.25 -1.125 0 0 Z " fill="#050104" transform="translate(337,57)"/>
<path d="M0 0 C1.65 0 3.3 0 5 0 C5 0.99 5 1.98 5 3 C1.25 4.125 1.25 4.125 -1 3 C-0.67 2.01 -0.34 1.02 0 0 Z " fill="#080308" transform="translate(218,81)"/>
<path d="M0 0 C2.375 0.25 2.375 0.25 5 1 C6.3125 3.0625 6.3125 3.0625 7 5 C2.25 4.125 2.25 4.125 0 3 C0 2.01 0 1.02 0 0 Z " fill="#31587A" transform="translate(104,7)"/>
<path d="M0 0 C1.5625 1.25 1.5625 1.25 3 3 C2.6875 5.1875 2.6875 5.1875 2 7 C1.01 6.67 0.02 6.34 -1 6 C-0.67 4.02 -0.34 2.04 0 0 Z " fill="#2E5F6B" transform="translate(266,118)"/>
<path d="M0 0 C1.32 0.33 2.64 0.66 4 1 C2.68 2.32 1.36 3.64 0 5 C-0.66 4.34 -1.32 3.68 -2 3 C-1.34 2.01 -0.68 1.02 0 0 Z " fill="#334A48" transform="translate(257,120)"/>
<path d="M0 0 C0.66 0.99 1.32 1.98 2 3 C0.75 4.5 0.75 4.5 -1 6 C-2.32 6 -3.64 6 -5 6 C-5 5.34 -5 4.68 -5 4 C-3.68 4 -2.36 4 -1 4 C-0.67 2.68 -0.34 1.36 0 0 Z " fill="#234149" transform="translate(293,119)"/>
<path d="M0 0 C2.31 0.33 4.62 0.66 7 1 C7.33 2.65 7.66 4.3 8 6 C6.66402348 5.19185349 5.331275 4.37836819 4 3.5625 C3.2575 3.11003906 2.515 2.65757813 1.75 2.19140625 C1.1725 1.79824219 0.595 1.40507812 0 1 C0 0.67 0 0.34 0 0 Z " fill="#1F475E" transform="translate(108,9)"/>
<path d="M0 0 C2 1 2 1 2 1 Z " fill="#3E4851" transform="translate(290,113)"/>
<path d="" fill="#404040" transform="translate(0,0)"/>
<path d="" fill="#008080" transform="translate(0,0)"/>
<path d="" fill="#2A2A55" transform="translate(0,0)"/>
<path d="" fill="#405555" transform="translate(0,0)"/>
<path d="" fill="#2A5555" transform="translate(0,0)"/>
<path d="" fill="#305060" transform="translate(0,0)"/>
<path d="" fill="#008080" transform="translate(0,0)"/>
<path d="" fill="#008080" transform="translate(0,0)"/>
<path d="" fill="#555555" transform="translate(0,0)"/>
<path d="" fill="#354A4A" transform="translate(0,0)"/>
<path d="" fill="#334D66" transform="translate(0,0)"/>
<path d="" fill="#2A4055" transform="translate(0,0)"/>
<path d="" fill="#404040" transform="translate(0,0)"/>
<path d="" fill="#555555" transform="translate(0,0)"/>
<path d="" fill="#555555" transform="translate(0,0)"/>
<path d="" fill="#2E4646" transform="translate(0,0)"/>
</svg>
