<?xml version="1.0" encoding="UTF-8"?>
<svg version="1.1" xmlns="http://www.w3.org/2000/svg" width="151" height="148">
<path d="M0 0 C1.63751249 -0.00322058 3.2750247 -0.00658523 4.91253662 -0.01008606 C8.33508978 -0.01604966 11.7576178 -0.01792885 15.18017578 -0.01733398 C19.53155789 -0.01723258 23.88277605 -0.03087494 28.23411942 -0.04810619 C31.61450925 -0.05931225 34.99486053 -0.06125056 38.37526703 -0.06072426 C39.97777622 -0.06189183 41.58028683 -0.06624345 43.1827774 -0.07405663 C71.91662187 -0.20103454 71.91662187 -0.20103454 82.13671875 8.921875 C89.99422001 17.14484143 92.31606351 27.00039357 92.33300781 38.08837891 C92.33797272 38.8712326 92.34293762 39.6540863 92.34805298 40.46066284 C92.36261969 43.04279472 92.36946878 45.62486508 92.375 48.20703125 C92.38075763 50.01199341 92.38651528 51.81695557 92.39227295 53.62191772 C92.4027685 57.40631392 92.40862007 61.19068897 92.41210938 64.97509766 C92.41757946 69.79991189 92.44158173 74.62444185 92.47008133 79.44916725 C92.48880512 83.17948188 92.49391855 86.9097295 92.49544525 90.64008713 C92.49845229 92.41730675 92.50641412 94.19452574 92.51963043 95.97169876 C92.61227608 109.39158581 92.44110229 122.64698512 82.50390625 132.88671875 C74.13055733 140.42827804 64.70633936 142.48014181 53.70556641 142.44262695 C52.91237503 142.44773788 52.11918365 142.45284882 51.30195618 142.45811462 C48.70903744 142.47188714 46.11638821 142.47106321 43.5234375 142.46875 C41.70177107 142.47264377 39.88010554 142.47697983 38.05844116 142.48173523 C34.25084482 142.48917098 30.44334126 142.48892547 26.63574219 142.48364258 C21.7818728 142.47785219 16.92838552 142.49478149 12.07457924 142.51798725 C8.31509216 142.53279452 4.55569562 142.53358681 0.79618454 142.53047752 C-0.99219138 142.53098725 -2.78057284 142.53615868 -4.56892014 142.54628944 C-18.09832208 142.61353529 -31.03093991 142.33240967 -41.51171875 132.60546875 C-52.20039027 121.09049096 -50.98947591 106.52580586 -50.99609375 91.83203125 C-50.99931346 90.14488701 -51.00267805 88.45774304 -51.00617981 86.77059937 C-51.01214342 83.24549716 -51.01402252 79.72041938 -51.01342773 76.1953125 C-51.01332616 71.70473123 -51.02698577 67.21430823 -51.04419994 62.72376442 C-51.05538131 59.24223121 -51.05734508 55.76073557 -51.05681801 52.27918625 C-51.0579886 50.62478464 -51.0623579 48.97038175 -51.07015038 47.31599808 C-51.13479284 32.17817319 -50.69223391 20.49276398 -40.140625 8.91796875 C-29.25994743 -1.49230359 -14.01180552 0.00651262 0 0 Z M-20.828125 30.16796875 C-20.47338588 32.13445991 -20.47338588 32.13445991 -19.828125 34.16796875 C-17.9280073 35.40971671 -17.9280073 35.40971671 -15.828125 36.16796875 C-13.14371595 37.51017327 -12.58459894 39.33617866 -11.46875 42.02734375 C-10.76910268 44.36518969 -10.62557206 46.4209268 -10.515625 48.85546875 C-10.0741969 55.36653324 -6.97441876 60.56814316 -3.828125 66.16796875 C-0.53643024 63.15815946 0.41877596 60.61125306 1.171875 56.16796875 C-0.28012234 52.11766038 -1.22870791 50.56758014 -4.828125 48.16796875 C-5.03001918 46.55281531 -5.22558647 44.93651793 -5.3828125 43.31640625 C-6.28331646 38.97186958 -8.64930237 33.34679138 -11.828125 30.16796875 C-13.34740538 30.09616911 -14.86979982 30.08404868 -16.390625 30.10546875 C-17.63005859 30.11900391 -17.63005859 30.11900391 -18.89453125 30.1328125 C-19.85166016 30.15021484 -19.85166016 30.15021484 -20.828125 30.16796875 Z M-0.828125 30.16796875 C-0.41189902 32.63752269 -0.41189902 32.63752269 1.171875 35.16796875 C3.2187949 36.10418991 5.21833745 36.72626361 7.39453125 37.296875 C9.171875 38.16796875 9.171875 38.16796875 10.04296875 40.0703125 C10.171875 42.16796875 10.171875 42.16796875 8.171875 45.16796875 C8.34507777 48.97842974 9.28699384 51.51357193 11.296875 54.66796875 C13.5112721 58.80151001 13.32223423 59.74228114 12.171875 64.16796875 C10.71202433 67.34468606 9.17484905 70.43460873 7.5234375 73.51367188 C5.21753087 78.11130948 4.885993 81.01201679 6.171875 86.16796875 C7.62911385 89.50240819 7.62911385 89.50240819 9.171875 92.16796875 C11.6052085 89.96714702 12.94098372 87.92496546 14.30078125 84.94921875 C14.69088379 84.1089917 15.08098633 83.26876465 15.48291016 82.40307617 C15.89589355 81.50049072 16.30887695 80.59790527 16.734375 79.66796875 C20.09094702 72.46938034 23.56048683 65.36473826 27.296875 58.35546875 C30.50832676 52.31513644 33.70199506 46.26908413 36.796875 40.16796875 C37.13992676 39.5030542 37.48297852 38.83813965 37.83642578 38.15307617 C39.28074436 35.2858893 40.171875 33.42554054 40.171875 30.16796875 C36.541875 30.16796875 32.911875 30.16796875 29.171875 30.16796875 C28.60597656 31.29976562 28.04007813 32.4315625 27.45703125 33.59765625 C25.02864583 38.45442708 22.60026042 43.31119792 20.171875 48.16796875 C18.851875 47.83796875 17.531875 47.50796875 16.171875 47.16796875 C16.07003906 46.47316406 15.96820313 45.77835938 15.86328125 45.0625 C15.05470494 41.67744323 13.70511787 38.94509856 12.109375 35.85546875 C11.56152344 34.78683594 11.01367188 33.71820313 10.44921875 32.6171875 C10.02769531 31.80894531 9.60617188 31.00070313 9.171875 30.16796875 C5.871875 30.16796875 2.571875 30.16796875 -0.828125 30.16796875 Z M48.6484375 33.5 C47.79225472 35.03933079 46.9688474 36.59716538 46.171875 38.16796875 C45.74640381 39.00440918 45.32093262 39.84084961 44.88256836 40.70263672 C43.4652846 43.57149965 42.09571421 46.45965472 40.734375 49.35546875 C39.68272429 51.56921599 38.6306215 53.78274851 37.578125 55.99609375 C37.02769531 57.15689453 36.47726563 58.31769531 35.91015625 59.51367188 C33.18124265 65.25944759 30.41402857 70.98680877 27.64743042 76.71450806 C26.75754133 78.55749071 25.86901177 80.40112351 24.98071289 82.24487305 C24.14914673 83.96830933 24.14914673 83.96830933 23.30078125 85.7265625 C22.77436035 86.81984863 22.24793945 87.91313477 21.70556641 89.03955078 C19.87244443 92.7787461 17.94955772 96.46757649 15.98608398 100.13989258 C14.9123099 102.31655259 14.9123099 102.31655259 15.671875 105.41796875 C16.166875 106.32546875 16.661875 107.23296875 17.171875 108.16796875 C17.708125 109.28171875 18.244375 110.39546875 18.796875 111.54296875 C19.250625 112.40921875 19.704375 113.27546875 20.171875 114.16796875 C22.76251962 111.855027 24.10135211 109.5981964 25.5625 106.4609375 C26.01737793 105.49639648 26.47225586 104.53185547 26.94091797 103.53808594 C27.42963379 102.48782227 27.91834961 101.43755859 28.421875 100.35546875 C29.48988514 98.09266189 30.56030818 95.83099272 31.6328125 93.5703125 C31.91412018 92.97691071 32.19542786 92.38350891 32.48526001 91.77212524 C36.19792829 83.96904665 40.09697788 76.25809124 43.99279785 68.54525757 C46.07193445 64.42898091 48.13006951 60.3029459 50.171875 56.16796875 C51.05214355 54.40163086 51.05214355 54.40163086 51.95019531 52.59960938 C52.50030273 51.46201172 53.05041016 50.32441406 53.6171875 49.15234375 C54.10977051 48.14397461 54.60235352 47.13560547 55.10986328 46.09667969 C56.25887817 42.92804002 56.37518072 40.51163293 56.171875 37.16796875 C56.790625 37.06484375 57.409375 36.96171875 58.046875 36.85546875 C60.53713984 36.29271502 60.53713984 36.29271502 62.171875 33.16796875 C62.171875 32.17796875 62.171875 31.18796875 62.171875 30.16796875 C60.44834268 29.95064068 58.7168213 29.79612858 56.984375 29.66796875 C56.02144531 29.57515625 55.05851562 29.48234375 54.06640625 29.38671875 C50.75245891 30.28117147 50.4403573 30.73157066 48.6484375 33.5 Z " fill="#F37422" transform="translate(55.828125,0.83203125)"/>
<path d="M0 0 C1.17046875 0.03609375 2.3409375 0.0721875 3.546875 0.109375 C4.43890625 0.15578125 5.3309375 0.2021875 6.25 0.25 C6.58773437 1.08144531 6.92546875 1.91289062 7.2734375 2.76953125 C7.71945313 3.85621094 8.16546875 4.94289063 8.625 6.0625 C9.06585938 7.14144531 9.50671875 8.22039063 9.9609375 9.33203125 C11.1979119 12.35730112 11.1979119 12.35730112 13.25 15.25 C13.25 16.24 13.25 17.23 13.25 18.25 C13.91 18.25 14.57 18.25 15.25 18.25 C15.35957031 17.55132812 15.46914062 16.85265625 15.58203125 16.1328125 C15.74058594 15.22273438 15.89914063 14.31265625 16.0625 13.375 C16.21332031 12.47007813 16.36414063 11.56515625 16.51953125 10.6328125 C17.25 8.25 17.25 8.25 20.25 6.25 C20.97965366 3.68717258 20.97965366 3.68717258 21.25 1.25 C24.40506142 0.31380187 27.21586502 0.1442877 30.5 0.1875 C31.39203125 0.19652344 32.2840625 0.20554687 33.203125 0.21484375 C33.87859375 0.22644531 34.5540625 0.23804687 35.25 0.25 C35.25 0.91 35.25 1.57 35.25 2.25 C34.54875 2.12496094 33.8475 1.99992187 33.125 1.87109375 C29.55935442 1.64339627 27.53365471 1.75939359 24.25 3.25 C20.89502244 7.78364786 19.0283648 13.31697018 17.15039062 18.59179688 C16.25 20.25 16.25 20.25 13.25 21.25 C10.25 19.25 10.25 19.25 9.72265625 16.98828125 C9.56667969 16.08464844 9.41070312 15.18101563 9.25 14.25 C8.44405501 12.29195005 7.58798303 10.3539126 6.6875 8.4375 C6.00494141 6.97376953 6.00494141 6.97376953 5.30859375 5.48046875 C4.95925781 4.74441406 4.60992187 4.00835937 4.25 3.25 C1.28 3.25 -1.69 3.25 -4.75 3.25 C-4.42 4.57 -4.09 5.89 -3.75 7.25 C-2.656875 7.3325 -1.56375 7.415 -0.4375 7.5 C3.25 8.25 3.25 8.25 5.3125 10 C6.25 12.25 6.25 12.25 5.4375 14.75 C5.045625 15.575 4.65375 16.4 4.25 17.25 C4.25 18.57 4.25 19.89 4.25 21.25 C3.26 20.92 2.27 20.59 1.25 20.25 C0.7859375 18.5484375 0.7859375 18.5484375 0.3125 16.8125 C-0.32641132 13.17904623 -0.32641132 13.17904623 -2.8125 12.0625 C-3.451875 11.794375 -4.09125 11.52625 -4.75 11.25 C-5.11162029 9.92405895 -5.44728039 8.59061543 -5.75 7.25 C-6.74 6.92 -7.73 6.59 -8.75 6.25 C-8.4677641 14.57595898 -5.47731977 20.87515018 -1.75 28.25 C-0.43 28.25 0.89 28.25 2.25 28.25 C2.25 27.59 2.25 26.93 2.25 26.25 C5.25 27.25 5.25 27.25 6.5 28.9375 C7.7523822 32.7990118 6.81119399 35.99556638 5.1875 39.625 C4.878125 40.16125 4.56875 40.6975 4.25 41.25 C3.26 41.25 2.27 41.25 1.25 41.25 C1.25 43.23 1.25 45.21 1.25 47.25 C-0.07 47.91 -1.39 48.57 -2.75 49.25 C-4.75 46.25 -4.75 46.25 -4.75 42.25 C-5.925625 42.3428125 -5.925625 42.3428125 -7.125 42.4375 C-7.99125 42.375625 -8.8575 42.31375 -9.75 42.25 C-12.04013653 38.8147952 -11.92842973 37.264669 -11.75 33.25 C-13.4 32.92 -15.05 32.59 -16.75 32.25 C-16.87375 31.59 -16.9975 30.93 -17.125 30.25 C-17.33125 29.26 -17.5375 28.27 -17.75 27.25 C-17.9975 26.033125 -18.245 24.81625 -18.5 23.5625 C-19.58149965 19.15266421 -21.62345218 15.3981999 -23.82421875 11.44921875 C-24.75 9.25 -24.75 9.25 -23.75 6.25 C-21.04749639 6.85055636 -19.26421627 7.57339965 -17.5625 9.8125 C-15.48617552 13.59873876 -14.5811878 16.75317495 -14.375 21.0625 C-14.01476493 27.32280132 -11.00059384 32.02121602 -7.75 37.25 C-5.24562605 31.22016024 -5.24562605 31.22016024 -5.3125 24.8125 C-6.48893769 22.12331986 -6.48893769 22.12331986 -8.8125 21.3125 C-9.451875 20.961875 -10.09125 20.61125 -10.75 20.25 C-10.98653379 18.66184453 -11.20708412 17.06924456 -11.3359375 15.46875 C-12.21115406 10.77891032 -14.66339802 6.50789999 -16.75 2.25 C-14.77 2.91 -12.79 3.57 -10.75 4.25 C-10.22921875 3.59515625 -9.7084375 2.9403125 -9.171875 2.265625 C-5.96693783 -0.4017098 -4.10842763 -0.16433711 0 0 Z " fill="#F09441" transform="translate(60.75,28.75)"/>
<path d="M0 0 C1.64623471 0.0018681 3.29246998 0.00329015 4.93870544 0.00428772 C9.24420746 0.00808204 13.54967504 0.01788554 17.85516357 0.0289917 C22.25955744 0.03927259 26.66395694 0.04379957 31.06835938 0.04882812 C39.69011986 0.05951095 48.31185251 0.07654975 56.93359375 0.09765625 C56.93359375 0.75765625 56.93359375 1.41765625 56.93359375 2.09765625 C55.58508583 2.11311745 55.58508583 2.11311745 54.20933533 2.12889099 C45.7202388 2.22703374 37.23120904 2.32957142 28.74222469 2.43699551 C24.37838596 2.49206414 20.01454035 2.54545759 15.65063477 2.5949707 C11.43604052 2.64285222 7.22152291 2.695202 3.00702095 2.750597 C1.40236899 2.77091327 -0.20230389 2.78964331 -1.80699348 2.80673027 C-4.06159107 2.83101359 -6.31604702 2.86103285 -8.57055664 2.89233398 C-9.85184952 2.90787827 -11.1331424 2.92342255 -12.45326233 2.93943787 C-16.06954138 3.09779354 -19.51418842 3.39482975 -23.06640625 4.09765625 C-23.39640625 4.75765625 -23.72640625 5.41765625 -24.06640625 6.09765625 C-26.69296913 8.36193459 -28.70602766 9.38484867 -32.06640625 10.09765625 C-36.52250479 11.43448581 -38.54264291 13.18147176 -41.06640625 17.09765625 C-41.76371431 19.42201645 -42.43552777 21.75439331 -43.06640625 24.09765625 C-43.72640625 24.42765625 -44.38640625 24.75765625 -45.06640625 25.09765625 C-46.88716546 30.13874725 -47.36904631 34.79068087 -47.38525391 40.14428711 C-47.39529953 40.91584137 -47.40534515 41.68739563 -47.41569519 42.48233032 C-47.4463572 45.00904661 -47.4635146 47.53565778 -47.48046875 50.0625 C-47.4991941 51.82370396 -47.51876852 53.58489907 -47.53915405 55.34608459 C-47.59033692 59.96390555 -47.63003648 64.58175555 -47.66729736 69.19970703 C-47.7074241 73.91901756 -47.75847678 78.63820873 -47.80859375 83.35742188 C-47.90518897 92.60408264 -47.98964594 101.85081103 -48.06640625 111.09765625 C-47.40640625 111.09765625 -46.74640625 111.09765625 -46.06640625 111.09765625 C-44.92904361 116.65809581 -44.92904361 116.65809581 -45.69140625 119.09765625 C-46.30243936 122.35649952 -44.70974361 124.33919711 -43.06640625 127.09765625 C-41.50538134 128.91319784 -41.50538134 128.91319784 -40.06640625 130.09765625 C-40.39640625 131.08765625 -40.72640625 132.07765625 -41.06640625 133.09765625 C-52.13444568 121.1072802 -51.22744039 107.15882012 -51.234375 91.76171875 C-51.23759471 90.07457451 -51.2409593 88.38743054 -51.24446106 86.70028687 C-51.25042467 83.17518466 -51.25230377 79.65010688 -51.25170898 76.125 C-51.25160741 71.63441873 -51.26526702 67.14399573 -51.28248119 62.65345192 C-51.29366256 59.17191871 -51.29562633 55.69042307 -51.29509926 52.20887375 C-51.29626985 50.55447214 -51.30063915 48.90006925 -51.30843163 47.24568558 C-51.37307409 32.10786069 -50.93051516 20.42245148 -40.37890625 8.84765625 C-29.4247874 -1.63288227 -14.09082226 -0.04719944 0 0 Z " fill="#F89422" transform="translate(56.06640625,0.90234375)"/>
<path d="M0 0 C1.1171875 3.71875 1.1171875 3.71875 0.0625 6.25 C-0.4634375 7.11625 -0.4634375 7.11625 -1 8 C-1.66 8 -2.32 8 -3 8 C-3.16733157 9.4790916 -3.33384686 10.95827556 -3.5 12.4375 C-3.63921875 13.67306641 -3.63921875 13.67306641 -3.78125 14.93359375 C-3.94456279 16.4639499 -3.94456279 16.4639499 -4 18 C-3.34 18.33 -2.68 18.66 -2 19 C-0.30431257 17.30431257 0.50805476 15.07342754 1.5625 12.9375 C2.01753906 12.01839844 2.47257812 11.09929688 2.94140625 10.15234375 C3.29074219 9.44207031 3.64007813 8.73179688 4 8 C4.66 8.33 5.32 8.66 6 9 C2.91745318 15.46226415 -0.17236913 21.92101899 -3.26611328 28.37792969 C-4.46707946 30.88540749 -5.66565217 33.39401399 -6.86279297 35.90332031 C-8.44706521 39.22378374 -10.03565338 42.54215325 -11.62689209 45.85928345 C-12.25017148 47.16046913 -12.87195998 48.46237003 -13.49224854 49.76498413 C-14.36719959 51.60171277 -15.24793188 53.43568404 -16.12890625 55.26953125 C-16.63494385 56.32760986 -17.14098145 57.38568848 -17.66235352 58.47583008 C-19 61 -19 61 -21 63 C-21 61.68 -21 60.36 -21 59 C-21.66 59 -22.32 59 -23 59 C-22.5359375 58.13375 -22.5359375 58.13375 -22.0625 57.25 C-21.06704845 55.14198495 -20.39542546 53.29346769 -20 51 C-20.33 50.67 -20.66 50.34 -21 50 C-21.33 50.66 -21.66 51.32 -22 52 C-22.99 52 -23.98 52 -25 52 C-23.5057328 47.15495179 -21.55519198 42.68640576 -19.375 38.125 C-19.02381104 37.38540039 -18.67262207 36.64580078 -18.31079102 35.88378906 C-12.52416428 23.75108004 -6.45943996 11.78847792 0 0 Z " fill="#F27725" transform="translate(96,32)"/>
<path d="M0 0 C5.68895021 4.46988945 7.88215776 12.07779359 9 19 C9.1021903 21.64879822 9.15708512 24.27168511 9.16113281 26.92041016 C9.16609772 27.70326385 9.17106262 28.48611755 9.17617798 29.29269409 C9.19074469 31.87482597 9.19759378 34.45689633 9.203125 37.0390625 C9.20888263 38.84402466 9.21464028 40.64898682 9.22039795 42.45394897 C9.2308935 46.23834517 9.23674507 50.02272022 9.24023438 53.80712891 C9.24570446 58.63194314 9.26970673 63.4564731 9.29820633 68.2811985 C9.31693012 72.01151313 9.32204355 75.74176075 9.32357025 79.47211838 C9.32657729 81.249338 9.33453912 83.02655699 9.34775543 84.80373001 C9.44040108 98.22361706 9.26922729 111.47901637 -0.66796875 121.71875 C-9.04131767 129.26030929 -18.46553564 131.31217306 -29.46630859 131.2746582 C-30.25949997 131.27976913 -31.05269135 131.28488007 -31.86991882 131.29014587 C-34.46283756 131.30391839 -37.05548679 131.30309446 -39.6484375 131.30078125 C-41.47010393 131.30467502 -43.29176946 131.30901108 -45.11343384 131.31376648 C-48.92103018 131.32120223 -52.72853374 131.32095672 -56.53613281 131.31567383 C-61.3900022 131.30988344 -66.24348948 131.32681274 -71.09729576 131.3500185 C-74.85678284 131.36482577 -78.61617938 131.36561806 -82.37569046 131.36250877 C-84.16406638 131.3630185 -85.95244784 131.36818993 -87.74079514 131.37832069 C-100.82900064 131.44337364 -112.02339522 130.95725218 -123 123 C-122.01 122.505 -122.01 122.505 -121 122 C-120.01 122.33 -119.02 122.66 -118 123 C-118 123.66 -118 124.32 -118 125 C-116.68 125 -115.36 125 -114 125 C-114 125.66 -114 126.32 -114 127 C-103.42406034 128.17229135 -92.8931446 128.14626406 -82.26953125 128.1328125 C-80.3833566 128.13348723 -78.49718204 128.13445866 -76.61100769 128.13571167 C-72.68524333 128.13717672 -68.75950191 128.13507006 -64.83374023 128.13037109 C-59.7918942 128.12463101 -54.7501009 128.12798712 -49.70825672 128.13394356 C-45.8265289 128.13754466 -41.94481375 128.13641343 -38.06308556 128.13381577 C-36.20225709 128.13314748 -34.34142749 128.13397152 -32.48060036 128.13629532 C-29.89564543 128.13881907 -27.31077841 128.13498722 -24.72583008 128.12939453 C-23.95346512 128.13141876 -23.18110016 128.13344299 -22.3853302 128.13552856 C-18.90137196 128.43937111 -18.90137196 128.43937111 -16 127 C-14.00041636 126.95919217 -11.99954746 126.95745644 -10 127 C-10 126.34 -10 125.68 -10 125 C-9.34 125 -8.68 125 -8 125 C-8 124.34 -8 123.68 -8 123 C-7.01 123 -6.02 123 -5 123 C-5 122.34 -5 121.68 -5 121 C-4.21625 120.566875 -3.4325 120.13375 -2.625 119.6875 C0.41686215 117.73201719 0.98981901 116.39788151 2 113 C2.66 113 3.32 113 4 113 C4.33 108.71 4.66 104.42 5 100 C5.66 100 6.32 100 7 100 C7.495 60.4 7.495 60.4 8 20 C7.34 20 6.68 20 6 20 C5.72736328 18.77023438 5.72736328 18.77023438 5.44921875 17.515625 C5.19785156 16.43796875 4.94648438 15.3603125 4.6875 14.25 C4.44386719 13.18265625 4.20023437 12.1153125 3.94921875 11.015625 C3.18225088 7.99614398 3.18225088 7.99614398 1.39453125 5.859375 C0 4 0 4 0 0 Z " fill="#D16F49" transform="translate(139,12)"/>
<path d="M0 0 C3.02567233 0.55012224 5.27347879 1.09467762 7.25390625 3.5625 C9.31485395 7.33456665 10.16323239 10.52932937 10.375 14.8125 C10.73523507 21.07280132 13.74940616 25.77121602 17 31 C17.99 31 18.98 31 20 31 C20.103125 30.2575 20.20625 29.515 20.3125 28.75 C21.05430747 25.78277013 21.88680554 24.19447117 24 22 C24.99 22 25.98 22 27 22 C27 21.34 27 20.68 27 20 C30 21 30 21 31.25 22.6875 C32.5023822 26.5490118 31.56119399 29.74556638 29.9375 33.375 C29.628125 33.91125 29.31875 34.4475 29 35 C28.01 35 27.02 35 26 35 C26 36.98 26 38.96 26 41 C24.68 41.66 23.36 42.32 22 43 C20 40 20 40 20 36 C18.824375 36.0928125 18.824375 36.0928125 17.625 36.1875 C16.75875 36.125625 15.8925 36.06375 15 36 C12.70986347 32.5647952 12.82157027 31.014669 13 27 C11.35 26.67 9.7 26.34 8 26 C7.87625 25.34 7.7525 24.68 7.625 24 C7.41875 23.01 7.2125 22.02 7 21 C6.7525 19.783125 6.505 18.56625 6.25 17.3125 C5.1658635 12.92591693 3.17157358 9.15402418 1.0234375 5.19921875 C0 3 0 3 0 0 Z " fill="#F47C22" transform="translate(36,35)"/>
<path d="M0 0 C1.93359375 0.3515625 1.93359375 0.3515625 4 1 C5.0625 3.375 5.0625 3.375 6 6 C6.495 6.495 6.99 6.99 7.5 7.5 C9.43119758 9.43119758 9.99238411 11.48096027 11 14 C11.45375 14.45375 11.9075 14.9075 12.375 15.375 C13.95246246 16.95246246 15.05767522 18.43356061 16.25 20.3125 C16.60578125 20.86550781 16.9615625 21.41851562 17.328125 21.98828125 C19.17068037 27.50523484 15.82430027 32.99742004 13.4375 37.875 C13.10814453 38.56335938 12.77878906 39.25171875 12.43945312 39.9609375 C11.63304639 41.6438733 10.81745506 43.32240293 10 45 C8.92825237 41.34811918 9.23588533 38.73567172 10 35 C10.99 35 11.98 35 13 35 C14.87151162 28.85322307 14.87151162 28.85322307 14.1875 22.6875 C13.09312675 20.84902178 13.09312675 20.84902178 11 20 C11 20.66 11 21.32 11 22 C10.01 22.33 9.02 22.66 8 23 C7.34 23.66 6.68 24.32 6 25 C5.62875 23.2675 5.62875 23.2675 5.25 21.5 C4.49144759 18.37234552 3.46041598 15.85665511 1.875 13.0625 C-0.45642998 8.71913229 -0.40252108 4.83025294 0 0 Z " fill="#F4842B" transform="translate(52,35)"/>
<path d="M0 0 C1.64623471 0.0018681 3.29246998 0.00329015 4.93870544 0.00428772 C9.24420746 0.00808204 13.54967504 0.01788554 17.85516357 0.0289917 C22.25955744 0.03927259 26.66395694 0.04379957 31.06835938 0.04882812 C39.69011986 0.05951095 48.31185251 0.07654975 56.93359375 0.09765625 C56.93359375 0.75765625 56.93359375 1.41765625 56.93359375 2.09765625 C55.58508583 2.11311745 55.58508583 2.11311745 54.20933533 2.12889099 C45.7202388 2.22703374 37.23120904 2.32957142 28.74222469 2.43699551 C24.37838596 2.49206414 20.01454035 2.54545759 15.65063477 2.5949707 C11.43604052 2.64285222 7.22152291 2.695202 3.00702095 2.750597 C1.40236899 2.77091327 -0.20230389 2.78964331 -1.80699348 2.80673027 C-4.06159107 2.83101359 -6.31604702 2.86103285 -8.57055664 2.89233398 C-9.85184952 2.90787827 -11.1331424 2.92342255 -12.45326233 2.93943787 C-16.06954138 3.09779354 -19.51418842 3.39482975 -23.06640625 4.09765625 C-23.39640625 4.75765625 -23.72640625 5.41765625 -24.06640625 6.09765625 C-24.74703125 5.87078125 -25.42765625 5.64390625 -26.12890625 5.41015625 C-30.1371615 4.98374612 -32.48913108 6.34153935 -36.06640625 8.09765625 C-36.87078125 8.48953125 -37.67515625 8.88140625 -38.50390625 9.28515625 C-39.01953125 9.55328125 -39.53515625 9.82140625 -40.06640625 10.09765625 C-36.71803647 4.6185057 -32.05066407 2.72754756 -26.06640625 1.09765625 C-17.40555214 -0.2045124 -8.7339191 -0.02925564 0 0 Z " fill="#E19954" transform="translate(56.06640625,0.90234375)"/>
<path d="M0 0 C0 3 0 3 -1.3984375 4.4296875 C-2.19121094 5.20699219 -2.19121094 5.20699219 -3 6 C-3.95124744 7.99803051 -3.95124744 7.99803051 -4.625 10.125 C-5.91666667 13.91666667 -5.91666667 13.91666667 -7 15 C-7.12523079 17.82960718 -7.18609228 20.63599337 -7.20532227 23.46704102 C-7.21522186 24.35476196 -7.22512146 25.24248291 -7.23532104 26.15710449 C-7.26703484 29.10601082 -7.29173234 32.05493329 -7.31640625 35.00390625 C-7.33696726 37.0427239 -7.35796349 39.08153721 -7.37937927 41.12034607 C-7.4346881 46.49779755 -7.48405838 51.87528806 -7.53222656 57.25280762 C-7.58237742 62.73563121 -7.63809689 68.21839784 -7.69335938 73.70117188 C-7.80104865 84.4673993 -7.90246954 95.2336761 -8 106 C-8.33 106 -8.66 106 -9 106 C-9.80417561 101.05381886 -10.13073955 96.33798197 -10.14526367 91.31152344 C-10.14862228 90.57714554 -10.1519809 89.84276764 -10.15544128 89.08613586 C-10.16487866 86.67719799 -10.16689087 84.26833018 -10.16796875 81.859375 C-10.17118678 80.16937228 -10.17455125 78.47936983 -10.17805481 76.78936768 C-10.18402838 73.25231278 -10.18589658 69.71528224 -10.18530273 66.17822266 C-10.18520132 61.67188988 -10.19884054 57.16571537 -10.21607494 52.65942001 C-10.22725876 49.16930439 -10.22921998 45.67922624 -10.22869301 42.18909454 C-10.22986402 40.52911078 -10.23423576 38.86912575 -10.24202538 37.20915985 C-10.35512592 10.6147186 -10.35512592 10.6147186 -1.33984375 1.28125 C-0.89769531 0.8584375 -0.45554687 0.435625 0 0 Z " fill="#E1944E" transform="translate(15,11)"/>
<path d="M0 0 C8.40377992 0.80092924 16.21726348 1.57979995 23 7 C24.73828125 9.1640625 24.73828125 9.1640625 26 11 C24.35 10.34 22.7 9.68 21 9 C21 8.34 21 7.68 21 7 C19.948125 7.061875 18.89625 7.12375 17.8125 7.1875 C14 7 14 7 11.76765442 5.50956726 C8.13723097 3.52941817 4.93121875 3.60142877 0.9050293 3.65942383 C0.10450638 3.65898575 -0.69601654 3.65854767 -1.52079773 3.65809631 C-4.15604386 3.66017954 -6.79064682 3.68348822 -9.42578125 3.70703125 C-11.2570918 3.71262887 -13.08840686 3.71689819 -14.91972351 3.71989441 C-19.73174517 3.73133011 -24.54349371 3.76078633 -29.35540771 3.79400635 C-34.26880194 3.82473471 -39.18224044 3.83840566 -44.09570312 3.85351562 C-53.73058852 3.88565724 -63.36527152 3.9368382 -73 4 C-73 3.34 -73 2.68 -73 2 C-48.91 2 -24.82 2 0 2 C0 1.34 0 0.68 0 0 Z " fill="#F18E33" transform="translate(113,1)"/>
<path d="M0 0 C0.93065133 2.60582371 1.14917407 3.64198224 0.0625 6.25 C-0.288125 6.8275 -0.63875 7.405 -1 8 C-1.66 8 -2.32 8 -3 8 C-3.16733157 9.4790916 -3.33384686 10.95827556 -3.5 12.4375 C-3.5928125 13.26121094 -3.685625 14.08492187 -3.78125 14.93359375 C-3.94456279 16.4639499 -3.94456279 16.4639499 -4 18 C-3.34 18.33 -2.68 18.66 -2 19 C-0.30431257 17.30431257 0.50805476 15.07342754 1.5625 12.9375 C2.01753906 12.01839844 2.47257812 11.09929688 2.94140625 10.15234375 C3.29074219 9.44207031 3.64007813 8.73179688 4 8 C4.66 8.33 5.32 8.66 6 9 C4.21523935 12.79495537 2.42103389 16.5853685 0.625 20.375 C0.11710937 21.45523438 -0.39078125 22.53546875 -0.9140625 23.6484375 C-1.40390625 24.6796875 -1.89375 25.7109375 -2.3984375 26.7734375 C-2.84880371 27.72653809 -3.29916992 28.67963867 -3.76318359 29.66162109 C-5 32 -5 32 -7 34 C-6.51421457 30.87709365 -6.0013988 28.00419641 -5 25 C-4.34 25 -3.68 25 -3 25 C-3 23.68 -3 22.36 -3 21 C-3.66 21 -4.32 21 -5 21 C-5.12375 21.639375 -5.2475 22.27875 -5.375 22.9375 C-5.58125 23.618125 -5.7875 24.29875 -6 25 C-6.66 25.33 -7.32 25.66 -8 26 C-8 27.32 -8 28.64 -8 30 C-9.65 29.67 -11.3 29.34 -13 29 C-13.33 29.66 -13.66 30.32 -14 31 C-13.41793492 27.58846229 -12.56427484 24.72170322 -11.07421875 21.6015625 C-10.49704102 20.38726562 -10.49704102 20.38726562 -9.90820312 19.1484375 C-9.50537109 18.31570312 -9.10253906 17.48296875 -8.6875 16.625 C-8.1006543 15.3875 -8.1006543 15.3875 -7.50195312 14.125 C-5.1888976 9.29174964 -2.71913267 4.61692549 0 0 Z " fill="#ED8032" transform="translate(96,32)"/>
<path d="M0 0 C3.63 0 7.26 0 11 0 C11.33773437 0.83144531 11.67546875 1.66289062 12.0234375 2.51953125 C12.46945313 3.60621094 12.91546875 4.69289063 13.375 5.8125 C13.81585938 6.89144531 14.25671875 7.97039063 14.7109375 9.08203125 C15.9479119 12.10730112 15.9479119 12.10730112 18 15 C18 15.99 18 16.98 18 18 C18.66 18 19.32 18 20 18 C20.10957031 17.30132812 20.21914062 16.60265625 20.33203125 15.8828125 C20.49058594 14.97273438 20.64914063 14.06265625 20.8125 13.125 C20.96332031 12.22007813 21.11414063 11.31515625 21.26953125 10.3828125 C22 8 22 8 25 6 C25.72965366 3.43717258 25.72965366 3.43717258 26 1 C29.15506142 0.06380187 31.96586502 -0.1057123 35.25 -0.0625 C36.14203125 -0.05347656 37.0340625 -0.04445313 37.953125 -0.03515625 C38.62859375 -0.02355469 39.3040625 -0.01195313 40 0 C40 0.66 40 1.32 40 2 C39.29875 1.87496094 38.5975 1.74992187 37.875 1.62109375 C34.30935442 1.39339627 32.28365471 1.50939359 29 3 C25.64502244 7.53364786 23.7783648 13.06697018 21.90039062 18.34179688 C21 20 21 20 18 21 C15 19 15 19 14.43359375 16.734375 C14.29050781 15.83203125 14.14742187 14.9296875 14 14 C12.81760136 9.97434508 11.51869201 6.38272761 9 3 C5.60275991 1.75850095 2.5815761 1.70095578 -1 2 C-0.67 1.34 -0.34 0.68 0 0 Z " fill="#EC9843" transform="translate(56,29)"/>
<path d="M0 0 C1.43739513 -0.02712066 2.87493863 -0.04645067 4.3125 -0.0625 C5.51326172 -0.07990234 5.51326172 -0.07990234 6.73828125 -0.09765625 C9 0 9 0 12 1 C10.6 11.2 10.6 11.2 9 16 C8.236875 16.53625 7.47375 17.0725 6.6875 17.625 C3.01288395 20.87233511 1.79131781 24.51782816 0 29 C-1.5625 32.5 -1.5625 32.5 -3 35 C-4.485 35.495 -4.485 35.495 -6 36 C-4.34756073 30.63555949 -1.9705916 25.93988839 0.66015625 21 C2.02677152 17.94005678 2.58039868 15.3101882 3 12 C3.31674575 10.66262906 3.64270064 9.32711192 4 8 C4.61875 7.938125 5.2375 7.87625 5.875 7.8125 C6.57625 7.544375 7.2775 7.27625 8 7 C8.66 5.35 9.32 3.7 10 2 C6.37 2 2.74 2 -1 2 C-0.67 1.34 -0.34 0.68 0 0 Z " fill="#E68444" transform="translate(108,29)"/>
<path d="M0 0 C-1.33250791 3.5875213 -2.830717 6.8364623 -5 10 C-5.66 10 -6.32 10 -7 10 C-7.12246094 10.57234375 -7.24492188 11.1446875 -7.37109375 11.734375 C-8.02762868 14.09953191 -8.93723512 16.07206797 -10.0625 18.25 C-10.42472656 18.95640625 -10.78695312 19.6628125 -11.16015625 20.390625 C-11.57587891 21.18726563 -11.57587891 21.18726563 -12 22 C-13.65 21.67 -15.3 21.34 -17 21 C-15.515 15.555 -15.515 15.555 -14 10 C-13.34 10.66 -12.68 11.32 -12 12 C-9.64089647 7.7362719 -9.64089647 7.7362719 -9 3 C-3.375 0 -3.375 0 0 0 Z " fill="#F27D2E" transform="translate(107,30)"/>
<path d="M0 0 C0.33 0 0.66 0 1 0 C1 15.84 1 31.68 1 48 C1.66 48 2.32 48 3 48 C4.13736264 53.56043956 4.13736264 53.56043956 3.375 56 C2.76396689 59.25884327 4.35666264 61.24154086 6 64 C7.56102491 65.81554159 7.56102491 65.81554159 9 67 C8.67 67.99 8.34 68.98 8 70 C0.02576462 61.36124501 -1.59923906 53.71506722 -1.171875 42.08984375 C-1.14401917 40.88179581 -1.11616333 39.67374786 -1.08746338 38.42909241 C-0.99462906 34.59775453 -0.8727642 30.7679839 -0.75 26.9375 C-0.68167025 24.32882571 -0.61524387 21.72010083 -0.55078125 19.11132812 C-0.38921108 12.74013462 -0.20384529 6.3699736 0 0 Z " fill="#F5882A" transform="translate(7,64)"/>
<path d="M0 0 C0.66 0 1.32 0 2 0 C0.4719611 5.09882455 -1.71036856 9.65665659 -4.125 14.375 C-4.49753906 15.11105469 -4.87007812 15.84710938 -5.25390625 16.60546875 C-6.1656122 18.40550358 -7.08229932 20.20301402 -8 22 C-8.33 20.68 -8.66 19.36 -9 18 C-9.66 18 -10.32 18 -11 18 C-10.5359375 17.13375 -10.5359375 17.13375 -10.0625 16.25 C-9.06704845 14.14198495 -8.39542546 12.29346769 -8 10 C-8.33 9.67 -8.66 9.34 -9 9 C-9.33 9.66 -9.66 10.32 -10 11 C-10.99 11 -11.98 11 -13 11 C-12.65120368 7.74456771 -11.97866739 6.98126893 -9.4375 4.75 C-8.2309375 3.88375 -8.2309375 3.88375 -7 3 C-7 3.99 -7 4.98 -7 6 C-5.68 6.33 -4.36 6.66 -3 7 C-2.67 5.68 -2.34 4.36 -2 3 C-1.34 3 -0.68 3 0 3 C0 2.01 0 1.02 0 0 Z " fill="#F17327" transform="translate(84,73)"/>
<path d="M0 0 C3.08611989 0.56111271 5.31270102 1.08574248 7.25390625 3.66796875 C9.52766146 8.00572315 10.70417035 12.06950575 11 17 C10.67 17.66 10.34 18.32 10 19 C9.34 19 8.68 19 8 19 C6.65929682 16.39939496 5.32726646 13.79495084 4 11.1875 C3.6184375 10.44951172 3.236875 9.71152344 2.84375 8.95117188 C2.4828125 8.23896484 2.121875 7.52675781 1.75 6.79296875 C1.41484375 6.1383667 1.0796875 5.48376465 0.734375 4.80932617 C0 3 0 3 0 0 Z " fill="#F9EED9" transform="translate(36,35)"/>
<path d="M0 0 C1.3058334 3.92128522 0.38030356 5.97831091 -1.40039062 9.68359375 C-1.74263672 10.36550781 -2.08488281 11.04742187 -2.4375 11.75 C-2.77587891 12.44738281 -3.11425781 13.14476563 -3.46289062 13.86328125 C-4.29806458 15.58068121 -5.14765424 17.29105738 -6 19 C-6.66 19 -7.32 19 -8 19 C-8.09410156 19.67546875 -8.18820313 20.3509375 -8.28515625 21.046875 C-9.17348893 24.71670837 -10.7345078 27.90644708 -12.4375 31.25 C-12.75009766 31.88679688 -13.06269531 32.52359375 -13.38476562 33.1796875 C-15.74653518 37.87326759 -15.74653518 37.87326759 -18 39 C-15.48615173 30.30266287 -11.40356294 22.46873768 -7.3125 14.4375 C-6.60295512 13.03348625 -5.8939661 11.62919143 -5.18554688 10.22460938 C-3.46342341 6.81313175 -1.73381987 3.40554701 0 0 Z " fill="#DC7B48" transform="translate(101,65)"/>
<path d="M0 0 C0.66 0 1.32 0 2 0 C2 0.66 2 1.32 2 2 C3.32 1.34 4.64 0.68 6 0 C6 1.65 6 3.3 6 5 C5.34 5 4.68 5 4 5 C4 5.99 4 6.98 4 8 C3.34 8 2.68 8 2 8 C1.67 9.65 1.34 11.3 1 13 C-0.65 13 -2.3 13 -4 13 C-3.56826373 7.90551202 -3.24599784 4.15487723 0 0 Z " fill="#F27426" transform="translate(80,68)"/>
<path d="M0 0 C3.36798609 0.29937654 5.41632905 0.48928792 8 2.75 C9 5 9 5 8.1875 7.5 C7.795625 8.325 7.40375 9.15 7 10 C7 11.32 7 12.64 7 14 C4 13 4 13 2.83203125 11.07421875 C2.49558594 10.28660156 2.15914062 9.49898437 1.8125 8.6875 C1.46832031 7.90761719 1.12414063 7.12773438 0.76953125 6.32421875 C0 4 0 4 0 0 Z " fill="#FCE4C9" transform="translate(58,36)"/>
<path d="M0 0 C1.93359375 0.3515625 1.93359375 0.3515625 4 1 C5.0625 3.375 5.0625 3.375 6 6 C6.98095748 7.01868662 7.97702078 8.02351983 9 9 C9 9.66 9 10.32 9 11 C7 11 5 11 3 11 C2.67 11.99 2.34 12.98 2 14 C-0.3992233 9.35150485 -0.19957409 5.08913926 0 0 Z " fill="#EF8A2F" transform="translate(52,35)"/>
<path d="M0 0 C2.475 0.495 2.475 0.495 5 1 C5 1.66 5 2.32 5 3 C6.32 3 7.64 3 9 3 C9 3.66 9 4.32 9 5 C19.23 5.66 29.46 6.32 40 7 C40 7.33 40 7.66 40 8 C11.62068585 10.25659217 11.62068585 10.25659217 0 1 C0 0.67 0 0.34 0 0 Z " fill="#E47D3F" transform="translate(16,134)"/>
<path d="M0 0 C3.13177375 1.56588688 4.10294868 4.61183336 5.625 7.625 C5.94984375 8.22957031 6.2746875 8.83414063 6.609375 9.45703125 C8.82089874 13.81503392 9.4114938 17.15025169 9 22 C8 24.9375 8 24.9375 7 27 C6.34 27 5.68 27 5 27 C5.25136719 26.12988281 5.25136719 26.12988281 5.5078125 25.2421875 C6.80906443 20.25130983 7.55656244 16.76450273 5 12 C4.32710937 11.72285156 3.65421875 11.44570313 2.9609375 11.16015625 C2.31382813 10.77730469 1.66671875 10.39445312 1 10 C0.390625 7.6171875 0.390625 7.6171875 0.25 4.875 C0.19328125 3.96492188 0.1365625 3.05484375 0.078125 2.1171875 C0.05234375 1.41851562 0.0265625 0.71984375 0 0 Z " fill="#E79851" transform="translate(49,39)"/>
<path d="M0 0 C2.0625 2.125 2.0625 2.125 4 5 C3.70020241 10.15651854 1.66824562 14.31632777 -0.5625 18.875 C-0.89185547 19.56335938 -1.22121094 20.25171875 -1.56054688 20.9609375 C-2.36695361 22.6438733 -3.18254494 24.32240293 -4 26 C-5.07174763 22.34811918 -4.76411467 19.73567172 -4 16 C-3.01 16 -2.02 16 -1 16 C-0.1102009 12.69503191 0.54753044 9.39352169 1 6 C0.67 5.67 0.34 5.34 0 5 C-0.04063832 3.33382885 -0.042721 1.66611905 0 0 Z " fill="#E59553" transform="translate(66,54)"/>
<path d="M0 0 C0.33 0.99 0.66 1.98 1 3 C-0.134375 3.12375 -1.26875 3.2475 -2.4375 3.375 C-4.2009375 3.684375 -4.2009375 3.684375 -6 4 C-6.33 4.66 -6.66 5.32 -7 6 C-7.680625 5.773125 -8.36125 5.54625 -9.0625 5.3125 C-13.07075525 4.88608987 -15.42272483 6.2438831 -19 8 C-19.804375 8.391875 -20.60875 8.78375 -21.4375 9.1875 C-21.953125 9.455625 -22.46875 9.72375 -23 10 C-19.61389552 4.45910176 -14.99855723 2.74630487 -9 1 C-5.97148271 0.46476867 -3.07685085 0.19850651 0 0 Z " fill="#ECA449" transform="translate(39,1)"/>
<path d="M0 0 C0.86625 0.4640625 0.86625 0.4640625 1.75 0.9375 C3.86895512 1.93811769 5.6926424 2.6154404 8 3 C8.66 2.67 9.32 2.34 10 2 C10 1.34 10 0.68 10 0 C12.97 0 15.94 0 19 0 C18.01 0.495 18.01 0.495 17 1 C17 1.66 17 2.32 17 3 C10.92972642 5.1583195 5.40629424 5.20852314 -1 5 C-0.67 3.35 -0.34 1.7 0 0 Z " fill="#EF5B2D" transform="translate(112,136)"/>
<path d="M0 0 C0.89203125 0.00902344 1.7840625 0.01804687 2.703125 0.02734375 C3.37859375 0.03894531 4.0540625 0.05054687 4.75 0.0625 C4.75 0.7225 4.75 1.3825 4.75 2.0625 C4.01394531 2.01867187 3.27789062 1.97484375 2.51953125 1.9296875 C-0.66966608 1.93811338 -3.20283917 2.0910035 -6.25 3.0625 C-8.7129475 6.12553005 -10.0294063 9.34677 -11.25 13.0625 C-11.91 13.0625 -12.57 13.0625 -13.25 13.0625 C-13.4375 10.6875 -13.4375 10.6875 -13.25 8.0625 C-12.26 7.4025 -11.27 6.7425 -10.25 6.0625 C-9.52034634 3.49967258 -9.52034634 3.49967258 -9.25 1.0625 C-6.09493858 0.12630187 -3.28413498 -0.0432123 0 0 Z " fill="#E68F49" transform="translate(91.25,28.9375)"/>
<path d="M0 0 C1.65 1.32 3.3 2.64 5 4 C4.62875 5.19625 4.2575 6.3925 3.875 7.625 C2.84267566 11.65393248 3.26898637 14.15330304 5 18 C2 17 2 17 0.875 15.3125 C-1.14845656 9.96479339 -1.00627636 5.59042423 0 0 Z " fill="#E37435" transform="translate(69,93)"/>
<path d="M0 0 C0.66 0.33 1.32 0.66 2 1 C0.21523935 4.79495537 -1.57896611 8.5853685 -3.375 12.375 C-3.88289063 13.45523438 -4.39078125 14.53546875 -4.9140625 15.6484375 C-5.40390625 16.6796875 -5.89375 17.7109375 -6.3984375 18.7734375 C-6.84880371 19.72653809 -7.29916992 20.67963867 -7.76318359 21.66162109 C-9 24 -9 24 -11 26 C-10.51421457 22.87709365 -10.0013988 20.00419641 -9 17 C-8.34 17 -7.68 17 -7 17 C-7 15.35 -7 13.7 -7 12 C-6.34 12 -5.68 12 -5 12 C-4.731875 11.13375 -4.46375 10.2675 -4.1875 9.375 C-3.02888013 6.08208036 -1.61790161 3.08872125 0 0 Z " fill="#DB874C" transform="translate(100,40)"/>
<path d="M0 0 C0.33 0.66 0.66 1.32 1 2 C1.99 2.33 2.98 2.66 4 3 C5.38671875 5.21484375 5.38671875 5.21484375 6.6875 7.9375 C7.34298828 9.28134766 7.34298828 9.28134766 8.01171875 10.65234375 C9 13 9 13 9 15 C8.01 15 7.02 15 6 15 C6 13.35 6 11.7 6 10 C4.35 9.67 2.7 9.34 1 9 C0.29925156 5.846632 0 3.27275026 0 0 Z " fill="#E98D39" transform="translate(43,52)"/>
<path d="M0 0 C3.3 0 6.6 0 10 0 C10.33 0.66 10.66 1.32 11 2 C8.03 2 5.06 2 2 2 C2.28875 2.77085938 2.5775 3.54171875 2.875 4.3359375 C3.431875 5.84027344 3.431875 5.84027344 4 7.375 C4.556875 8.87160156 4.556875 8.87160156 5.125 10.3984375 C6 13 6 13 6 15 C4.078125 14.2734375 4.078125 14.2734375 2 13 C1.171875 10.9765625 1.171875 10.9765625 0.75 8.625 C0.60046875 7.85414062 0.4509375 7.08328125 0.296875 6.2890625 C0 4 0 4 0 0 Z " fill="#F09946" transform="translate(33,29)"/>
<path d="M0 0 C4.59259921 3.60847081 6.35727787 8.55848294 8 14 C8.25 17.625 8.25 17.625 8 20 C7.34 20 6.68 20 6 20 C5.72736328 18.77023438 5.72736328 18.77023438 5.44921875 17.515625 C5.07216797 15.89914063 5.07216797 15.89914063 4.6875 14.25 C4.44386719 13.18265625 4.20023438 12.1153125 3.94921875 11.015625 C3.18225088 7.99614398 3.18225088 7.99614398 1.39453125 5.859375 C0 4 0 4 0 0 Z " fill="#E28149" transform="translate(139,12)"/>
<path d="M0 0 C0.66 0 1.32 0 2 0 C0.4719611 5.09882455 -1.71036856 9.65665659 -4.125 14.375 C-4.49753906 15.11105469 -4.87007813 15.84710938 -5.25390625 16.60546875 C-6.1656122 18.40550358 -7.08229932 20.20301402 -8 22 C-9.11572266 18.30029297 -9.11572266 18.30029297 -8.07421875 15.59765625 C-7.61660156 14.76105469 -7.15898438 13.92445312 -6.6875 13.0625 C-4.90613509 9.76008426 -3.33693191 6.50866167 -2 3 C-1.34 3 -0.68 3 0 3 C0 2.01 0 1.02 0 0 Z " fill="#DA7943" transform="translate(84,73)"/>
<path d="M0 0 C0.33 0.99 0.66 1.98 1 3 C-5.10079265 8.20361726 -10.12300353 10.32094858 -18 11 C-15.44931155 8.64551835 -14.28982642 8.01672076 -10.75 7.8125 C-9.38875 7.9053125 -9.38875 7.9053125 -8 8 C-8 7.34 -8 6.68 -8 6 C-7.34 6 -6.68 6 -6 6 C-6 5.34 -6 4.68 -6 4 C-5.01 4 -4.02 4 -3 4 C-3 3.34 -3 2.68 -3 2 C-2.01 1.34 -1.02 0.68 0 0 Z " fill="#D66847" transform="translate(137,131)"/>
<path d="M0 0 C-1.2491742 3.45925163 -2.67527795 6.14693203 -5 9 C-5.33 7.68 -5.66 6.36 -6 5 C-6 5.99 -6 6.98 -6 8 C-7.32 7.67 -8.64 7.34 -10 7 C-9.875 5.1875 -9.875 5.1875 -9 3 C-5.79116175 1.04679411 -3.7794561 0 0 0 Z " fill="#EC8337" transform="translate(107,30)"/>
<path d="M0 0 C0 3 0 3 -1.40234375 4.453125 C-1.92957031 4.96359375 -2.45679688 5.4740625 -3 6 C-3.92030899 7.79201503 -3.92030899 7.79201503 -4.5625 9.75 C-4.80742187 10.44609375 -5.05234375 11.1421875 -5.3046875 11.859375 C-6.28804281 14.88678348 -7.16786823 17.92751348 -8 21 C-8.33 21 -8.66 21 -9 21 C-9.7278308 14.30395666 -7.47976722 9.66817606 -4 4 C-1.6875 1.375 -1.6875 1.375 0 0 Z " fill="#E7A156" transform="translate(15,11)"/>
<path d="M0 0 C2.875 0.3125 2.875 0.3125 6 1 C6.66 1.99 7.32 2.98 8 4 C7.01 4.33 6.02 4.66 5 5 C5 5.66 5 6.32 5 7 C4.34 7 3.68 7 3 7 C3 6.34 3 5.68 3 5 C2.01 4.67 1.02 4.34 0 4 C0 2.68 0 1.36 0 0 Z " fill="#FCF6EA" transform="translate(58,36)"/>
<path d="M0 0 C0.66 0 1.32 0 2 0 C2.25394531 0.54269531 2.50789062 1.08539063 2.76953125 1.64453125 C3.11371094 2.35996094 3.45789063 3.07539062 3.8125 3.8125 C4.14894531 4.52019531 4.48539063 5.22789063 4.83203125 5.95703125 C6.00645471 8.01129035 7.25628016 9.41616278 9 11 C8.67 11.99 8.34 12.98 8 14 C0 4.91891892 0 4.91891892 0 0 Z " fill="#E08A4B" transform="translate(7,120)"/>
<path d="M0 0 C1.07349791 4.29399165 0.79682816 5.19495213 -1 9 C-1.66 9 -2.32 9 -3 9 C-3 9.99 -3 10.98 -3 12 C-4.65 11.67 -6.3 11.34 -8 11 C-7.67 9.68 -7.34 8.36 -7 7 C-6.01 8.485 -6.01 8.485 -5 10 C-3.35 6.7 -1.7 3.4 0 0 Z " fill="#D97444" transform="translate(82,104)"/>
<path d="M0 0 C0.66 0 1.32 0 2 0 C1.1875 3.4375 1.1875 3.4375 0 7 C-0.99 7.33 -1.98 7.66 -3 8 C-3.99 7.34 -4.98 6.68 -6 6 C-5.67 4.35 -5.34 2.7 -5 1 C-4.34 1.33 -3.68 1.66 -3 2 C-3 2.99 -3 3.98 -3 5 C-2.34 5 -1.68 5 -1 5 C-0.67 3.35 -0.34 1.7 0 0 Z " fill="#F2AF7A" transform="translate(77,42)"/>
<path d="M0 0 C1.32 0.33 2.64 0.66 4 1 C4.33 2.65 4.66 4.3 5 6 C2.525 7.485 2.525 7.485 0 9 C0 6.03 0 3.06 0 0 Z " fill="#F88520" transform="translate(52,35)"/>
<path d="M0 0 C2.475 0.99 2.475 0.99 5 2 C5 2.99 5 3.98 5 5 C4.34 5 3.68 5 3 5 C2.67 6.32 2.34 7.64 2 9 C0.4375 7.3125 0.4375 7.3125 -1 5 C-0.6875 2.25 -0.6875 2.25 0 0 Z " fill="#F38324" transform="translate(69,30)"/>
<path d="M0 0 C3.08980073 1.54490037 3.68367403 3.88868408 5 7 C5.1875 9.875 5.1875 9.875 5 12 C3.046875 11.3203125 3.046875 11.3203125 1 10 C0.390625 7.6171875 0.390625 7.6171875 0.25 4.875 C0.19328125 3.96492188 0.1365625 3.05484375 0.078125 2.1171875 C0.05234375 1.41851562 0.0265625 0.71984375 0 0 Z " fill="#F9C089" transform="translate(49,39)"/>
<path d="M0 0 C0.66 1.98 1.32 3.96 2 6 C-0.31 5.67 -2.62 5.34 -5 5 C-5 3.68 -5 2.36 -5 1 C-3 0 -3 0 0 0 Z " fill="#E47A33" transform="translate(61,83)"/>
<path d="M0 0 C1 2 1 2 0.36328125 4.2421875 C-3.10930987 12.94302918 -3.10930987 12.94302918 -7 16 C-5.35433477 10.31497465 -2.70967216 5.23318364 0 0 Z " fill="#DB834C" transform="translate(80,64)"/>
<path d="M0 0 C1 4 1 4 0.0625 6.25 C-0.4634375 7.11625 -0.4634375 7.11625 -1 8 C-1.66 8 -2.32 8 -3 8 C-3.33 9.98 -3.66 11.96 -4 14 C-4.99 13.67 -5.98 13.34 -7 13 C-3.535 6.565 -3.535 6.565 0 0 Z " fill="#E28C44" transform="translate(96,32)"/>
<path d="M0 0 C0.33 0.66 0.66 1.32 1 2 C0.0919838 3.13199353 -0.82683826 4.25532363 -1.75 5.375 C-2.26046875 6.00148438 -2.7709375 6.62796875 -3.296875 7.2734375 C-5.08199481 9.08312318 -6.67949644 10.00117455 -9 11 C-7.44095325 7.17324889 -4.96833913 4.81992217 -2 2 C-1.34 1.34 -0.68 0.68 0 0 Z " fill="#F5972A" transform="translate(20,8)"/>
<path d="M0 0 C6.0546875 -0.1953125 6.0546875 -0.1953125 8 0 C8.66 0.66 9.32 1.32 10 2 C11.96488831 2.88778692 11.96488831 2.88778692 14.125 3.625 C14.84945312 3.88539062 15.57390625 4.14578125 16.3203125 4.4140625 C16.87460938 4.60742188 17.42890625 4.80078125 18 5 C18 5.33 18 5.66 18 6 C13.69977109 6.52123987 11.39376079 5.19900615 7.78125 2.95703125 C5.27323091 1.60952099 2.80852298 1.27400224 0 1 C0 0.67 0 0.34 0 0 Z " fill="#EC8537" transform="translate(114,2)"/>
<path d="M0 0 C1.65 0 3.3 0 5 0 C4.45276317 3.37462715 3.9451 5.08235 2 8 C1.34 7.67 0.68 7.34 0 7 C0 4.69 0 2.38 0 0 Z " fill="#F2D5C0" transform="translate(111,37)"/>
<path d="M0 0 C0.88336837 2.4667645 1.1312406 3.63859372 0.22265625 6.140625 C-0.16019531 6.83671875 -0.54304688 7.5328125 -0.9375 8.25 C-1.31777344 8.95640625 -1.69804688 9.6628125 -2.08984375 10.390625 C-2.39019531 10.92171875 -2.69054687 11.4528125 -3 12 C-3.66 12 -4.32 12 -5 12 C-3.68938409 7.76570244 -2.05643741 3.92592596 0 0 Z " fill="#D98656" transform="translate(101,65)"/>
<path d="M0 0 C2.97 0.495 2.97 0.495 6 1 C5.34 3.31 4.68 5.62 4 8 C3.34 6.68 2.68 5.36 2 4 C1.01 4 0.02 4 -1 4 C-0.67 2.68 -0.34 1.36 0 0 Z " fill="#E77E38" transform="translate(83,65)"/>
<path d="M0 0 C2.4375 0.75 2.4375 0.75 5 2 C5.875 4 5.875 4 6 6 C5.67 6.66 5.34 7.32 5 8 C4.34 8 3.68 8 3 8 C0 2.25 0 2.25 0 0 Z " fill="#FEDBA0" transform="translate(41,46)"/>
<path d="M0 0 C0.66 0 1.32 0 2 0 C-0.60909091 6.70909091 -0.60909091 6.70909091 -2 9 C-2.99 9.33 -3.98 9.66 -5 10 C-3.85569823 6.12697862 -2.76679902 2.99736561 0 0 Z " fill="#DF7C41" transform="translate(107,55)"/>
<path d="M0 0 C0.99 0 1.98 0 3 0 C2.47535095 4.61691161 1.92509086 6.09987886 -1 10 C-0.67 6.7 -0.34 3.4 0 0 Z " fill="#E68441" transform="translate(62,70)"/>
<path d="M0 0 C1.32 0 2.64 0 4 0 C4 0.66 4 1.32 4 2 C3.34 2 2.68 2 2 2 C1.67 3.65 1.34 5.3 1 7 C0.01 7 -0.98 7 -2 7 C-1.34 4.69 -0.68 2.38 0 0 Z " fill="#EB5D2D" transform="translate(139,123)"/>
<path d="M0 0 C0.33 0 0.66 0 1 0 C1 1.65 1 3.3 1 5 C-0.98 5.99 -0.98 5.99 -3 7 C-3 6.34 -3 5.68 -3 5 C-3.66 4.67 -4.32 4.34 -5 4 C-4.01 3.01 -3.02 2.02 -2 1 C-2 1.66 -2 2.32 -2 3 C-1.34 3 -0.68 3 0 3 C0 2.01 0 1.02 0 0 Z " fill="#EE6821" transform="translate(87,104)"/>
<path d="M0 0 C0.66 0.33 1.32 0.66 2 1 C0.02 5.455 0.02 5.455 -2 10 C-2.66 10 -3.32 10 -4 10 C-2.8905928 6.51329166 -1.73662334 3.22515763 0 0 Z " fill="#E99967" transform="translate(111,45)"/>
<path d="M0 0 C0.66 0.33 1.32 0.66 2 1 C2.40729228 3.32156597 2.74438677 5.6568787 3 8 C1.35 7.67 -0.3 7.34 -2 7 C-1.34 4.69 -0.68 2.38 0 0 Z " fill="#F27621" transform="translate(92,44)"/>
<path d="M0 0 C0.66 0 1.32 0 2 0 C1.42415568 2.38564077 0.77772405 4.66682784 0 7 C-0.66 7 -1.32 7 -2 7 C-2.33 7.99 -2.66 8.98 -3 10 C-3.33 9.34 -3.66 8.68 -4 8 C-3.22265625 6.0546875 -3.22265625 6.0546875 -2.0625 3.875 C-1.49208984 2.78832031 -1.49208984 2.78832031 -0.91015625 1.6796875 C-0.60980469 1.12539062 -0.30945313 0.57109375 0 0 Z " fill="#D37546" transform="translate(95,77)"/>
<path d="M0 0 C0.66 0.66 1.32 1.32 2 2 C0.1875 5 0.1875 5 -2 8 C-2.99 8 -3.98 8 -5 8 C-4.45773019 4.20411134 -2.79872437 2.52788007 0 0 Z " fill="#E87B37" transform="translate(76,76)"/>
<path d="M0 0 C1.98 0.66 3.96 1.32 6 2 C5.67 3.65 5.34 5.3 5 7 C4.34 7 3.68 7 3 7 C2.01 4.69 1.02 2.38 0 0 Z " fill="#F3812C" transform="translate(71,40)"/>
<path d="M0 0 C0.66 0 1.32 0 2 0 C5.10096154 5.45769231 5.10096154 5.45769231 4.58984375 8.203125 C4.39519531 8.79609375 4.20054688 9.3890625 4 10 C3.32845067 8.71086513 2.66291141 7.41859796 2 6.125 C1.62875 5.40570313 1.2575 4.68640625 0.875 3.9453125 C0 2 0 2 0 0 Z " fill="#E79F63" transform="translate(67,35)"/>
<path d="M0 0 C1.98 0.495 1.98 0.495 4 1 C3.67 1.66 3.34 2.32 3 3 C2.34 3 1.68 3 1 3 C1.33 4.65 1.66 6.3 2 8 C1.01 7.67 0.02 7.34 -1 7 C-0.67 4.69 -0.34 2.38 0 0 Z " fill="#F08A2A" transform="translate(81,61)"/>
<path d="M0 0 C0.66 0 1.32 0 2 0 C1.38461538 6.52307692 1.38461538 6.52307692 -0.5625 8.9375 C-1.036875 9.288125 -1.51125 9.63875 -2 10 C-1.46274105 6.62294375 -0.88935377 3.303314 0 0 Z " fill="#E78346" transform="translate(118,30)"/>
<path d="M0 0 C1.67542976 0.28604898 3.34385343 0.61781233 5 1 C4.67 1.66 4.34 2.32 4 3 C3.34 3 2.68 3 2 3 C2 3.66 2 4.32 2 5 C1.34 5 0.68 5 0 5 C-0.5625 3.0625 -0.5625 3.0625 -1 1 C-0.67 0.67 -0.34 0.34 0 0 Z " fill="#EB5C25" transform="translate(132,130)"/>
</svg>
